<mxfile host="Electron" modified="2024-04-01T09:02:59.331Z" agent="Mozilla/5.0 (Windows NT 10.0; Win64; x64) AppleWebKit/537.36 (KHTML, like Gecko) draw.io/24.1.0 Chrome/120.0.6099.109 Electron/28.1.0 Safari/537.36" etag="QRNMMWAylQoUGxBGujSi" version="24.1.0" type="device">
  <diagram name="Page-1" id="3O-x7WzN7MlIe3_4gWSh">
    <mxGraphModel dx="1008" dy="494" grid="1" gridSize="10" guides="1" tooltips="1" connect="1" arrows="1" fold="1" page="1" pageScale="1" pageWidth="827" pageHeight="1169" math="1" shadow="0">
      <root>
        <mxCell id="0" />
        <mxCell id="1" parent="0" />
        <mxCell id="uyvEmPoRV89XPVumFd5U-1" value="&lt;font face=&quot;Roboto Mono&quot; data-font-src=&quot;https://fonts.googleapis.com/css?family=Roboto+Mono&quot;&gt;[[\(X_1^{(1)}\), \(X_1^{(2)}\)],&lt;/font&gt;&lt;div style=&quot;line-height: 100%;&quot;&gt;&lt;font face=&quot;Roboto Mono&quot; data-font-src=&quot;https://fonts.googleapis.com/css?family=Roboto+Mono&quot;&gt;&amp;nbsp;[&lt;/font&gt;&lt;span style=&quot;font-family: &amp;quot;Roboto Mono&amp;quot;; background-color: initial;&quot;&gt;\(X_2^{(1)}\), \(X_2^{(2)}\)],&lt;/span&gt;&lt;/div&gt;&lt;div style=&quot;line-height: 100%;&quot;&gt;&lt;span style=&quot;font-family: &amp;quot;Roboto Mono&amp;quot;; background-color: initial;&quot;&gt;&amp;nbsp; &amp;nbsp; &amp;nbsp; &amp;nbsp;\(\vdots\)&lt;/span&gt;&lt;/div&gt;&lt;div style=&quot;line-height: 100%;&quot;&gt;&lt;span style=&quot;font-family: &amp;quot;Roboto Mono&amp;quot;; background-color: initial;&quot;&gt;&amp;nbsp;[&lt;/span&gt;&lt;span style=&quot;font-family: &amp;quot;Roboto Mono&amp;quot;; background-color: initial;&quot;&gt;\(X_N^{(1)}\), \(X_N^{(2)}\)&lt;/span&gt;&lt;span style=&quot;background-color: initial; font-family: &amp;quot;Roboto Mono&amp;quot;;&quot;&gt;]]&lt;/span&gt;&lt;/div&gt;" style="text;html=1;align=left;verticalAlign=top;rounded=0;spacing=0;spacingLeft=6;" vertex="1" parent="1">
          <mxGeometry x="80" y="40" width="120" height="100" as="geometry" />
        </mxCell>
        <mxCell id="uyvEmPoRV89XPVumFd5U-4" value="&lt;font face=&quot;Roboto Mono&quot;&gt;clusterer.k = 3&lt;/font&gt;&lt;div&gt;&lt;font face=&quot;Roboto Mono&quot;&gt;clusterer.means = None&lt;/font&gt;&lt;/div&gt;&lt;div&gt;&lt;font face=&quot;Roboto Mono&quot;&gt;clusterer.means_init = None&lt;/font&gt;&lt;/div&gt;" style="text;html=1;align=left;verticalAlign=top;whiteSpace=wrap;rounded=0;spacing=0;spacingLeft=6;" vertex="1" parent="1">
          <mxGeometry x="100" y="230" width="220" height="60" as="geometry" />
        </mxCell>
        <mxCell id="uyvEmPoRV89XPVumFd5U-5" value="&lt;font face=&quot;Roboto Mono&quot;&gt;__init__(self, k=3)&lt;/font&gt;" style="text;html=1;align=left;verticalAlign=top;whiteSpace=wrap;rounded=0;spacing=0;spacingLeft=6;" vertex="1" parent="1">
          <mxGeometry x="100" y="190" width="157" height="30" as="geometry" />
        </mxCell>
        <mxCell id="uyvEmPoRV89XPVumFd5U-8" value="&lt;font face=&quot;Roboto Mono&quot; data-font-src=&quot;https://fonts.googleapis.com/css?family=Roboto+Mono&quot;&gt;[[\(X_1^{(1)}\), \(X_1^{(2)}\)],&lt;/font&gt;&lt;div style=&quot;line-height: 100%;&quot;&gt;&lt;font face=&quot;Roboto Mono&quot; data-font-src=&quot;https://fonts.googleapis.com/css?family=Roboto+Mono&quot;&gt;&amp;nbsp;[&lt;/font&gt;&lt;span style=&quot;font-family: &amp;quot;Roboto Mono&amp;quot;; background-color: initial;&quot;&gt;\(X_2^{(1)}\), \(X_2^{(2)}\)],&lt;/span&gt;&lt;/div&gt;&lt;div style=&quot;line-height: 100%;&quot;&gt;&lt;span style=&quot;font-family: &amp;quot;Roboto Mono&amp;quot;; background-color: initial;&quot;&gt;&amp;nbsp; &amp;nbsp; &amp;nbsp; &amp;nbsp;\(\vdots\)&lt;/span&gt;&lt;/div&gt;&lt;div style=&quot;line-height: 100%;&quot;&gt;&lt;span style=&quot;font-family: &amp;quot;Roboto Mono&amp;quot;; background-color: initial;&quot;&gt;&amp;nbsp;[&lt;/span&gt;&lt;span style=&quot;font-family: &amp;quot;Roboto Mono&amp;quot;; background-color: initial;&quot;&gt;\(X_N^{(1)}\), \(X_N^{(2)}\)&lt;/span&gt;&lt;span style=&quot;background-color: initial; font-family: &amp;quot;Roboto Mono&amp;quot;;&quot;&gt;]]&lt;/span&gt;&lt;/div&gt;" style="text;html=1;align=left;verticalAlign=top;rounded=0;spacing=0;spacingLeft=6;" vertex="1" parent="1">
          <mxGeometry x="120" y="440" width="120" height="100" as="geometry" />
        </mxCell>
        <mxCell id="uyvEmPoRV89XPVumFd5U-9" value="&lt;font face=&quot;Roboto Mono&quot; data-font-src=&quot;https://fonts.googleapis.com/css?family=Roboto+Mono&quot;&gt;[\(y_1^{}\),&lt;/font&gt;&lt;div style=&quot;line-height: 160%;&quot;&gt;&lt;font face=&quot;Roboto Mono&quot; data-font-src=&quot;https://fonts.googleapis.com/css?family=Roboto+Mono&quot;&gt;&amp;nbsp;\(y_2^{}\)&lt;/font&gt;&lt;span style=&quot;font-family: &amp;quot;Roboto Mono&amp;quot;; background-color: initial;&quot;&gt;,&lt;/span&gt;&lt;/div&gt;&lt;div style=&quot;line-height: 160%;&quot;&gt;&lt;span style=&quot;font-family: &amp;quot;Roboto Mono&amp;quot;; background-color: initial;&quot;&gt;&amp;nbsp; \(\vdots\)&lt;/span&gt;&lt;/div&gt;&lt;div style=&quot;line-height: 160%;&quot;&gt;&lt;span style=&quot;font-family: &amp;quot;Roboto Mono&amp;quot;; background-color: initial;&quot;&gt;&amp;nbsp;\(y_N^{}\)&lt;/span&gt;&lt;span style=&quot;background-color: initial; font-family: &amp;quot;Roboto Mono&amp;quot;;&quot;&gt;]&lt;/span&gt;&lt;/div&gt;" style="text;html=1;align=left;verticalAlign=top;rounded=0;spacing=0;spacingLeft=6;" vertex="1" parent="1">
          <mxGeometry x="258.5" y="440" width="43" height="100" as="geometry" />
        </mxCell>
        <mxCell id="uyvEmPoRV89XPVumFd5U-10" value="&lt;font face=&quot;Roboto Mono&quot;&gt;rng = np.random.default_rng(seed)&lt;/font&gt;&lt;div&gt;&lt;font face=&quot;Roboto Mono&quot;&gt;assignments = [rng.integers(clusterer.k) for _ in inputs]&lt;/font&gt;&lt;/div&gt;" style="text;html=1;align=left;verticalAlign=top;whiteSpace=wrap;rounded=0;spacing=0;spacingLeft=6;" vertex="1" parent="1">
          <mxGeometry x="120" y="360" width="440" height="40" as="geometry" />
        </mxCell>
        <mxCell id="uyvEmPoRV89XPVumFd5U-11" value="" style="endArrow=block;html=1;rounded=0;endFill=1;exitX=0.122;exitY=1.019;exitDx=0;exitDy=0;exitPerimeter=0;entryX=0.5;entryY=0;entryDx=0;entryDy=0;" edge="1" parent="1" source="uyvEmPoRV89XPVumFd5U-10" target="uyvEmPoRV89XPVumFd5U-9">
          <mxGeometry width="50" height="50" relative="1" as="geometry">
            <mxPoint x="240" y="470" as="sourcePoint" />
            <mxPoint x="290" y="420" as="targetPoint" />
          </mxGeometry>
        </mxCell>
        <mxCell id="uyvEmPoRV89XPVumFd5U-12" value="&lt;span style=&quot;font-family: &amp;quot;Roboto Mono&amp;quot;; text-align: left;&quot;&gt;clusterer = KMeans(k=3)&lt;/span&gt;" style="rounded=1;whiteSpace=wrap;html=1;" vertex="1" parent="1">
          <mxGeometry x="80" y="160" width="180" height="30" as="geometry" />
        </mxCell>
        <mxCell id="uyvEmPoRV89XPVumFd5U-13" value="&lt;span style=&quot;font-family: &amp;quot;Roboto Mono&amp;quot;; text-align: left;&quot;&gt;inputs&lt;/span&gt;" style="rounded=1;whiteSpace=wrap;html=1;" vertex="1" parent="1">
          <mxGeometry x="80" y="10" width="61.5" height="30" as="geometry" />
        </mxCell>
        <mxCell id="uyvEmPoRV89XPVumFd5U-14" value="&lt;span style=&quot;font-family: &amp;quot;Roboto Mono&amp;quot;; text-align: left;&quot;&gt;clusterer.train(inputs, seed=seed)&lt;/span&gt;" style="rounded=1;whiteSpace=wrap;html=1;" vertex="1" parent="1">
          <mxGeometry x="80" y="330" width="260" height="30" as="geometry" />
        </mxCell>
        <mxCell id="uyvEmPoRV89XPVumFd5U-16" value="&lt;font face=&quot;Roboto Mono&quot;&gt;clusterer.means = cluster_means(&lt;/font&gt;&lt;span style=&quot;font-family: &amp;quot;Roboto Mono&amp;quot;; background-color: initial;&quot;&gt;clusterer.k, assignments, rng)&lt;/span&gt;" style="text;html=1;align=left;verticalAlign=top;whiteSpace=wrap;rounded=0;spacing=0;spacingLeft=6;" vertex="1" parent="1">
          <mxGeometry x="120" y="545" width="460" height="40" as="geometry" />
        </mxCell>
        <mxCell id="uyvEmPoRV89XPVumFd5U-19" style="edgeStyle=orthogonalEdgeStyle;rounded=0;orthogonalLoop=1;jettySize=auto;html=1;exitX=1;exitY=0.5;exitDx=0;exitDy=0;endArrow=block;endFill=1;" edge="1" parent="1" source="uyvEmPoRV89XPVumFd5U-17">
          <mxGeometry relative="1" as="geometry">
            <mxPoint x="249" y="759.8888888888889" as="targetPoint" />
          </mxGeometry>
        </mxCell>
        <mxCell id="uyvEmPoRV89XPVumFd5U-20" value="True" style="edgeLabel;html=1;align=center;verticalAlign=middle;resizable=0;points=[];" vertex="1" connectable="0" parent="uyvEmPoRV89XPVumFd5U-19">
          <mxGeometry x="-0.2254" y="1" relative="1" as="geometry">
            <mxPoint as="offset" />
          </mxGeometry>
        </mxCell>
        <mxCell id="uyvEmPoRV89XPVumFd5U-17" value="&lt;font face=&quot;Roboto Mono&quot;&gt;_ == 0&lt;/font&gt;" style="shape=hexagon;perimeter=hexagonPerimeter2;whiteSpace=wrap;html=1;fixedSize=1;" vertex="1" parent="1">
          <mxGeometry x="119" y="740" width="80" height="40" as="geometry" />
        </mxCell>
        <mxCell id="uyvEmPoRV89XPVumFd5U-18" value="&lt;font face=&quot;Roboto Mono&quot;&gt;clusterer.means_init = clusterer.means&lt;/font&gt;" style="text;html=1;align=left;verticalAlign=top;whiteSpace=wrap;rounded=0;spacing=0;spacingLeft=6;" vertex="1" parent="1">
          <mxGeometry x="265" y="750" width="295" height="30" as="geometry" />
        </mxCell>
        <mxCell id="uyvEmPoRV89XPVumFd5U-21" value="" style="endArrow=block;html=1;rounded=0;endFill=1;" edge="1" parent="1">
          <mxGeometry width="50" height="50" relative="1" as="geometry">
            <mxPoint x="139.71" y="570" as="sourcePoint" />
            <mxPoint x="140" y="700" as="targetPoint" />
          </mxGeometry>
        </mxCell>
        <mxCell id="uyvEmPoRV89XPVumFd5U-25" value="" style="endArrow=classic;html=1;rounded=0;" edge="1" parent="1">
          <mxGeometry width="50" height="50" relative="1" as="geometry">
            <mxPoint x="139" y="710" as="sourcePoint" />
            <mxPoint x="139" y="810" as="targetPoint" />
            <Array as="points">
              <mxPoint x="89" y="760" />
            </Array>
          </mxGeometry>
        </mxCell>
        <mxCell id="uyvEmPoRV89XPVumFd5U-26" value="" style="shape=image;verticalLabelPosition=bottom;labelBackgroundColor=default;verticalAlign=top;aspect=fixed;imageAspect=0;image=data:image/png,iVBORw0KGgoAAAANSUhEUgAAApcAAAEdCAIAAADWzdvlAAAAAXNSR0IArs4c6QAAIABJREFUeAHtfQeYFFXWdgGDLoYF06e7/gYGJqBg+mDdFZVPZYasq8wMoIi6rBGBVWExY44zQDc5JyUpOUfJWZJkxiEMTE93T87T3ff2//QUFGVX9enu6qpbVbduP/PMc+vG877nvH2qK3J+9mEMMAYYA4wBxgBjwJwMcOY0m1nNGGAMMAYYA4wBxoCfZXEWBIwBxgBjgDHAGDArAyyLm9VzzG7GAGOAMcAYYAywLM5igDHAGGAMMAYYA2ZlgGVxs3qO2c0YYAwwBhgDjAGWxVkMMAYYA4wBxgBjwKwMsCxuVs8xuxkDjAHGAGOAMcCyOIsBxgBjgDHAGGAMmJUBlsXN6jlmN2OAMcAYYAwwBqLL4rW1tTabrW3bttddd92VV1556623duzYcc6cOYxHxgBjgDHAGGAMMAbIMxBFFs/Nzb3rrrs4jrvxxhu7du3ao0ePhx566KqrrurevTt5u9mKjAHGAGOAMcAYYAxEmsWrqqqSk5M5jvvkk088Ho9AXGVl5f79+4VNVmAMMAYYA4wBxgBjgBgDkWbxjz76iOO4V155RYFlCKHc3NySkpJS9mEMMAZiY6CkpCQ3NxchpECJJIcw1cfmZzaaMXCZAVj1EWVxj8dz4403chx36tQpBV8Eubm5HPswBhgD6jGQm5urQIkkhzDVq+dtNhNjIMBAKNVHlMV37tzJcdxf//pXv99/6NChTz755JVXXhkyZMiyZcsi+U1QUlLCW3B510LjUnFxcU5OTnFxscbrGHF6K2MvLS2lHj6fHUtKSkimZAVrMdUT/nagPvIBPqnHDqs+oiw+YcIEjuP+9re/DRkypF69euL9ovvvv//s2bNSkdfU1Aik8xYUFxcjUh+v1+tyubxeL6kFDbSOlbEjhKiHX1xczHFcaWmpVHS61zDV6/hFQH3kA9xSjx1WfURZ/Ouvv+Y4rmHDhhzH9evX78SJE6WlpWvXrk1MTOQ4rmXLluLr3fivkqFDh4qTPcdxOTk5blIfp9OZnZ3tdDpJLWigdayM3e12Uw8/JyfHsFmcqV7HLwLqIx/glnrssOojyuJfffUVn5J79eol3t8/e/bsn/70J47jZsyYIa73+/1srxzYc9S0ifrdUpg96uHDe+VBMiS8yVQPB6emrdRHPsAe9dhh1UeUxUeOHMln8Y0bNwZ9L3Tv3p3juD59+gTVizdLS0sJ/3pACLnd7kjO2YvtpKNMEjtGhbhiIipIQ65OqPBfuGo5xpfvQtSFT5LwdQFIXk3KYJK3k3rXw44gBh/jKlz5EyrsHVB9QS9c+SNG5bBtWrcSw641kFDzw2qKKIsvX76cz+Lnzp0LWmbw4MEcx6WkpATVizdhC8Q91SpT71SAKGLYcfUG5GiJHInIkVD3lxT470rBvvOAeVo3EYOvNZBQ85NXUyhL4HrydlLvephwMvCx5xhyPlSnd174df/zW+NaPZ8aQgY7zL+mrbCaIsriDoeDv6ht3759Qba+9NJLHMc9/fTTQfXiTdgCcU+1ytQ7FSCKDHZcux85WohSOJ/IE5AjGbkex6gCsFDTJjLwNYUAT05eTbA9oVrJ20m960NRzdcTgI99+Si/TUDjF3fcBdUnofx7sVfmMmfYZrVaCWBXy1Rl88BqiiiL+/3+Rx55hOO47777TmyEx+OJj4/nOO7rr78W1weVYQuCOquySb1TAZbIYEeF/0KOuh/fwXoOCBtXzgIs1LSJDHxNIcCTk1cTbE+oVvJ2Uu/6UFTz9QTgo7LvQ6s+GZUMhS3UrpUAdu2Mj2RmWE2RZvF169ZxHHfdddft2LGDX9Xr9fbv35/juGuvvTY/Px8wBbYAGKi4iXqnAswQwI59Drlf4cKOeSJydwUs1LSJAHxN7Q87OXk1hTVJtgN5O6l3vSzPQqXW8DHGKL+15Fe4oPoE5GiFcY1gD8mC1thJYpFdC1ZTpFnc7/d//vnnHMfFxcU99NBDzzzzzJ133slxXKNGjZYtWya7sFAJWyB0U7FAvVMBrghgx7W7QTEnoPx7AQs1bSIAX1P7w05OXk1hTZLtQN5O6l0vy7NQqTV8jMrDqN6RgH0XBHtIFrTGThKL7FqwmqLI4n6/f/Xq1Z06dbr++usbNmx42223vfjii8eOHZNdVVwJWyDuqVaZeqcCRBHAjj0Hw+g5vw1goaZNBOBran/YycmrKaxJsh3I20m962V5Fiq1ho9xbRjVB7J4gWAPyYLW2ElikV0LVlN0WVx2gbCVsAVhhyvoQL1TAU4IYA/oGTq2loyK3wYs1LSJAHxN7Q87OXk1hTVJtgN5O6l3vSzPQiUB+KigR+jz4onI1QljLNhDskAAO0k40rVgNbEsLmXM3DVkAhqVZYXWc4KOt52Qga9jiMB61tGwoKXJ20m964MYDtokAB9XLQ/9czwRV84OMonYJgHsxLDILgSriWVxWdJMXEkmoDGqRO5n5BN5WZaO9JGBryNAWM86Gha0NHk7qXd9EMNBmwTgBy5wK35HLpEnoqJXMfYGmURskwB2YlhkF4LVxLK4LGkmriQW0BhVoNKhdQ9+uXSdqrMtrpyl11E13mfE4OsVIrCe9bJKui55O6l3vZRkcQ0Z+Bj7cPmYP5xQy78flWXp+9BGMtjFbBMuw2piWZywOzRfjnBAY1SGq1fjqgW4ZhvGPs3hhVuAMPxw5qjfDutZ/fWUzkjeTupdD7uCJHyMa3HNRlw1H1evx7gaNoxAK0nsBOBIl4DVxLK4lDFz11Af0LB7qIcP6xkmh2QreTupdz3sPivDpx47rCaWxWFpmK+V+oCGXUI9fFjPMDkkW8nbSb3rYfdZGT712GE1sSwOS8N8rdQHNOwS6uHDeobJIdlK3k7qXQ+7z8rwqccOq4llcVga5mulPqBhl1APH9YzTA7JVvJ2Uu962H1Whk89dlhNLIvD0jBfK/UBDbuEeviwnmFySLaSt5N618PuszJ86rHDamJZHJaG+VqpD2jYJdTDh/UMk0Oylbyd1Lsedp+V4VOPHVYTy+KwNMzXSn1Awy6hHj6sZ5gckq3k7aTe9bD7rAyfeuywmlgWh6VhvlbqAxp2CfXwYT3D5JBsJW8n9a6H3Wdl+NRjh9XEsjgsDfO1Uh/QsEuohw/rGSaHZCt5O6l3Pew+K8OnHjusJpbFYWmYr5X6gIZdQj18WM8wOSRbydtJveth91kZPvXYYTWxLA5Lw3yt1Ac07BLq4cN6hskh2UreTupdD7vPyvCpxw6riWVxWBrma6U+oGGXUA8f1jNMDslW8nZS73rYfVaGTz12WE0si8PSCG4tLSg7vO340Z0nq8qrgtuMsU19QMM0Uw8f1jNMDslW8nZq5/qqiupju07+tvVYsauEJIdRraUd/KjM0KUz9dhhNbEsHmnU5Z7M++q5ER0a9mhfL619vbQuVz1re2NiUX5xpONJ9aM+oGEiqYcP6xkmh2QreTu1cH1pQdmoAZO7XtubV31qXMbnPbLOHM0lyWSEa2kBP8Klde9GPXZYTSyLRxSB2QdOP9n4+dS4DF7MgqR73f6q+3xBRFOQ6kR9QMNEUg8f1jNMDslW8naq7voiZ0mf5v2kqu96zXPHdp0kSWYka6kOP5JFDdKHeuywmgyRxSs9nvlHDw/bsXXU7h0HHHmxR4a6TvX5fM/e8VqQmPlE3qFhxjuPfRy7wSrOoC52FQ0jMxX18GE9kyE5klXC2ulFaE32qeE7ttl2bt94OgdhHMm0QB/VXf9Bt687NPzDjruw+552c19PrQcwhnyT6vDJQ1C8IvXYYTXpnMUxxuP37r57jK2pLTNh5LDm9qymtswus6afKHAr9qjf71fXqdsW7xb/BJeWzxw5F4u16o5VF7u6thGYjXr4sJ4JMBzhErCdK06daDNxDK/6BPuwprbMtlPGbz5zOsLJZbup6/q83/Pb1w+cOwv1t2H2Vlkz9KpUF75eKJStSz12WE06Z/HM7Vua2jKD/prbs1qNtWcXKj9Sra5TM/uOkd0l5+WdGpcx++sFyoJPi1HqYtfCQk3npB4+rGdNuY1qcsDOJSeOBUm+qS0z3pbZzJ618XROVKuIO6vr+gW25Sn100Ol8NS4jC96DRevrntZXfi6w4nKAOqxA2ry+/16ZvHswgKpmPma5vasPgt/isqR4s7qOvXzHlkpDULqucMVPSa//6N4dX3L6mLXF4uC1amHD+tZAWMaDQllZ5XH02qsPV6y784n8gcnjvUipMwkdV3/wxc/d7h0KatsLv+gy1fK7NRolLrwNTJSo2mpxx5KTTyfembxTzeu5w+hy+byeFvm2RKFV4Cr69Sxb00F9JxSP33x6FUaRaeCadXFrsAAfYdQDx/Ws77ki1cPZefcw4dk9S5Ursk+JZ4n8rK6rl897RfZ5M1XdmjYY/gr4yK3jUBPdeETMFjFJajHHkpNPId6ZvEus2YI0pUtLDp+VJmn1XXqqf05gJ47XtGjtKBMmZ1ajFIXO2/h6cPnRvWf3P8f7w946P2xb0/LPanCFYhaYFf9kgiNjIxlWljPscys7thQdr67bjWw754wctg3Wzcps0TdyK8orexy1bOA8I9sP67MTo1GqQvf7/e7zxdM+3jOfx75sN+D72b2HXNs10kc8xWIZsGukZ2Kpw2lJn5CPbN4px+nySZvoXLhsSPKYKse0O91+kL2GvWU+umjB05RZqRGo9TF7vP57P0mtq+XJlwZwPMw6d0fjClpdeFr5KNYpoX1HMvM6o4NZefgtSuBLJ44cthXWzYqs0R1109+/0fZC9xS4zLeevQjo8W/uvAXjlyRGpeReulMIi//oc98V1NVo8w7mo5SF7umpiqbPJSa+Nn0zOLvrF4B6LmpLfOoy6kMs+pOrSipGND2g/b10oRczhc+S8/0erzKjNRolLrYxw+aLvtF1r5e2g9f/BwWAkbluGoZrvwBVy3FqDxs/9g7qAs/dntUnwHWs+rLKZ4wlJ2T9u2VPSku7LvPP3pY2aKqu97n8337wsiA6i/db8Zntdf/97+GOvzG06Ui/DUzNsoehEhpkP5p2vdhvYOxB1dvqFP9fOxT+B0edhVxBxWxi6c1TjmUmngL9czi+/IuCNINKjSzZz01e6ZiErVwqtfjXT9ry8C2H3S7tvdTTfq81/nLncv2Gm1/XN1DygV5RcJei1TVnRv1qiipCOUjjD2o7FvkaIUcCciRWPe/FSr9EuPaUENUqdfC9aoYptYksJ7VWiX2eULZWVRVlTgycGuZ7F+rsfZqr8L7sLVwPcZ4z+oDHz759VNN+nS9tvebD767ZsbG2hqFFsbOKjCDWvB9Pl/GX1+W6l2oOfnr76HMwBjjihnI+aBI9UmoaCBGhaGGqFKvFnZVjNFiklBq4tfSM4tjjPuvWCrdMY+vu3d813nljzmk3qlAoKiIffbXC4RDaoKGLxfqpy0Zu1rWEox9qOjVS8k7oU7S/P9EVPgSxhp+CaoIXxaa7pWwnnU3TzAAsHPMnp2yKbypLXP2bweFGaItUO96mBC14O9ase+yxiW3y3domDHitfGhLEFlWSKxC8JPRq72GBWFGhV7vVrYY7dEoxkANel8p5nf76/1+QavWdnUltncnhVvy+IPsN87buQmIz3/QSPHaDStigH9/UujhdPhUmF3vKLH2LemyqLAlfPlxHxR1bhytuwoVSpVhK+KPapPAutZ9eUUTwjYiTEetXtnwshhzexZ/F+8LTNp1PDpB/YpXk7do1CxmKHXWLUif/6IZcCNte3rpb3z2FBZjNjzW2jVJ6MS+VGyU0VbqRb2aNcl1h9Qk/5ZnGfhdHHRt1s391u+5O3VK+YfPVzjjfVMM/VOBaJHRewjXhvfIfQtsx0a9pj07g+yliD3k8iRFELSicjVSbszESrCl4WmeyWsZ93NEwwIa6e7snLsnl39Vyztv3Lp5H17S6qrhbHKCtS7HqZFLfhLxqwKdSkMvyv/XqcvZC1Bxe8iR3II1ScgRyvtroxRC7ssLiNUwmrS84i6duxQ71SAOhWxb5y3XfoTXFyzZ/UBqSUYVYRW8qWf45odXlMRvhSaEWpgPRvBQt4G8nZS73rYuWrBP3vsvFjjQeWUBulzv1skawlyPgILH9dslx0Ye6Va2GO3RKMZYDWxLK4R7bpNq2JAez3e7v/zL9nDa6lxGc8364fkHrOFUTEsZuRI0O7KVRXh6+ZCcGFYz+BQoo3k7aTe9bD/VIT/zmNDQ13W2vHKnqGuz0fOv8PCxzUKnwQAA7fCyRRYTSyLh40Qk3VQUcx+v//XdYc6NOwRlMhT4zI6Nep1ZMcJWWowRii/NaTn/Pv5C9xyfjtre31Cz9tefebGl95oM2T5xHXVlbHejaoufFmA+lbCetbXNvHq5O2k3vVieqVlFeGfP5X39PUvBiXylPpp7eunrZkR8m5+VPBs6PNogYNw2HvW7/e7cgumfjj7+Wb9nr7hxZeSB8z+ekGxq0QKJ6oaFbFHtS6xzrCaWBYn5ghCC6ke0L9tOfraA4PFB9b6/+O943uyATyoLDO0npNRaeAB1PMyl4gfJsPvKDzfrJ/jdEw3mKoOH4CpSxOsZ11Mkl2UvJ3Uu16WZ6FSXfjnT+UNSf1MrPo+CW9uW7RbWE5awFVLQ++7J6HC5/1+//Ylezr9qad4/yClQfqTjZ8/vC2mB+Gpi10KTfcaWE0si+vuIJUN0CigT+zNXj5x3YpJ634/eCasxdjnqrtnVHqpSzLKb4N9jg2zt4q/IIRyasOMPs371VYrv6dcI/hhIRPrAOuZmBlhFyJvJ/WuhznXAv6FbMfKKRuWjV9zcNORsFekYlyL3E/JXeCWiBwtcO2vp/blBA7sSd73mtIgvdufe+efccEAgVYtsAPLkW+C1cSyOHmPaLuiQQIae08h56N1++b8xep1/51tsecYxvjFpP7AdbBrZyo/f2YQ+Nr5GNazdutGOzN5O6l3PewCI8DHqBAVpNWpnt+DT6x7aMQ9uHqD3+//vOewUHeupsZljB80HQYItBoBO2Be7E2wmlgWj51hY81gnIDGuBZXLQs8/qWgOyp8GVct4R/cdmzXSeHHt7SQ2iD97f/7WDGnxoGvGAI8ENYzPJZkK3k7qXc97D6DwA88vq1mKyr+TyCdF76AK6ZjFHhZVGVZVagUzn8J/PO6F8L+3A/FgEGwhzIv9npYTSyLx86wsWYwfkBv/nmHNHmLa56783XFnBofvmJo/EBYzzFOruJw8nZS73rYOwaHf/5UnljjsmXFr1oxOHbYcZG0wmpiWTwSDs3Ux/gBvXsl9IjH9vXS/t3yLcWMGx++Ymj8QFjPMU6u4nDydlLvetg7BodfkFckm7mFytQG6bJ3rsKo+VaDY48EAtwHVhPL4jB75ms1fkBXlVd1veY5Qb1BhdS4jKkfKn9Eq/HhxxhSsJ5jnFzF4eTtpN71sHcMDh9j/Mq97wTdsypoPzUu48NuX8MAgVaDYwcsj7AJVhPL4hHSaJpupgjoMf+ZKr7bRBBzoND42dEbt3y7dfOo3TuOuqO+bNUU8GMJJljPscys7ljydlLvethBxoe/csqGPyhd9KqVx69IH/bTyu+3bRm+Y9v2c2ejPUFufOyw78K2wmpiWTwsgSbrYIqArqqo7ve3d1MbZIhVndIw/b5/vtPclsW/1I5/NU7avFnnS0sj94Ep4EcOR9oT1rO0v1415O2k3vWwK40PHyH0zfN2seTb10tLqZ/W5pF+ScOzmta9ypJX/WPTJ+3LuwDjFbcaH7vYWgVlWE0siyug1NBDzBLQVRXVE4fMfKpJH17VT9RLe/jtL6UvrGxuz3pw4tj88nKY9IP5jsFrVj48ZcJDk8cNWjR/7e+nfHJPh4UnMUUrrGfjQCBvp1kiXyMfmQI+Qmj+8GU9b3tVyOVP9PhAqvpm9qykUcMPOPJgrs4UF3+1ZeNj0yf9fdLYfj/N+fnIb4pfTg8vpHsrrCYlWXzw4MFc3efzzz+PBB5sQSQzRNvHFAEdLagI+5sLe2117W9bju5ZfWDh9n1SMfM1ze1ZQ9auCgUfY/z5pl/4l9s2tWU2s2V2GD+6mS2z189zy2uVPz0m1HK615NXkzLI5O00V+QrYxUYZSL4Pp/v+O5Tu1ft37HzSDN74Fe49K+ZPavLLOgO8jm/HWxmv/gy62a2zNQ61f/ftElRHboD+DRUE6ymqLP4tm3b6tevX69ePY7jWBY3lKd5Y0wkZjF7ry5dxB9Mk+q5ad3Lp0tr5N9cOWbPTvGQZrbM9uMCWbyZPetfi+eLl6CjDOvZOBjJ22nSyFfLZWaEP2LntlBZnBf1gXyHLD/rcrJlVd/cntVu2iT6fpHDaooui1dWViYkJNx6663//Oc/WRaXDS/dK80oZr/f/7/jR4tlKS3vOp8r5bbK42k5xibuLGRxvvI3Z750lKlrYD0bBxp5O00a+Wq5zIzw+yz8SSzeoHK8LXPagV9l+ek6a4Y4/Qep/qcjv8mOMm8lrKbosviAAQM4jlu+fPkLL7zAsrgxY8KMYvb7/fePHxWk4aDNHbnnpIQvOn40qJtYz83tWR//sk46ytQ1sJ6NA428nSaNfLVcZkb4vRfMC9KveLOZPWvKfpksfrzALe7Gn0fjj8AFyvas7nNnqcWqQeaB1RRFFv/ll1/q1avXp08fv9/PsrhBvCs1w4xi9vv9z82fK965DlapPctVWSEFO2r3zgT7MHFncRZvasvsu3iBdJSpa2A9GwcaeTtNGvlqucyM8L/ashE4j9bUlrn9XOBlpkGf9Tm/iyUflMWb2jL/NnFM0BCzb8JqijSLl5eXN23a9JZbbikqKmJZ3MgxYUYx+/3+ladOBilT2Gxuz3pj+RJZzifv2xuU+8VZvJk9q1+IgbKzmaIS1rNxIJC306SRr5bLzAg/p7hIkHlQId6W2W7aRNkbx7efOxvUWaz6prbMR6dOVItVg8wDqynSLP7qq69yHLdw4UIeFfstbhDvSs0wo5j9fr8XoV4/y/wcb2bPunuMLbuwQIrU7/dnFxbAerbaGTJZlnSphL93tDDJpJGvFhUmhf/JxvVBEm5qy4yv+9tw+ndZcuCrYZrbsz7f9IvsQPNWwmqKKIuvXr2a47iePXsKLITN4jU1NaWXPrm5uRzHFRcXI1Ifr9frcrm8Xi+pBQ20jnmxl1VXv7pkYTNbZqI9K8GelWQf1syW+dDkcQfzHQC/z82fm2jPClyUXveXYMtMGTc6wZaZYM+6f9zIytoaYKwZm4qLizmOK43mSTiCbLUuMNXrGFEmFb7H6/1y04aEOskn2rN4Ld8zxr7i5AmATH6IVPXNbJnNbZnZhQXAWDM2waoPn8VLSkr+3//7fzfddJPb7Ra+BcJm8aFDh/L3lAv/c3Jy3KQ+TqczOzvb6XSSWtBA65gd+77sbNuGtR8tX/LlquWrDh7ID+fEo2fPpE+b3GH86PbjAn+p40a/MGVih/GjO04Y88uRwwZyjEqm5OTkGDaLM9Wr5GQl05ha+CfOnR2/eePHy5d8tmLZvN27zjscMAW5Dser82anBqm+7htg9q4d8FgztsKqD5/FX3zxRY7j5s6dK6TwSM6Ls71yvfb4TLpLHgtdeaUlb61cljQy8Nud/y3+/IJ5+/MuxDKnYcfCe+VikZIvM9XrGDZWE355Tc2XmzbcM8YmqL7Lj9NWnzqpowu0WxpWffgs3rhx47i4uHZ//Nx8880cx915553t2rXr0aMH/H0BH9OHxyprNekpImVgg0ZZFnthVeXG0zlrfz91+PRpxa84DCLTgJvk1aSMBPJ2WjbyeQdZE36Vx7P13Jk12Sf3njrp8/mUxarxR8FqiiiLC0fFZQt33HEHzAJsATxW2oox/jXvwpg9O+27ti8/ebzG65X2sWZA8zxYGbvf76cevrpqkmpHrRrV7fy9qHDir3tG7Nw29/Ch0poaqZ3Uu14KWVxjZfjUY4fVFD6LiwNFKIc9Ly709Pv9sAXinmHLh535HX+Yxj80O2Fk4Ebh+8ePmv3bwaCB1Ds1CK9408rYWRYXR4K+ZRVVn19ezj8epJk9K2HksHhbZvKo4d9t2xz0whsW+W63m+KjUEA8U+96WE1myuJHXM67Ro8Iuj+Yv0th0r69Yh9T71Qx2KCylbGzLB4UDDpuwt87kRvmqqx4aPJ42WeDDFqzUnw/MYt8lsUjjytz9YTVZKYs/tScH2RTOP/T3Flx+eWVVtazlbGzLG6c7yb4eydyOz/YsFY2hfO771vPnRGmYpHPsrgQDJQVYDWZJosfcTmlDwcQaprZs2w7twues7KerYydZXFBAroX4O+dCM0rq6lJHjVckHlQobk969Wli4SpWOSzLC4EA2UFWE0Ks3hUHMEWRDjV9AP74uVeQysIu/eCecJUVtazlbGzLC5IQPeCKqrffSFXELhs4YHxowSkLPJZFheCgbICrCbTZPFpB36Fs3iv+ZfvaLeynq2MnWVx43x5wd87Edq5M/ecbPIWKu8dN1KYikU+y+JCMFBWgNVkmiwufQK+oGT+vPinmzYInrOynq2MnWVxQQK6F+DvnQjNc1VUhLoUhn8HZcZPs4WpWOSzLC4EA2UFWE2myeII40enTgR+jp8SvTDDynrWETtCaMfSve92+Lzbtb27XP3smw++u2bGRk+th6SidIRPBiasZzI2RLKKWna+tmwRcHXb0hPHBGOod72AVLagI/yjO09+3dv2z+te6Nyo10vJA+YPX1ZRIvMeYVmzVanUEbsq9oedBFaTabK43+9f93s2/64b8a9w/gU4761bLSaCeqeKwQaV9cLu9Xg/S89sXy8tNS6jfb20QKFBevt6af0efLe8mJyk9YIf5AXtNmE9a7dutDOrZeeJArfs/aXN7VnPzP3RI3pcF/Wuh12gF/wZn8xrXy+tQ8OLqm9fPy2lfnrP//dK7sk82GAVW/XCriIEeCpYTWZNSdgrAAAgAElEQVTK4n6/f+mJY3eNHsEfTIu3ZTa3Z8XbMj/asNaLkJgF6p0qBhtU1gv7mLemptQPpO2gv9S4jMEpnwYZqd2mXvC1QxQ0M6znoM46bqpo535HXpuJY/gTZ8L/Pgt/CnqCG/Wuh72pC/xVUzcE6f3iHnxcxrN3vFZTJfOIPRiFslZdsCszVdkoWE0my+J+v7+8tnbmwf39Vyx9bdni77dtOVtSLOWFeqdKIQs1umAvLSjreGVPWT3zlSd/lX9VsGC2WgVd4KtlfCTzwHqOZAYyfdS10+PzLT95/K1Vy19dumjoL+sOOfOlKKh3vRSyuIY8fIRQ7/g3ANWvmnr5WiWxqaqXyWNXHQI8Iawm82VxGC3fihByOfb4SsehshG4cj5G5I7oRmKepn10CeglY1fL/hDnFd6hYcaoAZM1RS1Mrgt8YXUCBVjPBAyIcAnydgZUn3/UVzYloPqKGdh3+U3KEdps6m7kI//wtuNACk9pkP6fRz8iQyl57GRwCavAaqIwi2PvGa87w3migzevBXK0QI4E5GiFy0eLH9YosENfQZeAnvrh7A5X9Agl6ZT66Z+mfU+Gal3gk4HGrwLrmaQl8FqE7cSoxFv4pvNEx0uqT0SOZFTyHsbVsJ3UtKoY+dsW7XacdkqZceUWbP55h1C/6aftoSTP1z935+tCZ00LKmLX1E7Fk8Nqoi2LY+85lP83b95ddVk8qS6FJ1z8X/qFYhJNNFCXgJ773SLhojapsDs0zPjupctP59CUTF3ga4ooaHJYz0GdddwkaSdGFcjdVU71SajwBYyJ3iWhF+dqRf6OpXtT4zKeu/P1oETuyi3o07xfSv30TT9dfErm7lX7pWIX17x8z9tk2FALOxlrFawCq4m2LI6K3kSOZG9ekkwWdyRgz2EFDJpriC4Bfe74ebF6peVti3eToVEX+GSg8avAeiZpCbwWSTtx+RjkSAqp+sqfYVPpaFUr8t0XCl9M6t++Xpo4kfMpvH29tN7xbzjPunjGqitruv25t1TsfE1qg/SZn/1Ehlu1sJOxVsEqsJqoyuLY50SOwO/vEHpORsXvKWDQXEP0Cuj/pnwq+3M8NS6j1+2v+kR3BGnKp17wNQUlnhzWs7invmVidmLsQ86HQqs+Cbmf0pcKMqurGPlBiVw2hfOgJgyekVJ3Q2lQLk+pn97xyp4FeUWmw07G4GhXgdVEVxavXscfPA+RxROQq3209Jmuv4pijgp7QV7Rc01fD0rkHRpmPNWkz6n9OVFNFUtnveDHYnNUY2E9RzWVpp2J2Yl958Oo3pFghYPq6ka+kMhT4zJ4UYt/hQuRU1td+1a7j4ISOT9k8/ydQjetC+pi19paBfPDaqIsi68Jo2fXYwoYNNcQHQO6xF06asDkrtc8x++Yd2jY4+vnbedPkXv4A3sCq3FiFf7eUdFO7D0bRvWBLF6r4orGnEp14bsvFHa9+qKWU+qnCwfSg+DX1nh++PzntJv7Xvw5Xj/t3Y5fHN52PKibppuqY9fUWgWTw2qiK4t7T4N6TkZF/RQwaK4hugd0VUX18T3ZR3eeLC0sI0+d7vC1hgzrWevVI5+fmJ0Y16L8+0IfUU9EFth312L/1ZVbIM7iQRe7BUWC1+M9tT/nyPbj7vMFQU0ENi2ueqqyeCCUC3pD17nUbCMQUvouQX1Aw/RSD59YdoR5DttK0k5U+lXoa1oTcQWhZxWE5UTTDupGvnAuvHOjXp0b9Qq62E1TIAomVxe7AgO0HgKribYsjj0HkeMub14LyTXqSajw31a4ZZz6gIYFQz18WM8wOSRbSdoZuKzV+Q+5O82SkSsVo3KSwPVaS8XIF1I4fy5cOEcuvmpdL5iy66qIXXZ+3SthNdGWxf1+P67Z6XU8WJfF70KOuoc/OBJQ0QCLPP+B+oCGFUU9fFjPMDkkWwnbib2nvc7UYNW7u2OfzNNLSPJAbC21Ij8ohfP2GzyRq4WdmLOiXQhWE4VZ3O/3+3zVrvOLvUXvBG4fL/0Ge09Fy5p5+1Mf0LBrqIcP6xkmh2QreTt9Pq/rwnpv0XuoqB8q+RjX7rXCsTfBp2pF/s7lv3Zo2EN6RTqfyFMbpG9ZQO7icwEdXFALO7yKjq2wmujM4tQ7FYgnK2PX4hofgGpdmmA962KS7KLk7WSR73a70R/f7ijrmrCVO5ftlb0i3X2hcNsiQo9vCmukuAP1rofVxLK4OBhoKFMf0LCTqIcP6xkmh2QreTupdz3sPivDpx47rCaWxWFpmK+V+oCGXUI9fFjPMDkkW8nbSb3rYfdZGT712GE1sSwOS8N8rdQHNOwS6uHDeobJIdlK3k7qXQ+7z8rwqccOq4llcVga5mulPqBhl1APH9YzTA7JVvJ2Uu962H1Whk89dlhNLIvD0jBfK/UBDbuEeviwnmFySLaSt5N618PuszJ86rHDajJcFsfYh31ujApjuUuEeqcCerYydnaNOhAYhJvg750gYzDGAcn73Bj7gpoi32SRr9Y16pFzbpCe1LseVpOBsjhGhahsOMpvwz8LHbkexxVTlT2qhXqnAuKxMnaWxYHAINwEf+8IxmBcgyumIdfjF1Wf3waVDcOoUOgQeYFFPsvikUeLuXrCajJKFsfeXOR8hH87+EU9Bx67logK0hQ8QNHKerYydpbFjfPdBH/v8HZiVIEK0usesJh4SfUJgS8B58PYey5aLCzyZbM4wthdWSlLpquiQrbedJXUux5WkyGyeOBwmqszciSLlJxwqZyEit+KNqqUObXG69105vSi40c3nzld61N+ZC9aa9Xtrwy7ujboOBv18GE968h80NKR2ImK3/njjrug+mTk6oQxCpoT3lTmeoTxrvO5i44fXfv7qbKaGngJI7fKwkcYv7du9cNTJuSWlgQZv+H07y1Gj1h47EhQvRk3ZbGbEUgom2E1GSOL12y9lLMFGYsLSdjnCAVPtj5ap/oQGrlrx/3jRjW1ZfJ/D4wfNXr3Tp8aD0KStVC7ymixa2eJLjNTDx/Wsy6cyy4a1k7syw+Rwi9qH9dslZ05VKUC1/905LdHpkwQVN9i9IiPf1lXUWvKl5HLwi+qqnps+uSmtsygRL7h9O9JI4c3tWW+uWJJLFcghfIF4XpZ7IRt0HQ5WE2GyOKo5P0QP8R5PSfiiulRcRSVUxHG/VYsib+UvwVJN7Vl/mfVMoRxVEvr3jkq7Lpbq7oB1MOH9aw6n4onDGsnrphRdyxdvL8uLiejkveiWj1a14/avUMsdr7czJ715OyZlR5PVEsboXMo+Pnl5UGJXEjhry9b7DHtQUcx56Gwi/uYugyryRhZvOgNUM8tUNmIqHwQlVN/PnpYKmahZvHxo1EtrXvnqLDrbq3qBlAPH9az6nwqnjCsnbjcjhwtoINwRa9FtXpUrj/szBc0HlRoZs/6ZuumqJY2QmcAvjiRzzi4n/8VTk0KZ1fDGCOLl3yg129xjHHXHyfJ/hBvastsZs96eu6PRpBo5DYAYo58EvP2pB5+2OxoEN+FtTOC3+LvR4UlKtf/d83C5vasoPwtbN4zdmSN1xvV6rp3huELiZzHSFMKZ1ncEFkc1+yAdskdSdiXH5VI4IDmp8IY4crZxec7C9INVTDX4bVIsEdFprk6Uw8/bHY0iL/C2ol9znDnxbdHhSVC1+Pq9aigx9/GfxZK73z93rzzUa2ue+ew8Of8dlCAnFNcpLvBKhoQFruKa+kyFawmY2RxjJG7a4if40moeFC0xIV1KsYIFb+FHAmOnHuFyA5VKKqqitYAHfuHxa6jbQSWph4+rGcCDEe4RCR2ouL/hkjkycjdJdqrriJxPS4fX/eDIeneMV+G0jtfv+3c2QiRGqQbDF84F86jC7rYzSAQFJsBY1c8rXEGwmoyRBb3+/3YdwE52/1R0vz94j0wkr/ZEaA4rFNxxXT+13/NhaS7Rn0N6LnVWLu5rlQPix3gjYIm6uHDejaOByOxE6NKVNBT7n7xdtgX9U/hsK4XH/PrOn1IvO17QPjnSoJvzTIOt7KWAPCFFP76ssXnS0uDLnaTnc1clQB2cwEJZS2sJqNk8UAiR8W4fCRy/v3i0XVXCq6YibGSuz5gpwZ+iDsfFY7hf7T8xeb272T13Nye9cXmX0Ixa8x6GLsxbVbRKmLwnefcUz+a/V7nL9/r/OW0j+e4cgtURAFMBesZGEi4KUI7Ma7FFTORK/WiHp1/x+V2jJQc7w3relT0qnDA78et3ZqGyOLN7Fm9fp5LmK7YlwsFX5zC+SvShXPk1PwiD4U9dlaDZigvrpg/YtlHT37zbsfPRw2YnPMboQM2sJoMlMV5vgKnq1ExRmXRHk8T0w07FXuOCCkcORJOn3qg5eivmtmCE3kze9Y9Y+3ny0rFMxu/DGM3vv0xWkgAPsZ4+tC5KfXTU+My2tdLa18vLTUuI6VB+oxP5sUStBECh/Uc4SQEukVlZ91z1MsCwo/ySS9iILDrMa4VH+qryG3RbtJH0t33+LprWnedzxXPbIqyr/aM8/R3Pl+12NrCqsp7xg6ftvmfn6ydKL6pTEjkafNmEQhasUlalGHXq7Xi+llbOjfqlVI/vX39gOo7NAzI/8tnR9TWaH5fIqwmw2VxVRiHnYprd4mzOHIk/Hq47X1jv4i3fc8fZOP/PzB+1MH86J42o4rxMU4CY49xcuMPJwB/1lcL+OQt/T/76wVaUwTrWevVI5+fvJ2w6zEqCVJ9bvb9j0/+MHArysU9+O+b2TMTRw5ffvJE5DAN0hNjj9eZ6jzRwVv4uvj4JcbeC+f+hRwJPuejGP/hyXT55eXPzp9Lx2VusOtV8dH2JXv45B2k+pQG6Z/3GKbKEsAksJosmcW92UF6Ro6EknN3Td/y1DM/DPq/yR92//GDHw4dKKfoEU5AfFDWpLWey4srOv2pZ5CShc1OjXqVF2v7bGpYz8bxJnk7Yddj7EWOu4OEX30+acmujs/PGfjY5A+7Th8yctdm8z5a3Fe12XmiqzcvCRW9xifyAOTiAXWQ78LV640TG6pbArs+9uUwxn0S3kyp+wkuiF1cOLE3O/ZVgBlgNVkxiwfuL3Q/Gfo5M0m4fAxAqMGbtA5oi8NfOHJF4JBa3YF06f+U+umLRq3UlCJYz5ouHdXk5O0MG/mo+D3hvHhQOg/UFw2ICqDROiOEXBc2ePNaBaAFEnmVRVI4gfvFD20+KhW7UNOhYcbwV8ZpGg+wmiyaxXH1KomM+ac/JqH8B7CP0JVKWjg+7HeZFosaZ06t4dten9Dhih6CgIMKHa/oYXtjoqZswHrWdOmoJidvZ1jXY8+JuqfFid+fJjzzNQnXHogKoNE68/B9VZv/eMiB8l/hvBfCuj5GZy0dtyZI6UGb/f8R3ROKorUHVpNFs3jgkvjyCXWJXPwitSSUfz+u3R8txYbqr3VAGwqs1Bit4Y8aMBnI4h2u6DF64BSpVSrWwHpWcaEYpyJvZySux9Vr6xK5WPXJyJGEq5bGiFf34QJ8XPOL8BMFV6/S3TACBgjYNVprxaR1QWk7aPOtRz/SaGl+WlhN1s3igUReu6/u2S91x6Cc/0Blw6J9eZqmnlM2udYBrcwqYqO0hr/55x1BAg7a3PzzDk3BwnrWdOmoJidvZ4Sux94cVPo5yv/fQKrLvx+VfIw9J6OCZszOPHyfr/bSgfS6wwyXzpEb02a1rIrQ9YqXyz1xIUjm4s3UuIxpH89RPHkkA2E1WTqLC/RRcK+FgEXrgBYWMmZBRfhlNTVzfjv43bbN9l3bD1y6W8Hr8abd3Ff21HhK/fT0W/r6vNq+mR7Ws3GcQt7OaF1Pk+r5c8MuV763aGDdD/G7UOmnFw+tWyCRR+t6QCa1Pt+yE8czt28ZtmPrL6dzhHdaDnr8E+HOUnEKD9xo2iDdfV7bk7CwmlgWBxxqyiYVA9qM+FWBjzAevmNb8qgR8bbMhJHD+NdmdJ01I7swoNXdq/bzN4iLxZzSIHD7+J7Vmp9bhfVsHJeRt1MV1xuHwGgt8flqnac/Dlyj7rh4LhzXbLFIIlfL9QuOHrl//KimdapPGDmsqS2z7ZTxW8+d8fv9uScuPHVdH9lEPn/4smidFW1/WE0RZXGPx7Nu3bpBgwa1bt26cePGcXFxN998c7du3ZYti8h62IJo8UTSXy2nRrKW0fpYGbtaV6t+snG99Fl+ze1Z944bebruNRK/rjv0QmL/ut3wjNQGgYc/vJjUf9/6QwSCgbyalIEib6eVIx9jr7doYOB+8byW4pvKLJLIVXH9nMOHpKqPt2U1t2fxifzssfMDHnq/fb00fpe9fb20tJv7rpyyQZlAohoFqymiLL527Vqu7nPLLbd06dIlIyOjZcuWfM0rr7wS9sAUbEFUYCLsrIpTI1zLaN2sjF2VLP5b6DdPN7dnvbxkIe9xjPGBjYd/ylryU9aSAxsPh1WBWnFCXk3KLCdvp5UjH2PsLRrqPNHFV7kuyF8XE3nJu7E8Fy9oTqNtxu760pqa5FEjpFm8qS0z3pb18JQJwqH13w+eWWBbPu/7xdsW7/Z6CL2+FlZTRFl8/fr13bt337x5s9h5c+bMadCgAcdx06dPF9dLy7AF0v6x18Tu1Nht0GsGK2NXJYsPWbsKePN0vC3zgq4P5SWvJmWRTN5Oi0e+z+dzOfYihKT+wp5jFKdwVVQ//cC+eFumbBbnKzedOS0lllgNrKaIsngoW/v27ctx3BNPPBGqA18PWwCPVdZqZT1bGbsqen58+mRAzE1tmauy9bykmbyalGmQvJ0s8t1ut2wWV+ZBE42K3fUDVy1rZs8KJfzm9mEjdm7TkRBYTTFl8VGjRnEcl5iYCMODLYDHKmuN3anK1jXCKCtjVyWLPzZtUigx8/UrTun5nG3yalIW1eTtZJHPsriyWPX7/f1XLgWyeMLIYcN2bFU8eewDYTXFlMUHDhzIcVy7du1gK2EL4LHKWq2sZytjVyWLv7liKXBEvakt8/eiQmVhqcoo8mpSZjZ5O1nksyyuLFb9fv+YPTuBLN7UlmnkfXflWdzhcDRu3JjjOLvdLuWupqam9NInNzeX47ji4mJE6uP1el0ul9frJbWggdaxMnaEUOzwd5w72yzwniuZvwR71rM/z9XX2cXFxRzHlZYa8YW5TPU6xkbska+j8TEuHTt2Z3lZoj1LVvXNbJmtx4+u8XhiNDKW4bDqFWZxr9f7xBNPcBzXqlWrWrl3fw0dOpS/iF34n5OT4yb1cTqd2dnZTqeT1IIGWsfK2N1ud+zwXS7X+0sWpY4f3X7cH/5Sx4/uNHHsjhMn9HV2Tk6OYbM4U72OsRF75OtofIxLq4J93KaNQZIXNhf9ujdGC2McDqteYRbnr2u74YYbTpyQP0fI9spj2fOKZWzsu6WxrK77WFXgV9XWvr1qeTNbZqI9K8Gexe+kt5kwemfuOd0Bwnvl0qNiJGuY6nUMD1UiX0f7Y1laFew+n8+2YxsveV71zW2Zd48e8dPhQ7HYpspYWPVKsviAAQM4jrvuuuv27dsXyXeEkc+QFbtK1s/asmLSur1rDvh82j47MxKuYu/Dzg6qdXYwp7jou22b+69cOnjtymUnjtcaIzzIq0lZTJK3M/LIr6qo3rJg5/KJ67Yu3FVTVaMMoNFGRQ7faJbHbo+K2F2VFWP27By4atnbq1fMOLi/rMYQ4QGrKeos/vbbb3Mc16RJkz179kTIPmxBhJNE1S0Sp5YWln3Tx96h4eW3TPa49eXlE9ZGtZABO0eC3YBmq2US9fDJq0mZa8jbGYnrvR7vpHd/6Hptb+HpuU82fn7qh7O1fvq9Mg6jGhUJ/KgmNFFn6rHDaoouiw8ePJjjuMaNG+/evTtyH8MWRD5P5D3DOrWsqPylFgNlH4o749N5kS9kwJ5hsRvQZhVNoh4+eTUp8w55O8O63uf1fdDta+mbbFLqp3/S/XuzH4oLC1+ZH00xinrssJqiyOJDhgxRkML9fj9sgRZREtapI9+cJJvC+T30U/tztLCKzJxhsZMxQ69VqIdPXk3KXEnezrCuXz5hrfATXFpYM32jMqQGGRUWvkHs1MIM6rHDaoo0i3/wwQf8gfSofoXzDoMtIO/UyrKqLlc/J5UxX9OhYcawl8dqYRWZOakPaJhG6uGTVxNMeKhW8nbCrscY9235lvSHOK/6lAbpb7T+bygspqiH4ZsCgmIjqccOqymiLL548WL+hrHWrVu/IPm88847MPuwBfBYZa2wU/etPxQqhfP1vW5/Vdm6RhgFYzeChZraQD188mpS5i/ydsKuLy0og1Xfvl5aVUW1MrBGGAXDN4KF2tlAPXZYTRFl8alTpwq3fUsLd9xxB+we2AJ4rLJW2Km7V+6D9Zx+S19l6xphFIzdCBZqagP18MmrSZm/yNsJu74grwhWfft6aaWFZcrAGmEUDN8IFmpnA/XYYTVFlMVjZB+2IMbJxcMxrsU4cGMA7NTzp/IAPac2SP/Pox+JpzVXGcZuLiwKrKUePjE1KSBfPISYnRh7Ma7CGMOu93q83USXpku/Af553QumfpUIDF/sGvrK1GOH1URDFsfYgyt/Qu5uyJEQ+HM95iub7HIGHtARKl7fevSj1AbpUiXzNet//MM7WENNYsx66gMapp16+LCeYXJItmptJ8YYV69HhS8gR2JA9fltvCWZrvwTgOpHD5yS2jBDVvWpcRkTh8wkyY/qa1Ef+QBj1GOH1WT6LI5xFSrsXZe/68Rcl8i9ecnOUy/6PM5Qjj+46UhqXIb0UpcODTNevudtT60n1EDj11Mf0LALqIcP6xkmh2SrpnYGfnmXfFyn+uS6/4Hdd29eC+eJ7r6aw6FgOs+6nrquj/TmlNS4jGdufMl9viDUQFPUUx/5gBeoxw6ryfRZHBUPQY4kQcl8wZuX5DzR2etOwxiH8v3Whbs6N+qVcukXOa/t1x4YXJRfHGqIKeqpD2jYC9TDh/UMk0OyVVM7ccW0IMnXZfEk54lOXseDGJWHQnpqX07azX3b10vjhc//z/jryzmHzoQaYpZ66iMfcAT12GE1mTuLY59TmsIv6bmDNy8J1/4K+L60oGze94v/88iHr94/aOjT3+1cttfsT34Ie00AwAYdTRbXs3GcCH/vxGInxl7kfChEFq9TfeUsYP7qypqVUzb8N+XTV+57Z0iHz9dM31hbXQv0N0sT9ZEPOIJ67LCaTJ7FK6ZfPCvGnxG/9L/ut3gHb95dqHQo4Hsqm6gPaNhr1MOH9QyTQ7JVOztxzU5pChftuyejgnSSSA2yFvWRD/BMPXZYTebO4qhsGHK0kEr6UhZPRkX9Ad9T2UR9QMNeox4+rGeYHJKt2tmJq1dIJS/K4knI+X8kkRpkLeojH+CZeuywmsydxXHFJPCI+l2o5APA91Q20R3QPp8v+8DpI9uPu3Llr0WiG74uzzNWJhP4e0fZnPwoXLM1TBZ3/zOW+U06luLIxxifPXb+8LbjuSfzZC91ohg7H42wmkyexb3nwCPqSbhmq0k1qdhsWgPaU+uZ/fWCHre+LNwp9N+UTw9uOhJEFK3wBZiwnoVuuhe0sxPjWpTfWprIhSNwuGKS7vDJG0Bl5GOMV0/7pe/d/xFU/+p972yYHfytTiV2cQjBajJ3Fg9czFX0OnJcvtuE1/bFa9SdHTEOecu4mCOaylQGtKfWMyT1M+GGAl7SgXsFG6QHSZpK+OL4hPUs7qlvWVM7cblduvtep/pOXsf9GBXpi12X1emLfIzxmLemBm4oqH/52R78l8DUj2aLSaYPuxhd2CNwps/iGJUgd9eg4+revLucJzN8taeDuLDCJpUBPe3jOUEpXNg373BFj/wzLsGzVMIX0IXVs7invmVtszj21u2+J4pzeUD1J7r5qrbrC1yv1emL/M3zdwoylxb2rD4gUE0fdgEaX4DVZPos7vf7MarA5aOR8x8XD7Ll3+8t/saVfwp4ilMQRzRt0hfQtTWep294USpjviY1LmPy+z8KHqQPvgCNL8B6Duqs46bWdmLsw5WzkavDpUPrd3mLhrjyD1hT9VTeYjrw4Q+kj+gRVP9e5y+F8La46mnI4rwvA6r2XcDec4HTZgi53W5r6pk+7Ac3HQmVwvn6FxIv34lAH3zhq4ovaJ0dg5ZTvEnGzsBzWH352HsWo0rqXQ/7gjL4ZUXlsOpT6qfV1lx8yCZl2KWOhtVETxYXI6feqWKwQWX6sO9YuhfWs/gddPTBD/IvrOegzjpukreTetfD3qQMvvOcG1Z9+3ppZUUXH9JHGXapo2E1sSwuZczcNSYK6MCxk8qfceUPuGYTxt5QvJ/alwPoOaV+2uut/yuMNRF8weaoCrCeo5pK087k7aTe9bC/zAIfoxJctRhXzMTVKzGuCgWqurKmQ8MegPA7X/Ws8KhNs2APBTZsPawmlsXDEmiyDqYIaOzLR0Wvii9NQs6HcOU8Wa4xxv+6a2BK/TR5SddPWzJmlTDQFPAFaxUUYD0rmFCjIeTtpN71sKeMDz/w5qrAO2zurruUgX8T3X2obATGPlloXz03okOId9B1aJgx4rXxwijjYxdMVVaA1cSyuDJWjTvK+AEdePq98xHp/YHIkYDLLytTTPGG2VtlU3hqXEbGX1+uLLu8R298+GJcCsqwnhVMqNEQ8nZS73rYUwaHj3ENKugRdDPRxXRe/LbsLcGn9ud0aNijvWT3PaV+eqc/9Tx77LxAiMGxC3YqLsBqYllcMbEGHWj8gEbFb8umcF7S2Jsjy+zsbxa2r5cm3jdPaZCefkvfM0fOifsbH77YWgVlWM8KJtRoCHk7qXc97CmDw8cVE/9w7O3SOy/4Wwxw9eXDaWKYWxfu6nhFD/GV6qlxGZ0a9dq9cp+4m8Gxi01VVobVxLK4MlaNO8rgAY19BaFTeEKgqfTyDSRBLB/fk/3di6P+ef0LnRv1eiHhzXnfLxYubxF6Ghy+YKfiAqxnxdOqPuv0GjwAAB7JSURBVJC8ndS7HvaRkeFjjOoOvwVeAy/3l4QKnguF7kK2Y9w709Nv+XenRr16/PXlSe/+IH4+BD/KyNhD4YqqHlYTy+JRkWmCzgYPaFy9Rk7GIm27O8fCssHhxwKNHwvrOfb51ZqBvJ3Uux52jZHh48CjskUalyknyh5UhyELrUbGLhgZSwFWE8visXBrxLEGD2hctTyMnl3tY6HV4PBjgcaPhfUc+/xqzUDeTupdD7vGyPCx9/cwqnckYHzx5m8YpmyrkbHLGhxtJawmlsWj5dPo/Q0e0NhzFNRzMip6NRaKDQ4/Fmj8WFjPsc+v1gzk7aTe9bBrjAw/8Eyei5emh/hF7nwURge3Ghk7bHmErbCaWBaPkEbTdDN+QCP3U9B1LjUbY+Ha+PBjQceeow6wR73rAezGfwIrKnk/9AUxiaFuToEhC63Uu55lccHXligYP6Dr3g/9h/dYXPp1nowKesVyesz432WxhyCs59jnV2sG8nYaP/LV4lZ2HoPDx94zKP8+uTvNkpHzUYyKZUFFWGlw7BGiALrBamK/xQHqTNlkioDG1SvqjrDVPfkhcKlL3btlC3pjVBoj6aaAHwtGWM+xzKzuWPJ2Uu962EHGh489B1H+3+p22ZMu/3e1x96zMLSwrcbHHhYC3AFWE8viMHvmazVLQGNUhCsmocI+qCAdFQ/CtbsxxlK6y2trZxzc/+TsmX+fNC515lTbzu3OiosPT5Z2Zr/FZTnRpRL+3tHCJLNEvhbYzRL5GFfjyvmo8N+oIA0VvYGrV8s+ernW51t64liv+XP/MXlcu2kTP924PruwAOCNetfDamJZHIgNUzbRFNBH3a7WE8bE2zLjbZlN6/6a2bOSRg1f93t2KN/QBF8WI6xn2SG6VJK3k3rXw36kBr6rsqLTj9Ob2jKb2bN41Te3Z8XbMif+uicUA9RgDwUQVhPL4qF4M2s9NQHtrqz83/Gjm19SMq/npnUZPWHksIP5DlkPUQNfFh27ui0ULWb5MQrYH2MTHZHvQ6jLrOlS1fPyX3jsqCxLdGCXhcZXsiwOkENhEzUBbd+1XdgZF1K4sG/+2rJFss6jBr4sOpbFQ9HCsjgdkb/291NBYhdvPjJ1ApI770YHdiC2WRYHyKGwiZqA/sfkcWIBB5Wb2bOKqi6/BEVwJDXwBURBBVjPQZ113CRvJ/Wuh71JB/x/L1kQ6oc4/w2w63yulAc6sEtxCTWwmtgRdYEoSgp0BDTGWDgXHpS/hc2jLqfUZ3TAl+ISamA9C910L5C3k3rXwz6lA37KzCmCwGULC44ekfJAB3YpLqEGVhPL4gJRlBSoCejkUcNlZSxU5hQXSX1GDXwpNL4G1nOoUeTrydtJvethJ9IB/6k5MwWByxaWnzwh5YEO7FJcQg2sJpbFBaIoKVAT0K8tWxTq2Fq8LZOdITN4vMLfO1oYT03kKyOHDvjA1TBNbZmJI4ex82jS8GBZXMqJuWvoELPf79+Re052Z5y/TH3K/l9l/UQNfFl07Oq2ULSwq9voiHxnRXnCyGGywm9uzxq8ZqVsANCBXRYaXwnvE7MsDlBnyiaaAvr7bVukeo63ZfZdvMCLkKx7aIIvCxDWs+wQXSrJ20m962E/UgN/0fGj8bbMZpceEcF/AzS3Z7WfMaWkulqWBGqwy6ILu+/Osngo3sxaT1NAY4znHj706NSJQi5/YPyoETu3eXy+UO6hCb4sRvLZUdaMsJXk7aTe9TDnNMHffOb0U3N+EFTfYvSIDzesLa2RT+FWOAwDq4llcVga5mulScw8+xjj/Y681dknd+Seqw2dv/nO9MEPCkFYz0Gdddwkbyf1roe9SR/8EwXutb+f2nzmdFlNjdWwB+GF1cSyeBBdpt+kT8xRuYR6+LCeo+JK087k7aTe9bC/rAyfeuywmlgWh6VhvlbqAxp2CfXwYT3D5JBsJW8n9a6H3Wdl+NRjh9XEsjgsDfO1Uh/QsEuohw/rGSaHZCt5O6l3Pew+K8OnHjusJpbFYWmYr5X6gIZdQj18WM8wOSRbydtJveth91kZPvXYYTWxLA5Lw3yt1Ac07BLq4cN6hskh2UreTupdD7vPyvCpxw6riWVxWBrma6U+oGGXRAIf+9y4fAxyP4VcT6DC53HVEoxr4WmN0wrr2cp2RuJ64/CjuiVWhh8JdozKceUsVNAjoPqCNFwxHaMy1b2g0YSw6lkW14h23aaNJKB1M077hcPCx9WrkeNu5EhCjoS6v7qC6wnslXlXkvb2Rr0CrOeop9NsAHk7w7peM6yGmNjK8MNix57DKP9vdXpPvPQ/EeU/gGvlHwFpCI+KjIDVxLK4iCoqimEDmgqUIUHA8HHtnrr8zSuZz+L8/2TkegyjipDzGqYB1rNhzPSTtxN2vXGY0cgSK8OHsWOfA+U/INpxF4SfhPLvwd4zGnlExWlhNUWXxefNm9euXbsmTZpcddVV99xzz7fffuvxeMLaClsQdriCDrBTFUxooiFWxh72KU6o8AU5MV9UNa6cZXxHk1eTMk7I28ki3+12oxBPJlbmRLOMgl2Pyr5FjuRLx96EFH5p973kY+PDhNUURRYfOHAgx3FxcXGpqanPPPNMkyZNOI57+OGHq6qqYBZgC+Cxylphpyqb0yyjrIwdzuLYdyGEknk9JyJ3N+N7mbyalHFC3k4W+SyLS2MVY1T3QzwoeYs3W2Ic5tlw0mkJ18BqijSLL1y4kOO4a6655tdfL55IcLvdrVq14jjunXfegSHBFsBjlbVaWc9Wxh4mi9fuBrN4Asq/T1m8kRxFXk3K0JG3k0U+y+LSWMWoNIzqHQnYlycdaKgaWE2RZvE2bdpwHPfFF1+IsW3ZsoXjuCuvvLKkpERcH1SGLQjqrMqmlfVsZezhsviBMHrO/5sq4afpJOTVpAwOeTtZ5LMsLo1VjGvCqN6RgFGhdKChamA1RZTFz58/z9V9cnJygrDddtttHMfNmgWdUIQtCJpQlU0r69nK2MNkcVyL8luHlnQyKh6iSvhpOgl5NSmDQ95OFvksi8vGauDussv3pIiPpScgRyJyd8EYyw40TiWspoiy+NKlSzmOu/7666Wonn76aY7jBg8eLG0SamALhG4qFqysZytjh7N4oLVsWGg9J2DPIRWDUKOpyKtJGRDydrLIZ1lcNlZx9YrQ++4JuPIn2VGGqoTVFFEWt9vtHMfdd5/MWcMBAwZwHJeWlgZghi0ABipusrKerYw9bBbHuAoVpMkmclw+UnG8kRxIXk3K0JG3k0U+y+KysYoxRsX/lUvkiajoTYyR7ChDVcJqiiiLf/nllxzHtW3bVgrs/fff5zguNTU1qKmmpqb00ic3N5fjuOLiYkTq4/V6XS6X1+sltaCB1rEydoRQWPg+X4W3+Atv3r3evKSLf/n/5yv/2UAuBE0pLi7mOK60tDRIcUbYZKoHXadtY9jI13Z5XWcPi93n8/pKJ3jz/35Z9Y42vtKRPl+troZHujiseq2y+NChQ/lT6cL/nJwcN6mP0+nMzs52Op2kFjTQOlbG7na7I4Tvcp5zXVjjOr/ElbfF5TJTnOTk5Bg2izPV6/hFEGHk62ihdktHiN3lcrgubAio/sJ6lytPO3tUnxlWfURZXMERdbZXHuleltr9wu6Wqr2gseajHj68V67vL3Kmeh3FQH3kA9xSjx1WfURZfMmSJRzH3XDDDdLvCP7qtkGDBkmbhBr4mL7QTcWClc+QWRl72PPiKsaYXlORV5MypOTtZJHPzosri1Xjj4LVFFEW509scxzH7jQzvr/Zdxnd32Wwno0Tn+TtZJFPd+QDsU2962E1RZTF/X4/e+oLEEOGaqI+oGG2qYcP6xkmh2QreTupdz3sPivDpx47rKZIs7j0CawFBQXsCaywrnRppT6gYVaphw/rGSaHZCt5O6l3Pew+K8OnHjuspkizuN/v528Nb9iwYceOHbt3786/DaVt27bsbSiwugi3Uh/QMJ/Uw4f1DJNDspW8ndS7HnafleFTjx1WUxRZ3O/3z50799FHH/3zn//cqFGjli1bfvPNN7W1tXBs+f3sTcNhGVKzA/UBDZNFPXxYzzA5JFvJ20m962H3WRk+9dhhNUWXxeEwCtUKWxBqVCz11DsVIMfK2Nk16kBgEG5iqidMuJWFTz12WE0sixPWmubLUR/QMIPUw4f1DJNDspW8ndS7HnafleFTjx1WE8visDTM10p9QMMuoR4+rGeYHJKt5O2k3vWw+6wMn3rssJpYFoelYb5W6gMadonp4GPswVWLUUE6ctwd+CvoiauWYewNBRPWc6hR5OvJ22k616vrFCvDNx12jDGu2YQKX0aOVshxF3J1xpU/YFQRKiRgNbEsHoo3s9abLqDVJdpc8DEqRwW96t62lHTpnUt1hcIXMK6SZQbWs+wQXSrJ22ku16vuFCvDNxd2jBEqeb9O78mXVJ8YeNO5KwX7HLKBAauJZXFZ0kxcaa6AVp1oc8FHRf1kX5MaqCyWf6oxrGfV+VQ8IXk7zeV6xcSGGmhl+ObCjstHX0reCX8sJCN3V9k3pcJqYlk8lCjMWm+ugFadZRPBx97f/6jhIEknYt8FKT+wnqX99aohb6eJXK+FU6wM30TYMa5G+fcDwsc1m6ThAauJZXEpY+auMVFAa0G0ieCjsuHIIRxSC0rhCciRhMvHSSmC9Sztr1cNeTtN5HotnGJl+CbCjqtXAik88IVQ/JY0PGA1sSwuZczcNSYKaC2INhF8VPIecrQILekWqPQzKUWwnqX99aohb6eJXK+FU6wM30TYccX0ECfRLu3HF/SUhgesJpbFpYyZu8ZEAa0F0SaCj0q/BH+LJ6OyYVKKYD1L++tVQ95OE7leC6dYGb6JsOPK+aF33BMC17gVviIND1hNLItLGTN3jYkCWguiTQQf1+4G9ZyAPb9JKYL1LO2vVw15O03kei2cYmX4JsKOfQXgvnsCrvxJGh6wmlgWlzJm7hoTBbQWRJsIPsYYubuEkHQyKuguyw+sZ9khulSSt9NErtfCI1aGby7sqHhwCNUnofzWsreYwmpiWVwLQek5p7kCWnWmzAUfe88g598lkk5GzrbYd16WHFjPskN0qSRvp7lcr7pTrAzfXNgxKkPubpKz48nI0QrX7pUNDFhNLIvLkmbiSnMFtOpEmw4+9jlQycfI0fLi0fX8e1Dpp9jnCsUMrOdQo8jXk7fTdK5X1ylWhm867BhVBG5RyW9z6ZxaMir+D/acDBUSsJpYFg/Fm1nrTRfQ6hJtUvgYlWPPYew5glElTAisZ3gsyVbydprU9Wo5xcrwTYod41rsOYY9hzAqgsMAVhPL4jB75ms1aUCrRTT18GE9q0Vj7POQt5N618NOsTJ86rHDamJZHJaG+VqpD2jYJdTDh/UMk0Oylbyd1Lsedp+V4VOPHVYTy+KwNMzXSn1Awy6hHj6sZ5gckq3k7aTe9bD7rAyfeuywmlgWh6VhvlbqAxp2CfXwYT3D5JBsJW8n9a6H3Wdl+NRjh9XEsjgsDfO1kg/oA468wWtWdvxhWucfp3+0Ye3xAreOrJGHTxgsrGfCxgDLkbeTetcDbPv9fsLwc4qLvtj8S5dZMzr8MHXAymW7zudijGELtWsljF07IKFmhtXEsngo3sxaTzKgPT7f26uWN7VlNrdnNbVlCoUvN/+il6RJwtclRGA962KS7KLk7aTe9bI8C5Uk4Y/avTNeovq+ixdUeTyCPSQLJLGTxCWsBauJZXGBKEoKJAP6g/Vr4uuSN5/Cxf/tu7brQihJ+LoAhPWsi0myi5K3k3rXy/IsVBKDP/PgfrHShXIze9aryxYJ9pAsEMNOEpR4LVhNLIuLuaKhTCygc0tLQqXwprbM5FEjympqyBNKDD55aPyKsJ71skq6Lnk7qXe9lGRxDRn4tT7fA+NHCZlbWjjszBdbRaZMBjsZLLKrwGpiWVyWNBNXEgvo4Tu2CQfSpWKOt2XO+u0geR6JwScPjV8R1rNeVknXJW8n9a6XkiyuIQN/VfZJqdiFmub2rI82rBVbRaZMBjsZLLKrwGpiWVyWNBNXEgvot1YtB7J44shhX2/dRJ5HYvDJQ+NXhPWsl1XSdcnbSb3rpSSLa8jAH793N6D6prbMPgtlXskltlOLMhnsWlge4ZywmlgWj5BG03QjFtBD1q5KGDlM2A0PKjS3Zw3bsZU8a8Tgk4fGrwjrWS+rpOuSt5N610tJFteQgT/twK/AebR4W+bLSxaKrSJTJoOdDBbZVWA1sSwuS5qJK4kF9NITx4Iyd9DmrvO55HkkBp88NH5FWM96WSVdl7yd1LteSrK4hgz8U4UFQTIXb8bbMqcf2Ce2ikyZDHYyWGRXgdXEsrgsaSauJBbQtT7f/04Y3ezSPWZiMTe3Z6XMnKrLzWbE4OsVIrCe9bJKui55O6l3vZRkcQ0x+D1/niN7UD3elnnXaHZNq9gnqpVhNbEsrhrRBpmImJj9fv/2c2cTRw4LSuTN7Vl3j7EddTl1IYQkfF0AwnrWxSTZRcnbSb3rZXkWKonBP1Nc/MD4UUGJPN6W2cyetSo75Ls1BTu1KBDDroXxkcwJq4ll8Ug4NFMfwgG9L+/CM3N/FP8Q771g3gn9Ht9GGD75yID1TN6eUCuSt5N614eimq8nCf9cScm/lywQnyDv/OP0LWfPwBZq10oSu3YogJlhNbEsDlBnyiZdAvp4gXvhsaOLjx89XRzmRblac6oLfK1BieeH9SzuqW+ZvJ3Uux52KHn458tKl5w4tvDYkd/0uEdczAZ57OLVCZRhNbEsTsAFRJegPqBhNqmHD+sZJodkK3k7qXc97D4rw6ceO6wmlsVhaZivlfqAhl1CPXxYzzA5JFvJ20m962H3WRk+9dhhNbEsDkvDfK3UBzTsEurhw3qGySHZSt5O6l0Pu8/K8KnHDquJRBYvKSnhOC43N7eU1Ke4uDgnJ6e4uJjUggZax8rYS0tLqYefm5vLcVxJSQn8na57K1M94S8F6iMf4JN67LDqSWRx3gKOfRgDjAGVGMjN1eGJOlHtGTDVq+RqNg1j4CIDoVRPIosjhHJzc0tKSoCdKXWb+G8Qkr/+1bU/ltmsjL20tJR6+CUlJbm5uQihqHIq+c5M9bGoWMFY6iMf4IR67LDqSWRx8t8g8FkE8vaQXNHK2P1+v8Xhk4w0o61lcddbGb6Vsfv9fpbFjfZdFKs9Fg9oi8OPNXrMPN7irrcyfCtjZ1nczF9aIWy3eEBbHH6IoLBEtcVdb2X4VsZObRavqakZOnRoTU2NJb69/gjSytj9fr/F4f8xFqy1ZXHXWxm+lbFTm8Wt9e3F0DIGGAOMAcaAVRmg87y4Vb3JcDMGGAOMAcaAtRhgWdxa/mZoGQOMAcYAY4AmBlgWp8mbDAtjgDHAGGAMWIsBlsWt5W+GljHAGGAMMAZoYsD0WdzpdE6fPr1Xr17Nmze/8sorGzVqlJSU1L9//9OnT0fopzvuuEP2EX8PPvhghDMQ6zZv3rx27do1adLkqquuuueee7799luPxxPh6nv37k1LS/uf//mfK6+88s4773zzzTedTmeEY/Xt5vF41q1bN2jQoNatWzdu3DguLu7mm2/u1q3bsmXLIjFs6NChsv7lOO7YsWORzMD6GI0BpvoIPcJUL9U+fao3fRZ/7rnnOI6rX7/+Pffck56e3rlz55tuuonjuKuvvnrNmjWRxDqfxbt37/7CHz+fffZZJMOJ9Rk4cCDHcXFxcampqc8880yTJk04jnv44YerqqrC2vDTTz/FxcVxHNemTZuMjIz4+HiO426++eZTp06FHat7h7Vr1/JSvOWWW7p06ZKRkdGyZUu+5pVXXsEYwxbyWfzee+/9o3sDW3l5efBY1mpMBpjqmerhyLSU6k2fxfv37//pp5+eP39ecGp5eXnPnj05jrv++uuLioqE+lAFPotH/ts91Dya1i9cuJDjuGuuuebXX3/lF3K73a1ateI47p133oGXvnDhwlVXXcVx3Pjx4/mePp+vd+/efFIPmwXhyQm0rl+/vnv37ps3bxavNWfOnAYNGnAcN336dHG9tMzreejQodImVmNSBpjqmerh0LWU6k2fxWV9WVlZee2113IcN3PmTNkO4kpTZPE2bdpwHPfFF1+ILd+yZQvHcVdeeSX8nsrBgwdzHNe+fXvx2PLy8saNG3Mct2rVKnG9icp9+/blOO6JJ56AbbaUnmEq6G5lqhf7l6me4ziL7LvTmcX9fn/r1q05jvvqq6/EkS1bNn4WP3/+PH8AOScnJwjCbbfdxnHcrFmzgurFm82bN+c4bsqUKeJKv9///PPPcxz3yiuvBNWbZXPUqFEcxyUmJsIGsywO80NTK1O94E2mepbFhWAwZcHj8dx4440cx02dOjUsAD6Lf/zxx2+++eZrr7322Wefbdq0Kewokh2WLl3KnyCQLvr0009zHDd48GBpE19TVlbG7wEcOnQoqI/NZuMPqgfVm2WTv1CgXbt2sMF8Fu/WrduQIUNefvnlQYMG/fjjj2VlZfAo1mo6BpjqBZcx1VtK9XT+Fh87dizHcY0aNcrPzxciO1SBz+J8qhP+t2nTxjhXftntdo7j7rvvPimEAQMGcByXlpYmbeJrDh06xIOSHnVfsGABx3E33nhjqLFGrnc4HPwZAbvdDtvJ61nwLF9o3Lhx2BPq8LSs1WgMMNULHmGqt5TqKczihw4duuaaayI8nO73+994441Zs2ZlZ2dXV1efPn16xowZt99+O8dxt956q0Huxfryyy85jmvbtq2gUqHw/vvvcxyXmpoq1AQVtm3bxuctr9cb1LRmzRqO46644oqgeuNver3eJ554guO4Vq1a1dbWwgbPmDHjq6++2r9/f1HdZ+vWrV27duU5+eGHH+CxrNUsDDDViz3FVG8p1Rsriw8ePDgpss+WLVvEUSuUc3Nz+d/WTz75pOKrrwsLC++8806O4wYOHCjMrGOBZfEg8vnr2m644YYTJ04ENUW42b9/f47jbrrpprA7ARFOyLopZoCpXpY6pvogWpjqgwgRNo2VxfnbQIMOfspurly5UsAgFBwOR2JiIsdxHTp0iPG1pCNGjOA4Lj4+XphcxwI7oi4mnz+JcN111+3bt09cH1W5sLCQv1Et6Aa2qCZhnVVhgKlelkamejEtTPViNoLKxsriQcZFtel0Olu0aMHfUlVdXR3VWGnn1atXG+do85IlSziOu+GGG6R28le3DRo0SNrE15SWlvK7QaGubmvdunWosQasf/vttzmOa9KkyZ49e2I07y9/+UvYy/tjXIIN15oBpnpZhpnqZWnx+/1Uqp6SLO5yue6++27+7uFInmoUysdC/axZs0IlTqEPsUJubi6fiS1+pxl/C2zjxo13794dI/k+n49/Es7SpUtjnIoN14sBpnqAeWruNGOqB7zMN9GQxd1uN/9IzieeeEKVFO73+5988kmO4zp16hSWQTIdtHjqC/8MV7M89WXIkCEcx6mSwv1+P399fr169RwOBxkPslXUZYCpXnrXiZjhUE99YaqnT/Wmz+KFhYX33HMPfyA9bAp//PHHk5KSFixYIIT7okWL9u7dK2z6/f6ysjL+RmSO49auXStu0rEsfQJrQUGB9AmsCxYsSEpKevzxx8WmCk9gnTBhAl/v8/n4R760adNG8TWA4iW0Ln/wwQf8gXT4V/jIkSOTkpKef/55wZ6zZ8/OnDkz6AzLwoULr7/+eo7jevfuLfRkBRMxwFQvfgIrU73FVW/6LM6fGK5Xr15GRob0dRcLFy4Ufzfxl6+LHwXDJ+zbb7+9S5cuzz333GOPPXbdddfxLx0ZMWKEeKzuZf76joYNG3bs2LF79+78PnXbtm3F+y5Tp07lOO6OO+4IsnbevHn8xVwPPvhgjx49zPU2lMWLF/MnFFq3bi11sfjrjL9JVPwcmP379/PPn3/kkUd69uz51FNPJSQk8LM99thj5eXlQUSxTVMwwFTPVC8EKlO96bN4u3bt+C9l2f9Bz9GVZvFffvmlb9++999//80339ywYcOrr766RYsWr732mvRaMCFodCzMnTv30Ucf/fOf/9yoUaOWLVt+8803QTdKhcrifr9/7969zzzzzE033XTFFVfccccd/fr1i+SRODqCFZbmQcn6N2iXRarngoKCIUOGPP7447fffvvVV1/dsGHDv/zlL127dp01axZCSFiCFczFAFO92F9M9RzHiffdraZ602dxcTSzMmOAMcAYYAwwBizFAMvilnI3A8sYYAwwBhgDVDHAsjhV7mRgGAOMAcYAY8BSDLAsbil3M7CMAcYAY4AxQBUDLItT5U4GhjHAGGAMMAYsxQDL4pZyNwPLGGAMMAYYA1QxwLI4Ve5kYBgDjAHGAGPAUgywLG4pdzOwjAHGAGOAMUAVAyyLU+VOBoYxwBhgDDAGLMUAy+KWcjcDyxhgDDAGGANUMcCyOFXuZGAYA4wBxgBjwFIMsCxuKXczsIwBxgBjgDFAFQMsi1PlTgaGMcAYYAwwBizFwP8HH47hUwxN3IYAAAAASUVORK5CYII=;" vertex="1" parent="1">
          <mxGeometry x="160" y="590" width="232.63" height="100" as="geometry" />
        </mxCell>
        <mxCell id="uyvEmPoRV89XPVumFd5U-27" value="" style="shape=image;verticalLabelPosition=bottom;labelBackgroundColor=default;verticalAlign=top;aspect=fixed;imageAspect=0;image=data:image/png,iVBORw0KGgoAAAANSUhEUgAAApcAAAEdCAIAAADWzdvlAAAAAXNSR0IArs4c6QAAIABJREFUeAHtfQeYFFXWdgGDLoYF06e7/gYGJqBg+mDdFZVPZYasq8wMoIi6rBGBVWExY44zQDc5JyUpOUfJWZJkxiEMTE93T87T3ff2//QUFGVX9enu6qpbVbduP/PMc+vG877nvH2qK3J+9mEMMAYYA4wBxgBjwJwMcOY0m1nNGGAMMAYYA4wBxoCfZXEWBIwBxgBjgDHAGDArAyyLm9VzzG7GAGOAMcAYYAywLM5igDHAGGAMMAYYA2ZlgGVxs3qO2c0YYAwwBhgDjAGWxVkMMAYYA4wBxgBjwKwMsCxuVs8xuxkDjAHGAGOAMcCyOIsBxgBjgDHAGGAMmJUBlsXN6jlmN2OAMcAYYAwwBqLL4rW1tTabrW3bttddd92VV1556623duzYcc6cOYxHxgBjgDHAGGAMMAbIMxBFFs/Nzb3rrrs4jrvxxhu7du3ao0ePhx566KqrrurevTt5u9mKjAHGAGOAMcAYYAxEmsWrqqqSk5M5jvvkk088Ho9AXGVl5f79+4VNVmAMMAYYA4wBxgBjgBgDkWbxjz76iOO4V155RYFlCKHc3NySkpJS9mEMMAZiY6CkpCQ3NxchpECJJIcw1cfmZzaaMXCZAVj1EWVxj8dz4403chx36tQpBV8Eubm5HPswBhgD6jGQm5urQIkkhzDVq+dtNhNjIMBAKNVHlMV37tzJcdxf//pXv99/6NChTz755JVXXhkyZMiyZcsi+U1QUlLCW3B510LjUnFxcU5OTnFxscbrGHF6K2MvLS2lHj6fHUtKSkimZAVrMdUT/nagPvIBPqnHDqs+oiw+YcIEjuP+9re/DRkypF69euL9ovvvv//s2bNSkdfU1Aik8xYUFxcjUh+v1+tyubxeL6kFDbSOlbEjhKiHX1xczHFcaWmpVHS61zDV6/hFQH3kA9xSjx1WfURZ/Ouvv+Y4rmHDhhzH9evX78SJE6WlpWvXrk1MTOQ4rmXLluLr3fivkqFDh4qTPcdxOTk5blIfp9OZnZ3tdDpJLWigdayM3e12Uw8/JyfHsFmcqV7HLwLqIx/glnrssOojyuJfffUVn5J79eol3t8/e/bsn/70J47jZsyYIa73+/1srxzYc9S0ifrdUpg96uHDe+VBMiS8yVQPB6emrdRHPsAe9dhh1UeUxUeOHMln8Y0bNwZ9L3Tv3p3juD59+gTVizdLS0sJ/3pACLnd7kjO2YvtpKNMEjtGhbhiIipIQ65OqPBfuGo5xpfvQtSFT5LwdQFIXk3KYJK3k3rXw44gBh/jKlz5EyrsHVB9QS9c+SNG5bBtWrcSw641kFDzw2qKKIsvX76cz+Lnzp0LWmbw4MEcx6WkpATVizdhC8Q91SpT71SAKGLYcfUG5GiJHInIkVD3lxT470rBvvOAeVo3EYOvNZBQ85NXUyhL4HrydlLvephwMvCx5xhyPlSnd174df/zW+NaPZ8aQgY7zL+mrbCaIsriDoeDv6ht3759Qba+9NJLHMc9/fTTQfXiTdgCcU+1ytQ7FSCKDHZcux85WohSOJ/IE5AjGbkex6gCsFDTJjLwNYUAT05eTbA9oVrJ20m960NRzdcTgI99+Si/TUDjF3fcBdUnofx7sVfmMmfYZrVaCWBXy1Rl88BqiiiL+/3+Rx55hOO47777TmyEx+OJj4/nOO7rr78W1weVYQuCOquySb1TAZbIYEeF/0KOuh/fwXoOCBtXzgIs1LSJDHxNIcCTk1cTbE+oVvJ2Uu/6UFTz9QTgo7LvQ6s+GZUMhS3UrpUAdu2Mj2RmWE2RZvF169ZxHHfdddft2LGDX9Xr9fbv35/juGuvvTY/Px8wBbYAGKi4iXqnAswQwI59Drlf4cKOeSJydwUs1LSJAHxN7Q87OXk1hTVJtgN5O6l3vSzPQqXW8DHGKL+15Fe4oPoE5GiFcY1gD8mC1thJYpFdC1ZTpFnc7/d//vnnHMfFxcU99NBDzzzzzJ133slxXKNGjZYtWya7sFAJWyB0U7FAvVMBrghgx7W7QTEnoPx7AQs1bSIAX1P7w05OXk1hTZLtQN5O6l0vy7NQqTV8jMrDqN6RgH0XBHtIFrTGThKL7FqwmqLI4n6/f/Xq1Z06dbr++usbNmx42223vfjii8eOHZNdVVwJWyDuqVaZeqcCRBHAjj0Hw+g5vw1goaZNBOBran/YycmrKaxJsh3I20m962V5Fiq1ho9xbRjVB7J4gWAPyYLW2ElikV0LVlN0WVx2gbCVsAVhhyvoQL1TAU4IYA/oGTq2loyK3wYs1LSJAHxN7Q87OXk1hTVJtgN5O6l3vSzPQiUB+KigR+jz4onI1QljLNhDskAAO0k40rVgNbEsLmXM3DVkAhqVZYXWc4KOt52Qga9jiMB61tGwoKXJ20m964MYDtokAB9XLQ/9czwRV84OMonYJgHsxLDILgSriWVxWdJMXEkmoDGqRO5n5BN5WZaO9JGBryNAWM86Gha0NHk7qXd9EMNBmwTgBy5wK35HLpEnoqJXMfYGmURskwB2YlhkF4LVxLK4LGkmriQW0BhVoNKhdQ9+uXSdqrMtrpyl11E13mfE4OsVIrCe9bJKui55O6l3vZRkcQ0Z+Bj7cPmYP5xQy78flWXp+9BGMtjFbBMuw2piWZywOzRfjnBAY1SGq1fjqgW4ZhvGPs3hhVuAMPxw5qjfDutZ/fWUzkjeTupdD7uCJHyMa3HNRlw1H1evx7gaNoxAK0nsBOBIl4DVxLK4lDFz11Af0LB7qIcP6xkmh2QreTupdz3sPivDpx47rCaWxWFpmK+V+oCGXUI9fFjPMDkkW8nbSb3rYfdZGT712GE1sSwOS8N8rdQHNOwS6uHDeobJIdlK3k7qXQ+7z8rwqccOq4llcVga5mulPqBhl1APH9YzTA7JVvJ2Uu962H1Whk89dlhNLIvD0jBfK/UBDbuEeviwnmFySLaSt5N618PuszJ86rHDamJZHJaG+VqpD2jYJdTDh/UMk0Oylbyd1Lsedp+V4VOPHVYTy+KwNMzXSn1Awy6hHj6sZ5gckq3k7aTe9bD7rAyfeuywmlgWh6VhvlbqAxp2CfXwYT3D5JBsJW8n9a6H3Wdl+NRjh9XEsjgsDfO1Uh/QsEuohw/rGSaHZCt5O6l3Pew+K8OnHjusJpbFYWmYr5X6gIZdQj18WM8wOSRbydtJveth91kZPvXYYTWxLA5Lw3yt1Ac07BLq4cN6hskh2UreTupdD7vPyvCpxw6riWVxWBrma6U+oGGXUA8f1jNMDslW8nZS73rYfVaGTz12WE0si8PSCG4tLSg7vO340Z0nq8qrgtuMsU19QMM0Uw8f1jNMDslW8nZq5/qqiupju07+tvVYsauEJIdRraUd/KjM0KUz9dhhNbEsHmnU5Z7M++q5ER0a9mhfL619vbQuVz1re2NiUX5xpONJ9aM+oGEiqYcP6xkmh2QreTu1cH1pQdmoAZO7XtubV31qXMbnPbLOHM0lyWSEa2kBP8Klde9GPXZYTSyLRxSB2QdOP9n4+dS4DF7MgqR73f6q+3xBRFOQ6kR9QMNEUg8f1jNMDslW8naq7voiZ0mf5v2kqu96zXPHdp0kSWYka6kOP5JFDdKHeuywmgyRxSs9nvlHDw/bsXXU7h0HHHmxR4a6TvX5fM/e8VqQmPlE3qFhxjuPfRy7wSrOoC52FQ0jMxX18GE9kyE5klXC2ulFaE32qeE7ttl2bt94OgdhHMm0QB/VXf9Bt687NPzDjruw+552c19PrQcwhnyT6vDJQ1C8IvXYYTXpnMUxxuP37r57jK2pLTNh5LDm9qymtswus6afKHAr9qjf71fXqdsW7xb/BJeWzxw5F4u16o5VF7u6thGYjXr4sJ4JMBzhErCdK06daDNxDK/6BPuwprbMtlPGbz5zOsLJZbup6/q83/Pb1w+cOwv1t2H2Vlkz9KpUF75eKJStSz12WE06Z/HM7Vua2jKD/prbs1qNtWcXKj9Sra5TM/uOkd0l5+WdGpcx++sFyoJPi1HqYtfCQk3npB4+rGdNuY1qcsDOJSeOBUm+qS0z3pbZzJ618XROVKuIO6vr+gW25Sn100Ol8NS4jC96DRevrntZXfi6w4nKAOqxA2ry+/16ZvHswgKpmPma5vasPgt/isqR4s7qOvXzHlkpDULqucMVPSa//6N4dX3L6mLXF4uC1amHD+tZAWMaDQllZ5XH02qsPV6y784n8gcnjvUipMwkdV3/wxc/d7h0KatsLv+gy1fK7NRolLrwNTJSo2mpxx5KTTyfembxTzeu5w+hy+byeFvm2RKFV4Cr69Sxb00F9JxSP33x6FUaRaeCadXFrsAAfYdQDx/Ws77ki1cPZefcw4dk9S5Ursk+JZ4n8rK6rl897RfZ5M1XdmjYY/gr4yK3jUBPdeETMFjFJajHHkpNPId6ZvEus2YI0pUtLDp+VJmn1XXqqf05gJ47XtGjtKBMmZ1ajFIXO2/h6cPnRvWf3P8f7w946P2xb0/LPanCFYhaYFf9kgiNjIxlWljPscys7thQdr67bjWw754wctg3Wzcps0TdyK8orexy1bOA8I9sP67MTo1GqQvf7/e7zxdM+3jOfx75sN+D72b2HXNs10kc8xWIZsGukZ2Kpw2lJn5CPbN4px+nySZvoXLhsSPKYKse0O91+kL2GvWU+umjB05RZqRGo9TF7vP57P0mtq+XJlwZwPMw6d0fjClpdeFr5KNYpoX1HMvM6o4NZefgtSuBLJ44cthXWzYqs0R1109+/0fZC9xS4zLeevQjo8W/uvAXjlyRGpeReulMIi//oc98V1NVo8w7mo5SF7umpiqbPJSa+Nn0zOLvrF4B6LmpLfOoy6kMs+pOrSipGND2g/b10oRczhc+S8/0erzKjNRolLrYxw+aLvtF1r5e2g9f/BwWAkbluGoZrvwBVy3FqDxs/9g7qAs/dntUnwHWs+rLKZ4wlJ2T9u2VPSku7LvPP3pY2aKqu97n8337wsiA6i/db8Zntdf/97+GOvzG06Ui/DUzNsoehEhpkP5p2vdhvYOxB1dvqFP9fOxT+B0edhVxBxWxi6c1TjmUmngL9czi+/IuCNINKjSzZz01e6ZiErVwqtfjXT9ry8C2H3S7tvdTTfq81/nLncv2Gm1/XN1DygV5RcJei1TVnRv1qiipCOUjjD2o7FvkaIUcCciRWPe/FSr9EuPaUENUqdfC9aoYptYksJ7VWiX2eULZWVRVlTgycGuZ7F+rsfZqr8L7sLVwPcZ4z+oDHz759VNN+nS9tvebD767ZsbG2hqFFsbOKjCDWvB9Pl/GX1+W6l2oOfnr76HMwBjjihnI+aBI9UmoaCBGhaGGqFKvFnZVjNFiklBq4tfSM4tjjPuvWCrdMY+vu3d813nljzmk3qlAoKiIffbXC4RDaoKGLxfqpy0Zu1rWEox9qOjVS8k7oU7S/P9EVPgSxhp+CaoIXxaa7pWwnnU3TzAAsHPMnp2yKbypLXP2bweFGaItUO96mBC14O9ase+yxiW3y3domDHitfGhLEFlWSKxC8JPRq72GBWFGhV7vVrYY7dEoxkANel8p5nf76/1+QavWdnUltncnhVvy+IPsN87buQmIz3/QSPHaDStigH9/UujhdPhUmF3vKLH2LemyqLAlfPlxHxR1bhytuwoVSpVhK+KPapPAutZ9eUUTwjYiTEetXtnwshhzexZ/F+8LTNp1PDpB/YpXk7do1CxmKHXWLUif/6IZcCNte3rpb3z2FBZjNjzW2jVJ6MS+VGyU0VbqRb2aNcl1h9Qk/5ZnGfhdHHRt1s391u+5O3VK+YfPVzjjfVMM/VOBaJHRewjXhvfIfQtsx0a9pj07g+yliD3k8iRFELSicjVSbszESrCl4WmeyWsZ93NEwwIa6e7snLsnl39Vyztv3Lp5H17S6qrhbHKCtS7HqZFLfhLxqwKdSkMvyv/XqcvZC1Bxe8iR3II1ScgRyvtroxRC7ssLiNUwmrS84i6duxQ71SAOhWxb5y3XfoTXFyzZ/UBqSUYVYRW8qWf45odXlMRvhSaEWpgPRvBQt4G8nZS73rYuWrBP3vsvFjjQeWUBulzv1skawlyPgILH9dslx0Ye6Va2GO3RKMZYDWxLK4R7bpNq2JAez3e7v/zL9nDa6lxGc8364fkHrOFUTEsZuRI0O7KVRXh6+ZCcGFYz+BQoo3k7aTe9bD/VIT/zmNDQ13W2vHKnqGuz0fOv8PCxzUKnwQAA7fCyRRYTSyLh40Qk3VQUcx+v//XdYc6NOwRlMhT4zI6Nep1ZMcJWWowRii/NaTn/Pv5C9xyfjtre31Cz9tefebGl95oM2T5xHXVlbHejaoufFmA+lbCetbXNvHq5O2k3vVieqVlFeGfP5X39PUvBiXylPpp7eunrZkR8m5+VPBs6PNogYNw2HvW7/e7cgumfjj7+Wb9nr7hxZeSB8z+ekGxq0QKJ6oaFbFHtS6xzrCaWBYn5ghCC6ke0L9tOfraA4PFB9b6/+O943uyATyoLDO0npNRaeAB1PMyl4gfJsPvKDzfrJ/jdEw3mKoOH4CpSxOsZ11Mkl2UvJ3Uu16WZ6FSXfjnT+UNSf1MrPo+CW9uW7RbWE5awFVLQ++7J6HC5/1+//Ylezr9qad4/yClQfqTjZ8/vC2mB+Gpi10KTfcaWE0si+vuIJUN0CigT+zNXj5x3YpJ634/eCasxdjnqrtnVHqpSzLKb4N9jg2zt4q/IIRyasOMPs371VYrv6dcI/hhIRPrAOuZmBlhFyJvJ/WuhznXAv6FbMfKKRuWjV9zcNORsFekYlyL3E/JXeCWiBwtcO2vp/blBA7sSd73mtIgvdufe+efccEAgVYtsAPLkW+C1cSyOHmPaLuiQQIae08h56N1++b8xep1/51tsecYxvjFpP7AdbBrZyo/f2YQ+Nr5GNazdutGOzN5O6l3PewCI8DHqBAVpNWpnt+DT6x7aMQ9uHqD3+//vOewUHeupsZljB80HQYItBoBO2Be7E2wmlgWj51hY81gnIDGuBZXLQs8/qWgOyp8GVct4R/cdmzXSeHHt7SQ2iD97f/7WDGnxoGvGAI8ENYzPJZkK3k7qXc97D6DwA88vq1mKyr+TyCdF76AK6ZjFHhZVGVZVagUzn8J/PO6F8L+3A/FgEGwhzIv9npYTSyLx86wsWYwfkBv/nmHNHmLa56783XFnBofvmJo/EBYzzFOruJw8nZS73rYOwaHf/5UnljjsmXFr1oxOHbYcZG0wmpiWTwSDs3Ux/gBvXsl9IjH9vXS/t3yLcWMGx++Ymj8QFjPMU6u4nDydlLvetg7BodfkFckm7mFytQG6bJ3rsKo+VaDY48EAtwHVhPL4jB75ms1fkBXlVd1veY5Qb1BhdS4jKkfKn9Eq/HhxxhSsJ5jnFzF4eTtpN71sHcMDh9j/Mq97wTdsypoPzUu48NuX8MAgVaDYwcsj7AJVhPL4hHSaJpupgjoMf+ZKr7bRBBzoND42dEbt3y7dfOo3TuOuqO+bNUU8GMJJljPscys7ljydlLvethBxoe/csqGPyhd9KqVx69IH/bTyu+3bRm+Y9v2c2ejPUFufOyw78K2wmpiWTwsgSbrYIqArqqo7ve3d1MbZIhVndIw/b5/vtPclsW/1I5/NU7avFnnS0sj94Ep4EcOR9oT1rO0v1415O2k3vWwK40PHyH0zfN2seTb10tLqZ/W5pF+ScOzmta9ypJX/WPTJ+3LuwDjFbcaH7vYWgVlWE0siyug1NBDzBLQVRXVE4fMfKpJH17VT9RLe/jtL6UvrGxuz3pw4tj88nKY9IP5jsFrVj48ZcJDk8cNWjR/7e+nfHJPh4UnMUUrrGfjQCBvp1kiXyMfmQI+Qmj+8GU9b3tVyOVP9PhAqvpm9qykUcMPOPJgrs4UF3+1ZeNj0yf9fdLYfj/N+fnIb4pfTg8vpHsrrCYlWXzw4MFc3efzzz+PBB5sQSQzRNvHFAEdLagI+5sLe2117W9bju5ZfWDh9n1SMfM1ze1ZQ9auCgUfY/z5pl/4l9s2tWU2s2V2GD+6mS2z189zy2uVPz0m1HK615NXkzLI5O00V+QrYxUYZSL4Pp/v+O5Tu1ft37HzSDN74Fe49K+ZPavLLOgO8jm/HWxmv/gy62a2zNQ61f/ftElRHboD+DRUE6ymqLP4tm3b6tevX69ePY7jWBY3lKd5Y0wkZjF7ry5dxB9Mk+q5ad3Lp0tr5N9cOWbPTvGQZrbM9uMCWbyZPetfi+eLl6CjDOvZOBjJ22nSyFfLZWaEP2LntlBZnBf1gXyHLD/rcrJlVd/cntVu2iT6fpHDaooui1dWViYkJNx6663//Oc/WRaXDS/dK80oZr/f/7/jR4tlKS3vOp8r5bbK42k5xibuLGRxvvI3Z750lKlrYD0bBxp5O00a+Wq5zIzw+yz8SSzeoHK8LXPagV9l+ek6a4Y4/Qep/qcjv8mOMm8lrKbosviAAQM4jlu+fPkLL7zAsrgxY8KMYvb7/fePHxWk4aDNHbnnpIQvOn40qJtYz83tWR//sk46ytQ1sJ6NA428nSaNfLVcZkb4vRfMC9KveLOZPWvKfpksfrzALe7Gn0fjj8AFyvas7nNnqcWqQeaB1RRFFv/ll1/q1avXp08fv9/PsrhBvCs1w4xi9vv9z82fK965DlapPctVWSEFO2r3zgT7MHFncRZvasvsu3iBdJSpa2A9GwcaeTtNGvlqucyM8L/ashE4j9bUlrn9XOBlpkGf9Tm/iyUflMWb2jL/NnFM0BCzb8JqijSLl5eXN23a9JZbbikqKmJZ3MgxYUYx+/3+ladOBilT2Gxuz3pj+RJZzifv2xuU+8VZvJk9q1+IgbKzmaIS1rNxIJC306SRr5bLzAg/p7hIkHlQId6W2W7aRNkbx7efOxvUWaz6prbMR6dOVItVg8wDqynSLP7qq69yHLdw4UIeFfstbhDvSs0wo5j9fr8XoV4/y/wcb2bPunuMLbuwQIrU7/dnFxbAerbaGTJZlnSphL93tDDJpJGvFhUmhf/JxvVBEm5qy4yv+9tw+ndZcuCrYZrbsz7f9IvsQPNWwmqKKIuvXr2a47iePXsKLITN4jU1NaWXPrm5uRzHFRcXI1Ifr9frcrm8Xi+pBQ20jnmxl1VXv7pkYTNbZqI9K8GelWQf1syW+dDkcQfzHQC/z82fm2jPClyUXveXYMtMGTc6wZaZYM+6f9zIytoaYKwZm4qLizmOK43mSTiCbLUuMNXrGFEmFb7H6/1y04aEOskn2rN4Ld8zxr7i5AmATH6IVPXNbJnNbZnZhQXAWDM2waoPn8VLSkr+3//7fzfddJPb7Ra+BcJm8aFDh/L3lAv/c3Jy3KQ+TqczOzvb6XSSWtBA65gd+77sbNuGtR8tX/LlquWrDh7ID+fEo2fPpE+b3GH86PbjAn+p40a/MGVih/GjO04Y88uRwwZyjEqm5OTkGDaLM9Wr5GQl05ha+CfOnR2/eePHy5d8tmLZvN27zjscMAW5Dser82anBqm+7htg9q4d8FgztsKqD5/FX3zxRY7j5s6dK6TwSM6Ls71yvfb4TLpLHgtdeaUlb61cljQy8Nud/y3+/IJ5+/MuxDKnYcfCe+VikZIvM9XrGDZWE355Tc2XmzbcM8YmqL7Lj9NWnzqpowu0WxpWffgs3rhx47i4uHZ//Nx8880cx915553t2rXr0aMH/H0BH9OHxyprNekpImVgg0ZZFnthVeXG0zlrfz91+PRpxa84DCLTgJvk1aSMBPJ2WjbyeQdZE36Vx7P13Jk12Sf3njrp8/mUxarxR8FqiiiLC0fFZQt33HEHzAJsATxW2oox/jXvwpg9O+27ti8/ebzG65X2sWZA8zxYGbvf76cevrpqkmpHrRrV7fy9qHDir3tG7Nw29/Ch0poaqZ3Uu14KWVxjZfjUY4fVFD6LiwNFKIc9Ly709Pv9sAXinmHLh535HX+Yxj80O2Fk4Ebh+8ePmv3bwaCB1Ds1CK9408rYWRYXR4K+ZRVVn19ezj8epJk9K2HksHhbZvKo4d9t2xz0whsW+W63m+KjUEA8U+96WE1myuJHXM67Ro8Iuj+Yv0th0r69Yh9T71Qx2KCylbGzLB4UDDpuwt87kRvmqqx4aPJ42WeDDFqzUnw/MYt8lsUjjytz9YTVZKYs/tScH2RTOP/T3Flx+eWVVtazlbGzLG6c7yb4eydyOz/YsFY2hfO771vPnRGmYpHPsrgQDJQVYDWZJosfcTmlDwcQaprZs2w7twues7KerYydZXFBAroX4O+dCM0rq6lJHjVckHlQobk969Wli4SpWOSzLC4EA2UFWE0Ks3hUHMEWRDjV9AP74uVeQysIu/eCecJUVtazlbGzLC5IQPeCKqrffSFXELhs4YHxowSkLPJZFheCgbICrCbTZPFpB36Fs3iv+ZfvaLeynq2MnWVx43x5wd87Edq5M/ecbPIWKu8dN1KYikU+y+JCMFBWgNVkmiwufQK+oGT+vPinmzYInrOynq2MnWVxQQK6F+DvnQjNc1VUhLoUhn8HZcZPs4WpWOSzLC4EA2UFWE2myeII40enTgR+jp8SvTDDynrWETtCaMfSve92+Lzbtb27XP3smw++u2bGRk+th6SidIRPBiasZzI2RLKKWna+tmwRcHXb0hPHBGOod72AVLagI/yjO09+3dv2z+te6Nyo10vJA+YPX1ZRIvMeYVmzVanUEbsq9oedBFaTabK43+9f93s2/64b8a9w/gU4761bLSaCeqeKwQaV9cLu9Xg/S89sXy8tNS6jfb20QKFBevt6af0efLe8mJyk9YIf5AXtNmE9a7dutDOrZeeJArfs/aXN7VnPzP3RI3pcF/Wuh12gF/wZn8xrXy+tQ8OLqm9fPy2lfnrP//dK7sk82GAVW/XCriIEeCpYTWZNSdgrAAAgAElEQVTK4n6/f+mJY3eNHsEfTIu3ZTa3Z8XbMj/asNaLkJgF6p0qBhtU1gv7mLemptQPpO2gv9S4jMEpnwYZqd2mXvC1QxQ0M6znoM46bqpo535HXpuJY/gTZ8L/Pgt/CnqCG/Wuh72pC/xVUzcE6f3iHnxcxrN3vFZTJfOIPRiFslZdsCszVdkoWE0my+J+v7+8tnbmwf39Vyx9bdni77dtOVtSLOWFeqdKIQs1umAvLSjreGVPWT3zlSd/lX9VsGC2WgVd4KtlfCTzwHqOZAYyfdS10+PzLT95/K1Vy19dumjoL+sOOfOlKKh3vRSyuIY8fIRQ7/g3ANWvmnr5WiWxqaqXyWNXHQI8Iawm82VxGC3fihByOfb4SsehshG4cj5G5I7oRmKepn10CeglY1fL/hDnFd6hYcaoAZM1RS1Mrgt8YXUCBVjPBAyIcAnydgZUn3/UVzYloPqKGdh3+U3KEdps6m7kI//wtuNACk9pkP6fRz8iQyl57GRwCavAaqIwi2PvGa87w3migzevBXK0QI4E5GiFy0eLH9YosENfQZeAnvrh7A5X9Agl6ZT66Z+mfU+Gal3gk4HGrwLrmaQl8FqE7cSoxFv4pvNEx0uqT0SOZFTyHsbVsJ3UtKoY+dsW7XacdkqZceUWbP55h1C/6aftoSTP1z935+tCZ00LKmLX1E7Fk8Nqoi2LY+85lP83b95ddVk8qS6FJ1z8X/qFYhJNNFCXgJ773SLhojapsDs0zPjupctP59CUTF3ga4ooaHJYz0GdddwkaSdGFcjdVU71SajwBYyJ3iWhF+dqRf6OpXtT4zKeu/P1oETuyi3o07xfSv30TT9dfErm7lX7pWIX17x8z9tk2FALOxlrFawCq4m2LI6K3kSOZG9ekkwWdyRgz2EFDJpriC4Bfe74ebF6peVti3eToVEX+GSg8avAeiZpCbwWSTtx+RjkSAqp+sqfYVPpaFUr8t0XCl9M6t++Xpo4kfMpvH29tN7xbzjPunjGqitruv25t1TsfE1qg/SZn/1Ehlu1sJOxVsEqsJqoyuLY50SOwO/vEHpORsXvKWDQXEP0Cuj/pnwq+3M8NS6j1+2v+kR3BGnKp17wNQUlnhzWs7invmVidmLsQ86HQqs+Cbmf0pcKMqurGPlBiVw2hfOgJgyekVJ3Q2lQLk+pn97xyp4FeUWmw07G4GhXgdVEVxavXscfPA+RxROQq3209Jmuv4pijgp7QV7Rc01fD0rkHRpmPNWkz6n9OVFNFUtnveDHYnNUY2E9RzWVpp2J2Yl958Oo3pFghYPq6ka+kMhT4zJ4UYt/hQuRU1td+1a7j4ISOT9k8/ydQjetC+pi19paBfPDaqIsi68Jo2fXYwoYNNcQHQO6xF06asDkrtc8x++Yd2jY4+vnbedPkXv4A3sCq3FiFf7eUdFO7D0bRvWBLF6r4orGnEp14bsvFHa9+qKWU+qnCwfSg+DX1nh++PzntJv7Xvw5Xj/t3Y5fHN52PKibppuqY9fUWgWTw2qiK4t7T4N6TkZF/RQwaK4hugd0VUX18T3ZR3eeLC0sI0+d7vC1hgzrWevVI5+fmJ0Y16L8+0IfUU9EFth312L/1ZVbIM7iQRe7BUWC1+M9tT/nyPbj7vMFQU0ENi2ueqqyeCCUC3pD17nUbCMQUvouQX1Aw/RSD59YdoR5DttK0k5U+lXoa1oTcQWhZxWE5UTTDupGvnAuvHOjXp0b9Qq62E1TIAomVxe7AgO0HgKribYsjj0HkeMub14LyTXqSajw31a4ZZz6gIYFQz18WM8wOSRbSdoZuKzV+Q+5O82SkSsVo3KSwPVaS8XIF1I4fy5cOEcuvmpdL5iy66qIXXZ+3SthNdGWxf1+P67Z6XU8WJfF70KOuoc/OBJQ0QCLPP+B+oCGFUU9fFjPMDkkWwnbib2nvc7UYNW7u2OfzNNLSPJAbC21Ij8ohfP2GzyRq4WdmLOiXQhWE4VZ3O/3+3zVrvOLvUXvBG4fL/0Ge09Fy5p5+1Mf0LBrqIcP6xkmh2QreTt9Pq/rwnpv0XuoqB8q+RjX7rXCsTfBp2pF/s7lv3Zo2EN6RTqfyFMbpG9ZQO7icwEdXFALO7yKjq2wmujM4tQ7FYgnK2PX4hofgGpdmmA962KS7KLk7WSR73a70R/f7ijrmrCVO5ftlb0i3X2hcNsiQo9vCmukuAP1rofVxLK4OBhoKFMf0LCTqIcP6xkmh2QreTupdz3sPivDpx47rCaWxWFpmK+V+oCGXUI9fFjPMDkkW8nbSb3rYfdZGT712GE1sSwOS8N8rdQHNOwS6uHDeobJIdlK3k7qXQ+7z8rwqccOq4llcVga5mulPqBhl1APH9YzTA7JVvJ2Uu962H1Whk89dlhNLIvD0jBfK/UBDbuEeviwnmFySLaSt5N618PuszJ86rHDajJcFsfYh31ujApjuUuEeqcCerYydnaNOhAYhJvg750gYzDGAcn73Bj7gpoi32SRr9Y16pFzbpCe1LseVpOBsjhGhahsOMpvwz8LHbkexxVTlT2qhXqnAuKxMnaWxYHAINwEf+8IxmBcgyumIdfjF1Wf3waVDcOoUOgQeYFFPsvikUeLuXrCajJKFsfeXOR8hH87+EU9Bx67logK0hQ8QNHKerYydpbFjfPdBH/v8HZiVIEK0usesJh4SfUJgS8B58PYey5aLCzyZbM4wthdWSlLpquiQrbedJXUux5WkyGyeOBwmqszciSLlJxwqZyEit+KNqqUObXG69105vSi40c3nzld61N+ZC9aa9Xtrwy7ujboOBv18GE968h80NKR2ImK3/njjrug+mTk6oQxCpoT3lTmeoTxrvO5i44fXfv7qbKaGngJI7fKwkcYv7du9cNTJuSWlgQZv+H07y1Gj1h47EhQvRk3ZbGbEUgom2E1GSOL12y9lLMFGYsLSdjnCAVPtj5ap/oQGrlrx/3jRjW1ZfJ/D4wfNXr3Tp8aD0KStVC7ymixa2eJLjNTDx/Wsy6cyy4a1k7syw+Rwi9qH9dslZ05VKUC1/905LdHpkwQVN9i9IiPf1lXUWvKl5HLwi+qqnps+uSmtsygRL7h9O9JI4c3tWW+uWJJLFcghfIF4XpZ7IRt0HQ5WE2GyOKo5P0QP8R5PSfiiulRcRSVUxHG/VYsib+UvwVJN7Vl/mfVMoRxVEvr3jkq7Lpbq7oB1MOH9aw6n4onDGsnrphRdyxdvL8uLiejkveiWj1a14/avUMsdr7czJ715OyZlR5PVEsboXMo+Pnl5UGJXEjhry9b7DHtQUcx56Gwi/uYugyryRhZvOgNUM8tUNmIqHwQlVN/PnpYKmahZvHxo1EtrXvnqLDrbq3qBlAPH9az6nwqnjCsnbjcjhwtoINwRa9FtXpUrj/szBc0HlRoZs/6ZuumqJY2QmcAvjiRzzi4n/8VTk0KZ1fDGCOLl3yg129xjHHXHyfJ/hBvastsZs96eu6PRpBo5DYAYo58EvP2pB5+2OxoEN+FtTOC3+LvR4UlKtf/d83C5vasoPwtbN4zdmSN1xvV6rp3huELiZzHSFMKZ1ncEFkc1+yAdskdSdiXH5VI4IDmp8IY4crZxec7C9INVTDX4bVIsEdFprk6Uw8/bHY0iL/C2ol9znDnxbdHhSVC1+Pq9aigx9/GfxZK73z93rzzUa2ue+ew8Of8dlCAnFNcpLvBKhoQFruKa+kyFawmY2RxjJG7a4if40moeFC0xIV1KsYIFb+FHAmOnHuFyA5VKKqqitYAHfuHxa6jbQSWph4+rGcCDEe4RCR2ouL/hkjkycjdJdqrriJxPS4fX/eDIeneMV+G0jtfv+3c2QiRGqQbDF84F86jC7rYzSAQFJsBY1c8rXEGwmoyRBb3+/3YdwE52/1R0vz94j0wkr/ZEaA4rFNxxXT+13/NhaS7Rn0N6LnVWLu5rlQPix3gjYIm6uHDejaOByOxE6NKVNBT7n7xdtgX9U/hsK4XH/PrOn1IvO17QPjnSoJvzTIOt7KWAPCFFP76ssXnS0uDLnaTnc1clQB2cwEJZS2sJqNk8UAiR8W4fCRy/v3i0XVXCq6YibGSuz5gpwZ+iDsfFY7hf7T8xeb272T13Nye9cXmX0Ixa8x6GLsxbVbRKmLwnefcUz+a/V7nL9/r/OW0j+e4cgtURAFMBesZGEi4KUI7Ma7FFTORK/WiHp1/x+V2jJQc7w3relT0qnDA78et3ZqGyOLN7Fm9fp5LmK7YlwsFX5zC+SvShXPk1PwiD4U9dlaDZigvrpg/YtlHT37zbsfPRw2YnPMboQM2sJoMlMV5vgKnq1ExRmXRHk8T0w07FXuOCCkcORJOn3qg5eivmtmCE3kze9Y9Y+3ny0rFMxu/DGM3vv0xWkgAPsZ4+tC5KfXTU+My2tdLa18vLTUuI6VB+oxP5sUStBECh/Uc4SQEukVlZ91z1MsCwo/ySS9iILDrMa4VH+qryG3RbtJH0t33+LprWnedzxXPbIqyr/aM8/R3Pl+12NrCqsp7xg6ftvmfn6ydKL6pTEjkafNmEQhasUlalGHXq7Xi+llbOjfqlVI/vX39gOo7NAzI/8tnR9TWaH5fIqwmw2VxVRiHnYprd4mzOHIk/Hq47X1jv4i3fc8fZOP/PzB+1MH86J42o4rxMU4CY49xcuMPJwB/1lcL+OQt/T/76wVaUwTrWevVI5+fvJ2w6zEqCVJ9bvb9j0/+MHArysU9+O+b2TMTRw5ffvJE5DAN0hNjj9eZ6jzRwVv4uvj4JcbeC+f+hRwJPuejGP/hyXT55eXPzp9Lx2VusOtV8dH2JXv45B2k+pQG6Z/3GKbKEsAksJosmcW92UF6Ro6EknN3Td/y1DM/DPq/yR92//GDHw4dKKfoEU5AfFDWpLWey4srOv2pZ5CShc1OjXqVF2v7bGpYz8bxJnk7Yddj7EWOu4OEX30+acmujs/PGfjY5A+7Th8yctdm8z5a3Fe12XmiqzcvCRW9xifyAOTiAXWQ78LV640TG6pbArs+9uUwxn0S3kyp+wkuiF1cOLE3O/ZVgBlgNVkxiwfuL3Q/Gfo5M0m4fAxAqMGbtA5oi8NfOHJF4JBa3YF06f+U+umLRq3UlCJYz5ouHdXk5O0MG/mo+D3hvHhQOg/UFw2ICqDROiOEXBc2ePNaBaAFEnmVRVI4gfvFD20+KhW7UNOhYcbwV8ZpGg+wmiyaxXH1KomM+ac/JqH8B7CP0JVKWjg+7HeZFosaZ06t4dten9Dhih6CgIMKHa/oYXtjoqZswHrWdOmoJidvZ1jXY8+JuqfFid+fJjzzNQnXHogKoNE68/B9VZv/eMiB8l/hvBfCuj5GZy0dtyZI6UGb/f8R3ROKorUHVpNFs3jgkvjyCXWJXPwitSSUfz+u3R8txYbqr3VAGwqs1Bit4Y8aMBnI4h2u6DF64BSpVSrWwHpWcaEYpyJvZySux9Vr6xK5WPXJyJGEq5bGiFf34QJ8XPOL8BMFV6/S3TACBgjYNVprxaR1QWk7aPOtRz/SaGl+WlhN1s3igUReu6/u2S91x6Cc/0Blw6J9eZqmnlM2udYBrcwqYqO0hr/55x1BAg7a3PzzDk3BwnrWdOmoJidvZ4Sux94cVPo5yv/fQKrLvx+VfIw9J6OCZszOPHyfr/bSgfS6wwyXzpEb02a1rIrQ9YqXyz1xIUjm4s3UuIxpH89RPHkkA2E1WTqLC/RRcK+FgEXrgBYWMmZBRfhlNTVzfjv43bbN9l3bD1y6W8Hr8abd3Ff21HhK/fT0W/r6vNq+mR7Ws3GcQt7OaF1Pk+r5c8MuV763aGDdD/G7UOmnFw+tWyCRR+t6QCa1Pt+yE8czt28ZtmPrL6dzhHdaDnr8E+HOUnEKD9xo2iDdfV7bk7CwmlgWBxxqyiYVA9qM+FWBjzAevmNb8qgR8bbMhJHD+NdmdJ01I7swoNXdq/bzN4iLxZzSIHD7+J7Vmp9bhfVsHJeRt1MV1xuHwGgt8flqnac/Dlyj7rh4LhzXbLFIIlfL9QuOHrl//KimdapPGDmsqS2z7ZTxW8+d8fv9uScuPHVdH9lEPn/4smidFW1/WE0RZXGPx7Nu3bpBgwa1bt26cePGcXFxN998c7du3ZYti8h62IJo8UTSXy2nRrKW0fpYGbtaV6t+snG99Fl+ze1Z944bebruNRK/rjv0QmL/ut3wjNQGgYc/vJjUf9/6QwSCgbyalIEib6eVIx9jr7doYOB+8byW4pvKLJLIVXH9nMOHpKqPt2U1t2fxifzssfMDHnq/fb00fpe9fb20tJv7rpyyQZlAohoFqymiLL527Vqu7nPLLbd06dIlIyOjZcuWfM0rr7wS9sAUbEFUYCLsrIpTI1zLaN2sjF2VLP5b6DdPN7dnvbxkIe9xjPGBjYd/ylryU9aSAxsPh1WBWnFCXk3KLCdvp5UjH2PsLRrqPNHFV7kuyF8XE3nJu7E8Fy9oTqNtxu760pqa5FEjpFm8qS0z3pb18JQJwqH13w+eWWBbPu/7xdsW7/Z6CL2+FlZTRFl8/fr13bt337x5s9h5c+bMadCgAcdx06dPF9dLy7AF0v6x18Tu1Nht0GsGK2NXJYsPWbsKePN0vC3zgq4P5SWvJmWRTN5Oi0e+z+dzOfYihKT+wp5jFKdwVVQ//cC+eFumbBbnKzedOS0lllgNrKaIsngoW/v27ctx3BNPPBGqA18PWwCPVdZqZT1bGbsqen58+mRAzE1tmauy9bykmbyalGmQvJ0s8t1ut2wWV+ZBE42K3fUDVy1rZs8KJfzm9mEjdm7TkRBYTTFl8VGjRnEcl5iYCMODLYDHKmuN3anK1jXCKCtjVyWLPzZtUigx8/UrTun5nG3yalIW1eTtZJHPsriyWPX7/f1XLgWyeMLIYcN2bFU8eewDYTXFlMUHDhzIcVy7du1gK2EL4LHKWq2sZytjVyWLv7liKXBEvakt8/eiQmVhqcoo8mpSZjZ5O1nksyyuLFb9fv+YPTuBLN7UlmnkfXflWdzhcDRu3JjjOLvdLuWupqam9NInNzeX47ji4mJE6uP1el0ul9frJbWggdaxMnaEUOzwd5w72yzwniuZvwR71rM/z9XX2cXFxRzHlZYa8YW5TPU6xkbska+j8TEuHTt2Z3lZoj1LVvXNbJmtx4+u8XhiNDKW4bDqFWZxr9f7xBNPcBzXqlWrWrl3fw0dOpS/iF34n5OT4yb1cTqd2dnZTqeT1IIGWsfK2N1ud+zwXS7X+0sWpY4f3X7cH/5Sx4/uNHHsjhMn9HV2Tk6OYbM4U72OsRF75OtofIxLq4J93KaNQZIXNhf9ujdGC2McDqteYRbnr2u74YYbTpyQP0fI9spj2fOKZWzsu6WxrK77WFXgV9XWvr1qeTNbZqI9K8Gexe+kt5kwemfuOd0Bwnvl0qNiJGuY6nUMD1UiX0f7Y1laFew+n8+2YxsveV71zW2Zd48e8dPhQ7HYpspYWPVKsviAAQM4jrvuuuv27dsXyXeEkc+QFbtK1s/asmLSur1rDvh82j47MxKuYu/Dzg6qdXYwp7jou22b+69cOnjtymUnjtcaIzzIq0lZTJK3M/LIr6qo3rJg5/KJ67Yu3FVTVaMMoNFGRQ7faJbHbo+K2F2VFWP27By4atnbq1fMOLi/rMYQ4QGrKeos/vbbb3Mc16RJkz179kTIPmxBhJNE1S0Sp5YWln3Tx96h4eW3TPa49eXlE9ZGtZABO0eC3YBmq2US9fDJq0mZa8jbGYnrvR7vpHd/6Hptb+HpuU82fn7qh7O1fvq9Mg6jGhUJ/KgmNFFn6rHDaoouiw8ePJjjuMaNG+/evTtyH8MWRD5P5D3DOrWsqPylFgNlH4o749N5kS9kwJ5hsRvQZhVNoh4+eTUp8w55O8O63uf1fdDta+mbbFLqp3/S/XuzH4oLC1+ZH00xinrssJqiyOJDhgxRkML9fj9sgRZREtapI9+cJJvC+T30U/tztLCKzJxhsZMxQ69VqIdPXk3KXEnezrCuXz5hrfATXFpYM32jMqQGGRUWvkHs1MIM6rHDaoo0i3/wwQf8gfSofoXzDoMtIO/UyrKqLlc/J5UxX9OhYcawl8dqYRWZOakPaJhG6uGTVxNMeKhW8nbCrscY9235lvSHOK/6lAbpb7T+bygspqiH4ZsCgmIjqccOqymiLL548WL+hrHWrVu/IPm88847MPuwBfBYZa2wU/etPxQqhfP1vW5/Vdm6RhgFYzeChZraQD188mpS5i/ydsKuLy0og1Xfvl5aVUW1MrBGGAXDN4KF2tlAPXZYTRFl8alTpwq3fUsLd9xxB+we2AJ4rLJW2Km7V+6D9Zx+S19l6xphFIzdCBZqagP18MmrSZm/yNsJu74grwhWfft6aaWFZcrAGmEUDN8IFmpnA/XYYTVFlMVjZB+2IMbJxcMxrsU4cGMA7NTzp/IAPac2SP/Pox+JpzVXGcZuLiwKrKUePjE1KSBfPISYnRh7Ma7CGMOu93q83USXpku/Af553QumfpUIDF/sGvrK1GOH1URDFsfYgyt/Qu5uyJEQ+HM95iub7HIGHtARKl7fevSj1AbpUiXzNet//MM7WENNYsx66gMapp16+LCeYXJItmptJ8YYV69HhS8gR2JA9fltvCWZrvwTgOpHD5yS2jBDVvWpcRkTh8wkyY/qa1Ef+QBj1GOH1WT6LI5xFSrsXZe/68Rcl8i9ecnOUy/6PM5Qjj+46UhqXIb0UpcODTNevudtT60n1EDj11Mf0LALqIcP6xkmh2SrpnYGfnmXfFyn+uS6/4Hdd29eC+eJ7r6aw6FgOs+6nrquj/TmlNS4jGdufMl9viDUQFPUUx/5gBeoxw6ryfRZHBUPQY4kQcl8wZuX5DzR2etOwxiH8v3Whbs6N+qVcukXOa/t1x4YXJRfHGqIKeqpD2jYC9TDh/UMk0OyVVM7ccW0IMnXZfEk54lOXseDGJWHQnpqX07azX3b10vjhc//z/jryzmHzoQaYpZ66iMfcAT12GE1mTuLY59TmsIv6bmDNy8J1/4K+L60oGze94v/88iHr94/aOjT3+1cttfsT34Ie00AwAYdTRbXs3GcCH/vxGInxl7kfChEFq9TfeUsYP7qypqVUzb8N+XTV+57Z0iHz9dM31hbXQv0N0sT9ZEPOIJ67LCaTJ7FK6ZfPCvGnxG/9L/ut3gHb95dqHQo4Hsqm6gPaNhr1MOH9QyTQ7JVOztxzU5pChftuyejgnSSSA2yFvWRD/BMPXZYTebO4qhsGHK0kEr6UhZPRkX9Ad9T2UR9QMNeox4+rGeYHJKt2tmJq1dIJS/K4knI+X8kkRpkLeojH+CZeuywmsydxXHFJPCI+l2o5APA91Q20R3QPp8v+8DpI9uPu3Llr0WiG74uzzNWJhP4e0fZnPwoXLM1TBZ3/zOW+U06luLIxxifPXb+8LbjuSfzZC91ohg7H42wmkyexb3nwCPqSbhmq0k1qdhsWgPaU+uZ/fWCHre+LNwp9N+UTw9uOhJEFK3wBZiwnoVuuhe0sxPjWpTfWprIhSNwuGKS7vDJG0Bl5GOMV0/7pe/d/xFU/+p972yYHfytTiV2cQjBajJ3Fg9czFX0OnJcvtuE1/bFa9SdHTEOecu4mCOaylQGtKfWMyT1M+GGAl7SgXsFG6QHSZpK+OL4hPUs7qlvWVM7cblduvtep/pOXsf9GBXpi12X1emLfIzxmLemBm4oqH/52R78l8DUj2aLSaYPuxhd2CNwps/iGJUgd9eg4+revLucJzN8taeDuLDCJpUBPe3jOUEpXNg373BFj/wzLsGzVMIX0IXVs7invmVtszj21u2+J4pzeUD1J7r5qrbrC1yv1emL/M3zdwoylxb2rD4gUE0fdgEaX4DVZPos7vf7MarA5aOR8x8XD7Ll3+8t/saVfwp4ilMQRzRt0hfQtTWep294USpjviY1LmPy+z8KHqQPvgCNL8B6Duqs46bWdmLsw5WzkavDpUPrd3mLhrjyD1hT9VTeYjrw4Q+kj+gRVP9e5y+F8La46mnI4rwvA6r2XcDec4HTZgi53W5r6pk+7Ac3HQmVwvn6FxIv34lAH3zhq4ovaJ0dg5ZTvEnGzsBzWH352HsWo0rqXQ/7gjL4ZUXlsOpT6qfV1lx8yCZl2KWOhtVETxYXI6feqWKwQWX6sO9YuhfWs/gddPTBD/IvrOegzjpukreTetfD3qQMvvOcG1Z9+3ppZUUXH9JHGXapo2E1sSwuZczcNSYK6MCxk8qfceUPuGYTxt5QvJ/alwPoOaV+2uut/yuMNRF8weaoCrCeo5pK087k7aTe9bC/zAIfoxJctRhXzMTVKzGuCgWqurKmQ8MegPA7X/Ws8KhNs2APBTZsPawmlsXDEmiyDqYIaOzLR0Wvii9NQs6HcOU8Wa4xxv+6a2BK/TR5SddPWzJmlTDQFPAFaxUUYD0rmFCjIeTtpN71sKeMDz/w5qrAO2zurruUgX8T3X2obATGPlloXz03okOId9B1aJgx4rXxwijjYxdMVVaA1cSyuDJWjTvK+AEdePq98xHp/YHIkYDLLytTTPGG2VtlU3hqXEbGX1+uLLu8R298+GJcCsqwnhVMqNEQ8nZS73rYUwaHj3ENKugRdDPRxXRe/LbsLcGn9ud0aNijvWT3PaV+eqc/9Tx77LxAiMGxC3YqLsBqYllcMbEGHWj8gEbFb8umcF7S2Jsjy+zsbxa2r5cm3jdPaZCefkvfM0fOifsbH77YWgVlWM8KJtRoCHk7qXc97CmDw8cVE/9w7O3SOy/4Wwxw9eXDaWKYWxfu6nhFD/GV6qlxGZ0a9dq9cp+4m8Gxi01VVobVxLK4MlaNO8rgAY19BaFTeEKgqfTyDSRBLB/fk/3di6P+ef0LnRv1eiHhzXnfLxYubxF6Ghy+YKfiAqxnxdOqPuv0GjwAAB7JSURBVJC8ndS7HvaRkeFjjOoOvwVeAy/3l4QKnguF7kK2Y9w709Nv+XenRr16/PXlSe/+IH4+BD/KyNhD4YqqHlYTy+JRkWmCzgYPaFy9Rk7GIm27O8fCssHhxwKNHwvrOfb51ZqBvJ3Uux52jZHh48CjskUalyknyh5UhyELrUbGLhgZSwFWE8visXBrxLEGD2hctTyMnl3tY6HV4PBjgcaPhfUc+/xqzUDeTupdD7vGyPCx9/cwqnckYHzx5m8YpmyrkbHLGhxtJawmlsWj5dPo/Q0e0NhzFNRzMip6NRaKDQ4/Fmj8WFjPsc+v1gzk7aTe9bBrjAw/8Eyei5emh/hF7nwURge3Ghk7bHmErbCaWBaPkEbTdDN+QCP3U9B1LjUbY+Ha+PBjQceeow6wR73rAezGfwIrKnk/9AUxiaFuToEhC63Uu55lccHXligYP6Dr3g/9h/dYXPp1nowKesVyesz432WxhyCs59jnV2sG8nYaP/LV4lZ2HoPDx94zKP8+uTvNkpHzUYyKZUFFWGlw7BGiALrBamK/xQHqTNlkioDG1SvqjrDVPfkhcKlL3btlC3pjVBoj6aaAHwtGWM+xzKzuWPJ2Uu962EHGh489B1H+3+p22ZMu/3e1x96zMLSwrcbHHhYC3AFWE8viMHvmazVLQGNUhCsmocI+qCAdFQ/CtbsxxlK6y2trZxzc/+TsmX+fNC515lTbzu3OiosPT5Z2Zr/FZTnRpRL+3tHCJLNEvhbYzRL5GFfjyvmo8N+oIA0VvYGrV8s+ernW51t64liv+XP/MXlcu2kTP924PruwAOCNetfDamJZHIgNUzbRFNBH3a7WE8bE2zLjbZlN6/6a2bOSRg1f93t2KN/QBF8WI6xn2SG6VJK3k3rXw36kBr6rsqLTj9Ob2jKb2bN41Te3Z8XbMif+uicUA9RgDwUQVhPL4qF4M2s9NQHtrqz83/Gjm19SMq/npnUZPWHksIP5DlkPUQNfFh27ui0ULWb5MQrYH2MTHZHvQ6jLrOlS1fPyX3jsqCxLdGCXhcZXsiwOkENhEzUBbd+1XdgZF1K4sG/+2rJFss6jBr4sOpbFQ9HCsjgdkb/291NBYhdvPjJ1ApI770YHdiC2WRYHyKGwiZqA/sfkcWIBB5Wb2bOKqi6/BEVwJDXwBURBBVjPQZ113CRvJ/Wuh71JB/x/L1kQ6oc4/w2w63yulAc6sEtxCTWwmtgRdYEoSgp0BDTGWDgXHpS/hc2jLqfUZ3TAl+ISamA9C910L5C3k3rXwz6lA37KzCmCwGULC44ekfJAB3YpLqEGVhPL4gJRlBSoCejkUcNlZSxU5hQXSX1GDXwpNL4G1nOoUeTrydtJvethJ9IB/6k5MwWByxaWnzwh5YEO7FJcQg2sJpbFBaIoKVAT0K8tWxTq2Fq8LZOdITN4vMLfO1oYT03kKyOHDvjA1TBNbZmJI4ex82jS8GBZXMqJuWvoELPf79+Re052Z5y/TH3K/l9l/UQNfFl07Oq2ULSwq9voiHxnRXnCyGGywm9uzxq8ZqVsANCBXRYaXwnvE7MsDlBnyiaaAvr7bVukeo63ZfZdvMCLkKx7aIIvCxDWs+wQXSrJ20m962E/UgN/0fGj8bbMZpceEcF/AzS3Z7WfMaWkulqWBGqwy6ILu+/Osngo3sxaT1NAY4znHj706NSJQi5/YPyoETu3eXy+UO6hCb4sRvLZUdaMsJXk7aTe9TDnNMHffOb0U3N+EFTfYvSIDzesLa2RT+FWOAwDq4llcVga5mulScw8+xjj/Y681dknd+Seqw2dv/nO9MEPCkFYz0Gdddwkbyf1roe9SR/8EwXutb+f2nzmdFlNjdWwB+GF1cSyeBBdpt+kT8xRuYR6+LCeo+JK087k7aTe9bC/rAyfeuywmlgWh6VhvlbqAxp2CfXwYT3D5JBsJW8n9a6H3Wdl+NRjh9XEsjgsDfO1Uh/QsEuohw/rGSaHZCt5O6l3Pew+K8OnHjusJpbFYWmYr5X6gIZdQj18WM8wOSRbydtJveth91kZPvXYYTWxLA5Lw3yt1Ac07BLq4cN6hskh2UreTupdD7vPyvCpxw6riWVxWBrma6U+oGGXRAIf+9y4fAxyP4VcT6DC53HVEoxr4WmN0wrr2cp2RuJ64/CjuiVWhh8JdozKceUsVNAjoPqCNFwxHaMy1b2g0YSw6lkW14h23aaNJKB1M077hcPCx9WrkeNu5EhCjoS6v7qC6wnslXlXkvb2Rr0CrOeop9NsAHk7w7peM6yGmNjK8MNix57DKP9vdXpPvPQ/EeU/gGvlHwFpCI+KjIDVxLK4iCoqimEDmgqUIUHA8HHtnrr8zSuZz+L8/2TkegyjipDzGqYB1rNhzPSTtxN2vXGY0cgSK8OHsWOfA+U/INpxF4SfhPLvwd4zGnlExWlhNUWXxefNm9euXbsmTZpcddVV99xzz7fffuvxeMLaClsQdriCDrBTFUxooiFWxh72KU6o8AU5MV9UNa6cZXxHk1eTMk7I28ki3+12oxBPJlbmRLOMgl2Pyr5FjuRLx96EFH5p973kY+PDhNUURRYfOHAgx3FxcXGpqanPPPNMkyZNOI57+OGHq6qqYBZgC+Cxylphpyqb0yyjrIwdzuLYdyGEknk9JyJ3N+N7mbyalHFC3k4W+SyLS2MVY1T3QzwoeYs3W2Ic5tlw0mkJ18BqijSLL1y4kOO4a6655tdfL55IcLvdrVq14jjunXfegSHBFsBjlbVaWc9Wxh4mi9fuBrN4Asq/T1m8kRxFXk3K0JG3k0U+y+LSWMWoNIzqHQnYlycdaKgaWE2RZvE2bdpwHPfFF1+IsW3ZsoXjuCuvvLKkpERcH1SGLQjqrMqmlfVsZezhsviBMHrO/5sq4afpJOTVpAwOeTtZ5LMsLo1VjGvCqN6RgFGhdKChamA1RZTFz58/z9V9cnJygrDddtttHMfNmgWdUIQtCJpQlU0r69nK2MNkcVyL8luHlnQyKh6iSvhpOgl5NSmDQ95OFvksi8vGauDussv3pIiPpScgRyJyd8EYyw40TiWspoiy+NKlSzmOu/7666Wonn76aY7jBg8eLG0SamALhG4qFqysZytjh7N4oLVsWGg9J2DPIRWDUKOpyKtJGRDydrLIZ1lcNlZx9YrQ++4JuPIn2VGGqoTVFFEWt9vtHMfdd5/MWcMBAwZwHJeWlgZghi0ABipusrKerYw9bBbHuAoVpMkmclw+UnG8kRxIXk3K0JG3k0U+y+KysYoxRsX/lUvkiajoTYyR7ChDVcJqiiiLf/nllxzHtW3bVgrs/fff5zguNTU1qKmmpqb00ic3N5fjuOLiYkTq4/V6XS6X1+sltaCB1rEydoRQWPg+X4W3+Atv3r3evKSLf/n/5yv/2UAuBE0pLi7mOK60tDRIcUbYZKoHXadtY9jI13Z5XWcPi93n8/pKJ3jz/35Z9Y42vtKRPl+troZHujiseq2y+NChQ/lT6cL/nJwcN6mP0+nMzs52Op2kFjTQOlbG7na7I4Tvcp5zXVjjOr/ElbfF5TJTnOTk5Bg2izPV6/hFEGHk62ihdktHiN3lcrgubAio/sJ6lytPO3tUnxlWfURZXMERdbZXHuleltr9wu6Wqr2gseajHj68V67vL3Kmeh3FQH3kA9xSjx1WfURZfMmSJRzH3XDDDdLvCP7qtkGDBkmbhBr4mL7QTcWClc+QWRl72PPiKsaYXlORV5MypOTtZJHPzosri1Xjj4LVFFEW509scxzH7jQzvr/Zdxnd32Wwno0Tn+TtZJFPd+QDsU2962E1RZTF/X4/e+oLEEOGaqI+oGG2qYcP6xkmh2QreTupdz3sPivDpx47rKZIs7j0CawFBQXsCaywrnRppT6gYVaphw/rGSaHZCt5O6l3Pew+K8OnHjuspkizuN/v528Nb9iwYceOHbt3786/DaVt27bsbSiwugi3Uh/QMJ/Uw4f1DJNDspW8ndS7HnafleFTjx1WUxRZ3O/3z50799FHH/3zn//cqFGjli1bfvPNN7W1tXBs+f3sTcNhGVKzA/UBDZNFPXxYzzA5JFvJ20m962H3WRk+9dhhNUWXxeEwCtUKWxBqVCz11DsVIMfK2Nk16kBgEG5iqidMuJWFTz12WE0sixPWmubLUR/QMIPUw4f1DJNDspW8ndS7HnafleFTjx1WE8visDTM10p9QMMuoR4+rGeYHJKt5O2k3vWw+6wMn3rssJpYFoelYb5W6gMadonp4GPswVWLUUE6ctwd+CvoiauWYewNBRPWc6hR5OvJ22k616vrFCvDNx12jDGu2YQKX0aOVshxF3J1xpU/YFQRKiRgNbEsHoo3s9abLqDVJdpc8DEqRwW96t62lHTpnUt1hcIXMK6SZQbWs+wQXSrJ22ku16vuFCvDNxd2jBEqeb9O78mXVJ8YeNO5KwX7HLKBAauJZXFZ0kxcaa6AVp1oc8FHRf1kX5MaqCyWf6oxrGfV+VQ8IXk7zeV6xcSGGmhl+ObCjstHX0reCX8sJCN3V9k3pcJqYlk8lCjMWm+ugFadZRPBx97f/6jhIEknYt8FKT+wnqX99aohb6eJXK+FU6wM30TYMa5G+fcDwsc1m6ThAauJZXEpY+auMVFAa0G0ieCjsuHIIRxSC0rhCciRhMvHSSmC9Sztr1cNeTtN5HotnGJl+CbCjqtXAik88IVQ/JY0PGA1sSwuZczcNSYKaC2INhF8VPIecrQILekWqPQzKUWwnqX99aohb6eJXK+FU6wM30TYccX0ECfRLu3HF/SUhgesJpbFpYyZu8ZEAa0F0SaCj0q/BH+LJ6OyYVKKYD1L++tVQ95OE7leC6dYGb6JsOPK+aF33BMC17gVviIND1hNLItLGTN3jYkCWguiTQQf1+4G9ZyAPb9JKYL1LO2vVw15O03kei2cYmX4JsKOfQXgvnsCrvxJGh6wmlgWlzJm7hoTBbQWRJsIPsYYubuEkHQyKuguyw+sZ9khulSSt9NErtfCI1aGby7sqHhwCNUnofzWsreYwmpiWVwLQek5p7kCWnWmzAUfe88g598lkk5GzrbYd16WHFjPskN0qSRvp7lcr7pTrAzfXNgxKkPubpKz48nI0QrX7pUNDFhNLIvLkmbiSnMFtOpEmw4+9jlQycfI0fLi0fX8e1Dpp9jnCsUMrOdQo8jXk7fTdK5X1ylWhm867BhVBG5RyW9z6ZxaMir+D/acDBUSsJpYFg/Fm1nrTRfQ6hJtUvgYlWPPYew5glElTAisZ3gsyVbydprU9Wo5xcrwTYod41rsOYY9hzAqgsMAVhPL4jB75ms1aUCrRTT18GE9q0Vj7POQt5N618NOsTJ86rHDamJZHJaG+VqpD2jYJdTDh/UMk0Oylbyd1Lsedp+V4VOPHVYTy+KwNMzXSn1Awy6hHj6sZ5gckq3k7aTe9bD7rAyfeuywmlgWh6VhvlbqAxp2CfXwYT3D5JBsJW8n9a6H3Wdl+NRjh9XEsjgsDfO1kg/oA468wWtWdvxhWucfp3+0Ye3xAreOrJGHTxgsrGfCxgDLkbeTetcDbPv9fsLwc4qLvtj8S5dZMzr8MHXAymW7zudijGELtWsljF07IKFmhtXEsngo3sxaTzKgPT7f26uWN7VlNrdnNbVlCoUvN/+il6RJwtclRGA962KS7KLk7aTe9bI8C5Uk4Y/avTNeovq+ixdUeTyCPSQLJLGTxCWsBauJZXGBKEoKJAP6g/Vr4uuSN5/Cxf/tu7brQihJ+LoAhPWsi0myi5K3k3rXy/IsVBKDP/PgfrHShXIze9aryxYJ9pAsEMNOEpR4LVhNLIuLuaKhTCygc0tLQqXwprbM5FEjympqyBNKDD55aPyKsJ71skq6Lnk7qXe9lGRxDRn4tT7fA+NHCZlbWjjszBdbRaZMBjsZLLKrwGpiWVyWNBNXEgvo4Tu2CQfSpWKOt2XO+u0geR6JwScPjV8R1rNeVknXJW8n9a6XkiyuIQN/VfZJqdiFmub2rI82rBVbRaZMBjsZLLKrwGpiWVyWNBNXEgvot1YtB7J44shhX2/dRJ5HYvDJQ+NXhPWsl1XSdcnbSb3rpSSLa8jAH793N6D6prbMPgtlXskltlOLMhnsWlge4ZywmlgWj5BG03QjFtBD1q5KGDlM2A0PKjS3Zw3bsZU8a8Tgk4fGrwjrWS+rpOuSt5N610tJFteQgT/twK/AebR4W+bLSxaKrSJTJoOdDBbZVWA1sSwuS5qJK4kF9NITx4Iyd9DmrvO55HkkBp88NH5FWM96WSVdl7yd1LteSrK4hgz8U4UFQTIXb8bbMqcf2Ce2ikyZDHYyWGRXgdXEsrgsaSauJBbQtT7f/04Y3ezSPWZiMTe3Z6XMnKrLzWbE4OsVIrCe9bJKui55O6l3vZRkcQ0x+D1/niN7UD3elnnXaHZNq9gnqpVhNbEsrhrRBpmImJj9fv/2c2cTRw4LSuTN7Vl3j7EddTl1IYQkfF0AwnrWxSTZRcnbSb3rZXkWKonBP1Nc/MD4UUGJPN6W2cyetSo75Ls1BTu1KBDDroXxkcwJq4ll8Ug4NFMfwgG9L+/CM3N/FP8Q771g3gn9Ht9GGD75yID1TN6eUCuSt5N614eimq8nCf9cScm/lywQnyDv/OP0LWfPwBZq10oSu3YogJlhNbEsDlBnyiZdAvp4gXvhsaOLjx89XRzmRblac6oLfK1BieeH9SzuqW+ZvJ3Uux52KHn458tKl5w4tvDYkd/0uEdczAZ57OLVCZRhNbEsTsAFRJegPqBhNqmHD+sZJodkK3k7qXc97D4rw6ceO6wmlsVhaZivlfqAhl1CPXxYzzA5JFvJ20m962H3WRk+9dhhNbEsDkvDfK3UBzTsEurhw3qGySHZSt5O6l0Pu8/K8KnHDquJRBYvKSnhOC43N7eU1Ke4uDgnJ6e4uJjUggZax8rYS0tLqYefm5vLcVxJSQn8na57K1M94S8F6iMf4JN67LDqSWRx3gKOfRgDjAGVGMjN1eGJOlHtGTDVq+RqNg1j4CIDoVRPIosjhHJzc0tKSoCdKXWb+G8Qkr/+1bU/ltmsjL20tJR6+CUlJbm5uQihqHIq+c5M9bGoWMFY6iMf4IR67LDqSWRx8t8g8FkE8vaQXNHK2P1+v8Xhk4w0o61lcddbGb6Vsfv9fpbFjfZdFKs9Fg9oi8OPNXrMPN7irrcyfCtjZ1nczF9aIWy3eEBbHH6IoLBEtcVdb2X4VsZObRavqakZOnRoTU2NJb69/gjSytj9fr/F4f8xFqy1ZXHXWxm+lbFTm8Wt9e3F0DIGGAOMAcaAVRmg87y4Vb3JcDMGGAOMAcaAtRhgWdxa/mZoGQOMAcYAY4AmBlgWp8mbDAtjgDHAGGAMWIsBlsWt5W+GljHAGGAMMAZoYsD0WdzpdE6fPr1Xr17Nmze/8sorGzVqlJSU1L9//9OnT0fopzvuuEP2EX8PPvhghDMQ6zZv3rx27do1adLkqquuuueee7799luPxxPh6nv37k1LS/uf//mfK6+88s4773zzzTedTmeEY/Xt5vF41q1bN2jQoNatWzdu3DguLu7mm2/u1q3bsmXLIjFs6NChsv7lOO7YsWORzMD6GI0BpvoIPcJUL9U+fao3fRZ/7rnnOI6rX7/+Pffck56e3rlz55tuuonjuKuvvnrNmjWRxDqfxbt37/7CHz+fffZZJMOJ9Rk4cCDHcXFxcampqc8880yTJk04jnv44YerqqrC2vDTTz/FxcVxHNemTZuMjIz4+HiO426++eZTp06FHat7h7Vr1/JSvOWWW7p06ZKRkdGyZUu+5pVXXsEYwxbyWfzee+/9o3sDW3l5efBY1mpMBpjqmerhyLSU6k2fxfv37//pp5+eP39ecGp5eXnPnj05jrv++uuLioqE+lAFPotH/ts91Dya1i9cuJDjuGuuuebXX3/lF3K73a1ateI47p133oGXvnDhwlVXXcVx3Pjx4/mePp+vd+/efFIPmwXhyQm0rl+/vnv37ps3bxavNWfOnAYNGnAcN336dHG9tMzreejQodImVmNSBpjqmerh0LWU6k2fxWV9WVlZee2113IcN3PmTNkO4kpTZPE2bdpwHPfFF1+ILd+yZQvHcVdeeSX8nsrBgwdzHNe+fXvx2PLy8saNG3Mct2rVKnG9icp9+/blOO6JJ56AbbaUnmEq6G5lqhf7l6me4ziL7LvTmcX9fn/r1q05jvvqq6/EkS1bNn4WP3/+PH8AOScnJwjCbbfdxnHcrFmzgurFm82bN+c4bsqUKeJKv9///PPPcxz3yiuvBNWbZXPUqFEcxyUmJsIGsywO80NTK1O94E2mepbFhWAwZcHj8dx4440cx02dOjUsAD6Lf/zxx2+++eZrr7322Wefbdq0Kewokh2WLl3KnyCQLvr0009zHDd48GBpE19TVlbG7wEcOnQoqI/NZuMPqgfVm2WTv1CgXbt2sMF8Fu/WrduQIUNefvnlQYMG/fjjj2VlZfAo1mo6BpjqBZcx1VtK9XT+Fh87dizHcY0aNcrPzxciO1SBz+J8qhP+t2nTxjhXftntdo7j7rvvPimEAQMGcByXlpYmbeJrDh06xIOSHnVfsGABx3E33nhjqLFGrnc4HPwZAbvdDtvJ61nwLF9o3Lhx2BPq8LSs1WgMMNULHmGqt5TqKczihw4duuaaayI8nO73+994441Zs2ZlZ2dXV1efPn16xowZt99+O8dxt956q0Huxfryyy85jmvbtq2gUqHw/vvvcxyXmpoq1AQVtm3bxuctr9cb1LRmzRqO46644oqgeuNver3eJ554guO4Vq1a1dbWwgbPmDHjq6++2r9/f1HdZ+vWrV27duU5+eGHH+CxrNUsDDDViz3FVG8p1Rsriw8ePDgpss+WLVvEUSuUc3Nz+d/WTz75pOKrrwsLC++8806O4wYOHCjMrGOBZfEg8vnr2m644YYTJ04ENUW42b9/f47jbrrpprA7ARFOyLopZoCpXpY6pvogWpjqgwgRNo2VxfnbQIMOfspurly5UsAgFBwOR2JiIsdxHTp0iPG1pCNGjOA4Lj4+XphcxwI7oi4mnz+JcN111+3bt09cH1W5sLCQv1Et6Aa2qCZhnVVhgKlelkamejEtTPViNoLKxsriQcZFtel0Olu0aMHfUlVdXR3VWGnn1atXG+do85IlSziOu+GGG6R28le3DRo0SNrE15SWlvK7QaGubmvdunWosQasf/vttzmOa9KkyZ49e2I07y9/+UvYy/tjXIIN15oBpnpZhpnqZWnx+/1Uqp6SLO5yue6++27+7uFInmoUysdC/axZs0IlTqEPsUJubi6fiS1+pxl/C2zjxo13794dI/k+n49/Es7SpUtjnIoN14sBpnqAeWruNGOqB7zMN9GQxd1uN/9IzieeeEKVFO73+5988kmO4zp16hSWQTIdtHjqC/8MV7M89WXIkCEcx6mSwv1+P399fr169RwOBxkPslXUZYCpXnrXiZjhUE99YaqnT/Wmz+KFhYX33HMPfyA9bAp//PHHk5KSFixYIIT7okWL9u7dK2z6/f6ysjL+RmSO49auXStu0rEsfQJrQUGB9AmsCxYsSEpKevzxx8WmCk9gnTBhAl/v8/n4R760adNG8TWA4iW0Ln/wwQf8gXT4V/jIkSOTkpKef/55wZ6zZ8/OnDkz6AzLwoULr7/+eo7jevfuLfRkBRMxwFQvfgIrU73FVW/6LM6fGK5Xr15GRob0dRcLFy4Ufzfxl6+LHwXDJ+zbb7+9S5cuzz333GOPPXbdddfxLx0ZMWKEeKzuZf76joYNG3bs2LF79+78PnXbtm3F+y5Tp07lOO6OO+4IsnbevHn8xVwPPvhgjx49zPU2lMWLF/MnFFq3bi11sfjrjL9JVPwcmP379/PPn3/kkUd69uz51FNPJSQk8LM99thj5eXlQUSxTVMwwFTPVC8EKlO96bN4u3bt+C9l2f9Bz9GVZvFffvmlb9++999//80339ywYcOrr766RYsWr732mvRaMCFodCzMnTv30Ucf/fOf/9yoUaOWLVt+8803QTdKhcrifr9/7969zzzzzE033XTFFVfccccd/fr1i+SRODqCFZbmQcn6N2iXRarngoKCIUOGPP7447fffvvVV1/dsGHDv/zlL127dp01axZCSFiCFczFAFO92F9M9RzHiffdraZ602dxcTSzMmOAMcAYYAwwBizFAMvilnI3A8sYYAwwBhgDVDHAsjhV7mRgGAOMAcYAY8BSDLAsbil3M7CMAcYAY4AxQBUDLItT5U4GhjHAGGAMMAYsxQDL4pZyNwPLGGAMMAYYA1QxwLI4Ve5kYBgDjAHGAGPAUgywLG4pdzOwjAHGAGOAMUAVAyyLU+VOBoYxwBhgDDAGLMUAy+KWcjcDyxhgDDAGGANUMcCyOFXuZGAYA4wBxgBjwFIMsCxuKXczsIwBxgBjgDFAFQMsi1PlTgaGMcAYYAwwBizFwP8HH47hUwxN3IYAAAAASUVORK5CYII=;clipPath=inset(0% 48.33% 0% 0%);" vertex="1" parent="1">
          <mxGeometry x="440" y="400" width="108.13" height="90" as="geometry" />
        </mxCell>
        <mxCell id="uyvEmPoRV89XPVumFd5U-28" value="" style="shape=image;verticalLabelPosition=bottom;labelBackgroundColor=default;verticalAlign=top;aspect=fixed;imageAspect=0;image=data:image/png,iVBORw0KGgoAAAANSUhEUgAAAWEAAAEdCAIAAABSfUE6AAAAAXNSR0IArs4c6QAAIABJREFUeAHtnX1wFdX5xx80kfKiCW8FSyEvItQWqM6EOiNqRoIUC9hCEHB87VADUwVmhMwlOm2sGtT+81N0pq1/lJLUDNAZKMllWgTHVhA6SYQZ+MNhhBvoxcabEO8NDBDuJe5vyIF17+65Z8/efTu757nD6Nlnz+455/M8zzdnd8/dCwp+kAASQAK5CUDuXbgHCSABJKCgRmAQIAEkwCKAGsGig/uQABJAjcAYQAJIgEUANYJFB/chASSAGoExgASQAIsAagSLDu5DAkgANQJjAAkgARYB1AgWHdyHBJCANY24cuXKO++8M3v27FGjRg0dOnTixInz58/ftm0bckQCSCCsBCxoRDwe/+EPfwgAY8eOXbhw4fLly++7777hw4dXV1eHlQ6OCwkgAV6NuHTp0g9+8AMAeOWVV9LptAru4sWLR48eVTexgASQQMgI8GrEb37zGwCoqanJY/wDAwPxeDyVSvXhBwkgAfEIpFKpeDw+MDBAzW4ujUin02PHjgWAL774gnoWtjEejwN+kAASEJtAPB6nJjKXRvznP/8BgO9973uKohw7duyVV16pqamJRCLRaDSX9mgbS6VSABCPx70X0GQyGYvFksmk900L3iKSoTpITizkr3gqldKmrVrm0oj3338fAH7yk59EIpEhQ4Zo1fCee+45c+aMejq10N/fr/qA9CCZTA54/slkMt3d3ZlMxvOWRW8QyVA9JCeWZDIJAH19fWr+agtcGvHGG28AQGFhIQA8//zzJ06c6Ovr27dv39SpUwFg+vTp2ruY5Oz19fVaKQGAWCzW4/knkUicPHkykUh43rLoDSIZqofkxBKLxexqxKZNm0jCP/7441qBOXPmzHe+8x0AaGxs1NoVRcF5BPXPlDhGOf9gmvKXE4sD84h3332XaMS//vUvnRZUV1cDwNNPP62zazf7+voYKqWt6Xh5YGCgp6eH56aJ400LfkIfyVxOX+0+3385fVVARD5i8ZEGO0O5rjX27NlDNOK///2vbiS1tbUA8PDDD+vs2k12D7Q1HS/L6XIejL6QaevsrWlsL9sYLYlEyzZGaxrb2zt7eXrrWR1fsHg2ulwNsTOUSyO6urrIrcojR47omvnlL38JAIsXL9bZtZvsHmhrOl6W0+U8GL0n03j4dGkkWl63pyRyTSNKBsulkWjT4dM8HfamjvdYvBkXuxV2hnJphKIoDzzwAAD8/ve/1zaWTqfLy8sB4I033tDadWV2D3SVnd2U0+U8DD0m09bZW3pDGlSNIIXSSFSc2YTHWHg85UEddobyasT+/fsBYNSoUYcPHyadzmQya9asAYBbb731q6++YoyE3QPGgfZ3yelyHm4ek6lpbNfOILQyUV63Z1VTB0+fPajjMRYPRsTTBDtDeTVCUZTXXnsNAAoKCu67774lS5aUlpYCwLBhw6LRKLsf7B6wj7W5V06X80Dzkszl9FVyD0IrDdpy2caoILcwvcTC4yZv6rAz1IJGKIqyd+/eRx55ZPTo0YWFhZMmTXr22Wc///xz02Gwe2B6uJ0Kcrqch5iXZLrP92sVgVruPt/P022363iJxe2x8J+fnaHWNIK/VW1Ndg+0NR0vy+lyHoxeksF5BI9HfKzDzlDUCB9d42fTXmqEoih4P8JPZ5u1jRqBa6goMeKxRuBzDYoPhDGhRqBGUILRY41QFKUJ10dQ/CCECTUCNYISiN5rhKIo7Z29q5o61HWWq5o6xFkZQRj5goXiHm9NqBGoEZSI8zEZ8PsaFH/4akKNQI2gBKCPGkHpjTAmObGgRqBGUFJQzmSggMg2yYkFNQI1IjsPBrfkTAYKiGyTnFhQI1AjsvMANYLC47oJNcLIBtdQGZlIYZEzGUxdKycWnEfgPIKSGnImAwVEtklOLKgRqBHZeTC4JWcyUEBkm+TEghqBGpGdB6gRFB7XTagRRjZ4P8LIRAqLnMlg6lo5seA8AucRlNSQMxkoILJNcmJBjUCNyM6DwS05k4ECItskJxbUCC80QuTvIGRnwfUtOZOBikJrlBMLaoS7GiH+b0Zoc0Aty5kM6vBzFeTEghrhokYE4jcjqPkgZzJQUWiNcmIJkkY4PmN31eVBebeSNgfUsqtk1FYCV5ATSzA0wqUZu6suD8o7GqmJ6ioZaouBMMqJJQAa4d6M3T2XB+hdz9TkdI8MtbmgGOXEIrpGuDpjd8/lAfrNCGp+ukeG2lxQjHJiEV0jXJ2xu+dynEcEJe0t9dO9gLHUDY8rC60Rbmeaqy53Vd3cjhJXySiK4vjtZ7eBkPO7jcWbUVhtRWiNcHvG7qrLXb1Ksupmq/XdI+PS7WerA8yvvntY8uuPN0cJrRGBnkcE5TcjqHHmUjI4dfvZr2mIS1ioLhDHKLRGuP0rbx64XPzfjKDGohtkHJlY+TsNcQMLlb9QRtE1wpHAykXcM5f79Xcv18BN7W6QsX+DxqlpiOnwc1VwA0uutsSxi64Rrs7Y5XQ5T/A5Tsb+ZaOrfy14mCiK4jgWznb9rRYAjXDvV97kdDlPwDlOxv7tZ/vTEJ6Bs+s4joXdnCB7g6ERBJbjM3Y5Xc4TeY6TsTmPsHk4z5B56jiOhadR3+sESSMchyWny3kwukHGzkTA/jSEZ9SmddzAYtqo7xVQI1z8brjv3s27A24kg50bClbnEY5POQlJN7Dk7SPPDkSNQI2gBJtLydB0+HRpJFpet6ckEiX/yuv2lEaiTYdPUzqRbeKchrj6cNQlLNkDFW4LNQI1ghKU7iVD3gtGeKYhbj8cdQ8LxQfCmFAjUCMoweh2MuR3LcCehvCICGWoVkxuY7HSF+/qokagRlCiTdhkYExDOC9GKKPlNgmLhXsE+VREjUCNoMSN4MlgnIZYvalJGTOHSXAsHCPIpwpqBGoEJW4ClwzePBwNHBaKa62bUCNQIyhRE7hkwHkExYsOmVAjUCMooRQ4jeD5irDxCoUycqYpiFiYA+LaiRqBGkEJlCAmA+O5Rkkk+tgfPy3beG1RRtnGaE1je3tnL2XYZqYgYjEbk/l+1AjUCEqUBDQZqA9H1cVaeSzc0qK5nL6aSF36suurgYEBrT30Zec1ora2FgY/r732Gg8+dg94zpB3nYBmQt7j5T8wuGR0D0eX/fGQKg26QmkkyjmbUNdulkVa525qWdXYxnkgP3CRa7IzFKx2/dNPP73pppuGDBkCAKgRVumJUz+4GkEYqrce7C+a0K7dLIu0VjW0TKmLcq4fF8ehdnripEZcvHjxzjvvnDhx4i9+8QvUCDte8f3YoGsEAWj/YYfuHgfRiLJIa0nkmkxIMptwUiPWrl0LAHv27HnmmWdQI3zPczsdCIdG2F80oZuGaDWivG7PqqYOO5CDcqxjGvHxxx8PGTLk6aefVhQFNSIo7s/Vz3BohM15hPFwrUaQRySX01dzMQyN3RmNuHDhQllZ2YQJE77++mvUiBAERzg0gmfRBMNZxmmITiNKItHu8/2MM4RjlzMasWrVKgDYtWsXgYLziKAHR2g0QndDQftow/SGAs4jSBg7oBF79+4FgBUrVqiJYaoR/f39fTc+8XgcAJLJ5IDnn0wm093dnclkPG9Z9AbDRKbpUGd5pHVKXbQs0kr+TamLlkdamw51mrphVWOb9sA7Ii1zG3bfEWkpGzzh6qZ20zOEoEIymQSAvr4+NcG1BfNnn6lU6vvf//64ceN6enrUI001or6+nqyhUP8bi8V6PP8kEomTJ08mEgnPWxa9wZCROXj8VF3zwbmbWqoaWuZuaqlrPnjw+CkeHxw4fmpuw7WjyL+5DS1P/99uYpnb0MJ5Ep6GRK4Ti8VsacSzzz4LANu3b1cFgud+BM4jBP/zEqZ5hIr6Yn86kbp0sT+tWngK2mkImUdMrWvlnIbwnF/8OnbnEUVFRQUFBZXZn/HjxwNAaWlpZWXl8uXLtfJhLLOvdoz1HbSE5qrbQSbkVEhGi1Rdu0nWWa5uyvPrHtpzBqjMzlDza42ioiL1eoFaKCkpYeNg94B9rOledb0dtSZmAhWLtD9IlYsGseP3Nah8zDWCepjp/QjtUS5phLrGnvFVP9QIrSO0ZSSjpaGW5cTCztCgaoR2jT153EV9R7ucLlcjnlFAMlQ4cmIJoUbwPxKX0+XU6NcZkYwOCNmUE0sINUK3xl67bEa3xl5Ol1OjX2dEMjogqBH5r4+gorRkZKuUpVMpimJcG6fVCN0ae8yEXHiRDJWMnFjYGZrn/Qgq31xGdg9yHZXLblxjr9MI7Rp7OV2eC53WjmS0NNSynFjYGRo8jcB5hBrQdgpyJoMpMTmxhE0jLH3VT06Xm2aCgOsj2OtceEbkSB05AyaEGoHPNezngzjJwLPOxf54Oc8gDhbODjtSLYQaoSgK9f3IxncQyulynrgRhAznOheeETlSRxAsjoyF/yTh1AhFUdQ19uRZxqqmDuPbB+V0OU9wiECGfz7IMyJH6oiAxZGBWDpJaDWCUGBfx6ouZ1ezBDQclVUyPg6Hf52LZ50UAYtng1UbCrlGqOOkFgYGBg4cP7Wqsc3+LzhRzx9co+/JYOn5lGecfcfi2Ui1DUmtEY2HOucO/lyCuoaC+rUOLS9Jyr4ng6V1Lp45xXcsno1U25C8GtHW2Vs++JMq5OcSVJmQ6qcTtKGgLfueDDiP0LrD37K8GlHT2D6lLlrVcO3dhFqBKIlEdV/r8NdDvrTuu0ZYWufiGSIRsHg2WLUhSTWC/JkyvgpdFYuyjVEZfjpBjQNdQYRkwOcaOqf4tSmpRpDLXYZGaL/W4ZdvfGxXBI3gX+fiGShBsHg2XtKQpBqB8wh2nImTDDzrXNhjcXCvOFgcHJTpqSTVCHK5i/cjcsWHaMkgyAIW0bDkcp+zdnk1Ap9rMCJJzmRgACG75MQir0Zcu9zF9RE50kLOZMgB41uznFik1oiBgYGDx0+tbmpX11lSv9bxbYxIU5IzGUzdKycW2TWip6dnYGBAkMtd0xj1rIKcyWCKV04sqBHXNMI0OGSrIGcymHpZTiyoEagRlNSQMxkoILJNcmJBjUCNyM6DwS05k4ECItskJxbUCNSI7DxAjaDwuG5CjTCyCd57sY1jYFjkdDkDiLoLyagotAU5sQR1HuHIkwg5Xa4N+lxlJEMlIyeW4GmEgy9KltPl1OjXGZGMDgjZlBNLwDTC2Rcly+lyavTrjEhGBwQ1Ihi/9+n4CwXsZ4IjlzzUcPTXaJ+Mv/13qXU5sQRpHuH4i5LtuNzBSx6XAtrOae2QsdOu4MfKiSUwGuHGCw7zdrmzlzwCJkbeZAQci4NdkhNLYDTCjRcl5+dyxy95HAxip06VHxmnWhf2PHJiCYxGiDOP+NVf2srr9qhvvtQWQvOyXDmTwVSb5MQSGI1w40XJVl3e1tm78i9tWlEwlsPxslyrZEyzKxwV5MQSJI1wfJJvyeXkHgR504RRGrSW7vP9QU8JS2SCPlj+/suJJUga4fiLkvldzpAnrTqQ3x8OwUv3+cnwJ1gIasqJJWAawfmD4JzhyO9yxmNXrUbg/QhO8gGtxh8wzg7Q32U4wdMIQt8RapwuN71dqspEaSTa3tnrbHz4cjZOMr70zcdGvcciwjKcoGqEI4HC6XKex64h+zFhTjKOeCFAJ/EYiyDLcFAjzN8fwTOPeG5rezhmECRjPU6GoMiEl1gYt8A8nq6iRphrBPuxa9nG6K+2tgclyjn76WUycHZJhGpeYmHcAvP4thdqBJdGiCPq3qSKl8ngzYgcacUzLKZTVy+X4aBGcGmE449dHQlZ907iWTK4NwQ3zuwZFp5bYJ4tw0GN4NUIZx+7uhHBDp7Ts2RwsM8enMozLDiPyPImW6Wyqjq9kZ/LHXns6vRQHD5ffmQc7oR4p3MJCzWi8H7Et/4PnEZ82/XwllxKhqADcxwLY/mDOLfA2BnK9V7sdDq9f//+DRs2VFRUFBUVFRQUjB8/ftGiRdFolCcm2D3gOUPedRx3ed49Ee1AJEP1iLNYTJc/NB0+XRqJar9k7MsyHHaGcmnEvn37YPAzYcKEBQsWLFu2bPr06cRSU1PzzTffUHGrRnYP1GpuFJx1uRs99OucSIZK3kEsnNOE9s7eVU0d/v5mNTtDuTTio48+qq6u/uSTT7RYt23bdvPNNwPA1q1btXZjmd0DY30HLQ663MFeiXAqJEP1goNYLN1uoN6woPbQDSM7Q7k0Ile3Vq5cCQBVVVW5KhA7uwfsY23uddDlNnsi2uFIhuoRp7AI9diCOlKtkZ2htjTivffeA4CpU6dq2zOW2T0w1nfQ4pTLHeySIKdCMlRHOIVFqOUP1JFqjewMtaUR69atA4DKykpte8YyuwfG+g5anHK5g10S5FRIhuoIp7DgPOIa3q6urqKiIgDYvHmzEXd/f3/fjU88HgeAZDI54Pknk8l0d3dnMhnPWxa9QSRD9ZCDWFY1tk2pi5ZFWo3/ptRFVze1UzvgizGZTAKAw7/Bk8lkqqqqAGDGjBlXrlwxakR9fT158KH+NxaL9Xj+SSQSJ0+eTCQSnrcseoNIhuohB7EcOH5qbkNLFe3f3IaWg8dPUTvgizEWizmvEeRu5ZgxY06cOGEUCEVRcB7hyx8E/kYd/IPJ36j4NZ3F0nSoszzSqp1NTKmLlkdamw51CoXC+XnE2rVrAWDUqFFHjhyhCoTOGLj7Ef4+iNLRc2nTqQtvl7rn12kdxyLC8gdTmOwMtXzP8sUXXwSA4uLi9nbeVyqwe2A6ADsVrLqcsXLWTjcEPNYqGQGH4EaXXMIi+F8ddoZa04ja2loAKCoqamtr4/cQuwf858mjpiWXm66czaMDwh5iiYywo3C8Y3JiYWeoBY2IRCJ5CISiKOweOO5m7Qn5Xc65clZ78kCX+ckEephWOy8nFnaG8mrEyy+/TC4xLM0giIfYPbDqRUv1+V1uaeWspT6IWZmfjJj9d6lXcmJhZyiXRuzevZs8wqyoqHjG8Fm/fj3bYewesI+1uZfT5cFa8WKTCTmck4wjbQXoJHJiYWcol0Zs2bJFXeZgLJSUlLCDgN0D9rE293K6PFgrZ20yIYdzknGkrQCdRE4s7Azl0gibPmb3wObJ2YdzuhznEWyM8uzlDJiQAWFnaGg1gjxtutif7unhep8l3o8IWdznNxzUCCO3EGqEdo3DHRtbN35wsC12zjhynQWfa+iAyLmJGmH0e9g0QrfGoSzS+vCm1murXw+fNg5eZxHkxWG6Xrm0KWcymMKUE4tE1xrGuUBZpLWqoaUs0sr542iBWDlrGug8FeRMBlMycmKRSCOM9xRUjbD042iCr5w1DXSeCnImgykZObHIohHUZxOqRpREol7+OJppLPpeQc5kMMUuJxZZNIK6xkGrESWRqGc/jmYai75XkDMZTGeIcmKRRSNwHmFJd2RLBu3TrrKN0ZrG9vbOXiMx2bAQArJohKIoTt2PMIZO+CxSJYPuaVfJ4M/elEaixqddUmFRo1oijbD/XEOlFvqCPMlgjIqSSJT8Mz7tkgeLNsIl0ghFUXRrHCytj9BSC31ZnmQwzi5VjTA+7ZIHizbC5dIIRVG0axzu2Nha18y1zlKLTIayJMlAvUulaoTxaZckWHQRLp1GkPFb/b6GjlroNyVJBurTLq1G6J52SYJFF96SagShIKfLdRFA3Qw0GdNHmOqQcR6homAUUCO4vvfJIBjKXQHVCM5HmFqX4f0ILQ1qGTUCNYISGEHUCP5HmNoB43MNLQ1qGTUCNYISGIHTCEuprhuw7mkXro/Q8UGNQI3QhcS1zcBphKVLBuOAtU+7yjZGVzV14DpLlRJqBGqEGgzfFoKlEVZvPX47zuyS6c3OYGHJHlz+W6gRqBGU6AlWMlh9hEkZMJ8pWFj4xmReCzUCNYISJcFKBqfmERQQ2aZgYcnue/5bqBGoEZToCVwy2LwfQUFAMwUOC20Qlm2oEagRlKAJXDLYea5BGX8OU+Cw5BiHNTNqBGoEJWKCmAz8jzApA+YzBREL38hYtVAjUCMo8RHQZOB8hKkdsOmzDG3lgGLRDiGPMmoEagQlbAKdDJxpn8fC7UBjobiZz4QagRpBiZTQJ0N+C7dDj4USCoqCGoEaQQmMcCdD3jc4w42FEgeDJtQI1AhKbIQ7GfJ+UBpuLJQ4QI2Q0+W5QkFrDzEZOwuuQoxF631dGecROI/QhcS1zRAng52F2yHGQgmCGybUCNSIG7Gg+X+IkwHnERo/cxVRI1AjKIESYo2g/tKK+g5L47uwtXTCjUU7Um0ZNQI1QhsP18vhTgZ8rkFxeW4TagRqBCU6wq0Rxl9aYbx7Sksn9Fi0g1XLqBGoEWowfFuQIRnyWLgtA5Zvg+BGCTUCNeJGLGj+L08ycC7cJmzkwaKJBVxn2YMaoY2H62U5k4ECItskJxacR6BGZOfB4JacyUABkW2SEwtqBGpEdh6gRlB4XDehRhjZgNHkuIWtUo43pz2hnC7XEshVRjJUMnJiYWcoagQ1VMJvlDMZTP1qCYulu6GmTftYATUCrzUo4WcpGSjHh9TEiSWPt9eIDAw1AjWCEp+cyUA5MtQmHiz5vb1GZGxOasSOHTsqKyuLi4uHDx8+c+bMt956K51Omw6e3QPTw+1U4HG5nfMH91gkQ/WdKZa8V3lTmxPEyM5QC/cj1q1bBwAFBQXz5s1bsmRJcXExANx///2XLl1iD5XdA/axNveautzm+YN7OJKh+s4US95vr6E2J4iRnaG8GrFr1y4AGDly5GeffUYG1tPTM2PGDABYv349e6jsHrCPtbnX1OU2zx/cw5EM1XdsLHa+dU5tThAjO0N5NWLWrFkA8Prrr2tHdeDAAQAYOnRoKpXS2nVldg90lZ3dZLvc2baCdTYkQ/UXG4udt9dQmxPEyM5QLo04e/YsDH5isZhuVJMmTQKA5uZmnV27ye6BtqbjZbbLHW8uQCdEMlRnsbHgPIIK7ZqxtbUVAEaPHm2ssXjxYgCora017lItqBEqCnEK7GQQp58e98QUC96PoHtk8+bNAHD33Xcbd69duxYAli5datylWlAjVBTiFEyTQZyuetkTUyz4XIPujoaGBgCYPXu2cfdLL70EAPPmzdPt6u/v77vxicfjAJBMJgc8/2Qyme7u7kwm43nLojeIZKge4sHSdKizPNI6pS5aFmkl/6bURcsjrU2HOqnnFN+YTCYBoK+vT5fFZJPrfkQeGlFfX09uYaj/jcViPZ5/EonEyZMnE4mE5y2L3iCSoXqIE8vB46fqmg/O3dRS1dAyd1NLXfPBg8dPUU8YCGMsFrOrEXlca+A8QvC/Hjx/MAUfghvds4TlYn86kbp0sT/tRk+8PKcD84iWlhYAGDNmjHEqQu5ZbtiwwbhLteD9CBWFOAXTC29xuuplT+TEws5QrmsNckMBAPDZp5fx6mpbciaDKVI5sTigEYqi4Boq0/AKVgU5k8HUR3JicUYjjGuxz507h2uxTWNO2ApyJoOpO+TE4oxGKIpClkIUFhbOnz+/urqafKdr9uzZ+J0u08gTsIKcyWDqCDmxOKYRiqJs3779wQcfvO2224YNGzZ9+vQ333zzypUrptzZPTA93E4FOV3OQwzJUCnJiYWdoVz3LKk0+Y3sHvCfJ4+acrqcBxSSoVKSEws7Q1EjqKESfqOcyWDqVzmxoEbgu+ooqSFnMlBAZJvkxIIagRqRnQeDW3ImAwVEtilMWPhf240agRqRnQeoERQe103h0Airr+1GjUCNoOREOJKBMjB7phBgyeO13agRqBGUvAlBMlBGZdsUdCz5vd4CNQI1gpI6QU8GypCcMAUdS36vyUKNQI2gZE/Qk4EyJCdMgcaS9+s2USNQIyjZE+hkoIzHIVOgseT92m7UCNQISgIFOhko43HIFGgsOI/IJwoC7fJ8Bsx9DJKhogo6FrwfQXUryxh0l7PGZm8fkqHyCzoWfK5BdSvLGHSXs8Zmbx+SofILAZamw6dLI9Hyuj0lkSj5V163pzQSbTp8mjpkRVHwfgTej6DERgiSgTIq26ZwYGnv7F3V1FG28ZpGlG2MrmrqaO/sZbBBjUCNoIRHOJKBMjB7pjBhwe9rcMVCmFzONWDuSkiGikpOLDiPwHkEJR3kTAYKiGyTnFhQI1AjsvNgcEvOZKCAyDbJiQU1AjUiOw/E0Aj+q2VK710zoUYY0eK76oxMpLD4mAxW327gpT98xOLlMHVt4TwC5xG6kLi26Vcy5PF2A0rvXTP5hcW1AXGdGDUCNYISKL4kQ36rACm9d83kCxbXRsN7YtQI1AhKrPiSDPl9m4DSe9dMvmBxbTS8J0aNQI2gxIr3yZD3txIpvXfN5D0W14Zi4cSoEagRlHDxPhnyfrsBpfeumbzH4tpQLJwYNQI1ghIu3icDziMobhDDhBqBGkGJRO81QlEUvB9B8YQAJtQI1AhKGPqiEfhcg+IJAUyoEagRlDD0RSMURcnj7QaU3rtm8guLawPiOjFqBGoEJVB8TAarbzeg9N41k49YXBuT+YlRI1AjKFHiezLg9zUoXvHJhBqBGkEJPd81gtInAUxyYkGNQI2gJJ+cyUABkW2SE4v/GpFKpQAgHo/3ef5JJpOxWCyZTHresugNIhmqh+TEEo/HASCVSmUL5vUtL74bTnoA+EECSEBgAvF43DeNGBgYiMfjqVSKqtyuGok8+TKFcXVc9k+OZKgM5cSSSqXi8fjAwIBvGkFt2Bsj+0LLmz6I2QqSofoFsRixeHGtYWzVMwu6PBdqJEMlg1iMWFAjjEyksGAyUN2MWIxYQq4R/f399fX1/f39xpFLbkEy1ABALEYsIdcI44DRggSQgCUCqBGWcGFlJCAdAdQI6VyOA0YClgigRljChZWRgHQEUCOkczkOGAlYIhAqjUgkElu3bn388cenTJkydOjQYcOGTZs2bc2aNZ2dnZxQSkpKqItl7733Xs4z+F5tx44dlZWVxcVohfCnAAAHXElEQVTFw4cPnzlz5ltvvZVOpzl71dHRsXTp0u9+97tDhw4tLS194YUXEokE57HCVkun0/v379+wYUNFRUVRUVFBQcH48eMXLVoUjUZ5+lxfX08NCQD4/PPPec4Q9Dqh0ognnngCAG666aaZM2c+9thjP/vZz8aNGwcAI0aM+PDDD3lcRTSiurr6mezPq6++ynO473XWrVsHAAUFBfPmzVuyZElxcTEA3H///ZcuXTLt29/+9reCggIAmDVr1rJly8rLywFg/PjxX3zxhemxIlfYt28fSfIJEyYsWLBg2bJl06dPJ5aamppvvvmG3XmiET/+8Y+zI+La1v/+9z/2seHYGyqNWLNmze9+97uzZ8+qvrlw4cKKFSsAYPTo0V9//bVqz1UgGsE/78h1Hl/su3btAoCRI0d+9tlnpAM9PT0zZswAgPXr17O79OWXXw4fPhwA/vSnP5GaV69effLJJ4lkmCYS++T+7v3oo4+qq6s/+eQTbTe2bdt28803A8DWrVu1dmOZaER9fb1xlySWUGkE1WcXL1689dZbAaCpqYlaQWsMtEbMmjULAF5//XXtiA4cOAAAQ4cOzfXNX1K5trYWAObOnas99sKFC0VFRQDwz3/+U2sPR3nlypUAUFVVxR4OakT4NUJRlIqKCgDYtGkTOxoURQmuRpw9e5bMn2OxmG6YkyZNAoDm5madXbs5ZcoUAPjzn/+sNSqK8tRTTwFATU2Nzh6Czffeew8Apk6dyh4LakT4NSKdTo8dOxYAtmzZwo4GVSN++9vfvvDCC6tXr3711Vf//e9/mx4lQoXW1lZySWXszOLFiwGgtrbWuItYzp8/T/Tl2LFjujrvvPMOudzQ2UOwSe7dVFZWssdCNGLRokWRSOS5557bsGHDBx98cP78efZRYdobfo34wx/+AADDhg376quvTD1H5hEkYdT/zpo1S/z7dps3bwaAu+++2zjGtWvXAsDSpUuNu4jl2LFjZLDG65GdO3cCwNixY3MdG1B7V1cXuYzavHkzewhEI9RgIIWioiLTGxns0wZob8g14tixYyNHjuS80FAU5de//nVzc/PJkycvX77c2dnZ2Ng4efJkAJg4caLgTwEbGhoAYPbs2cbge+mllwBg3rx5xl3E8umnn5LQz2QyujoffvghANxyyy06e6A3M5lMVVUVAMyYMePKlSvssTQ2Nm7atOno0aNfD34OHjy4cOFCguuvf/0r+9hw7BVXI2pra6fxfQ4cOEB1RjweJ/OCRx99NO878729vaWlpQCwbt06aiuCGFEj+B1B7laOGTPmxIkT/Edpa65ZswYAxo0bZyox2qMCWhZXI8hiB90cj7r5j3/8w0i/q6tr6tSpAPDTn/7U5nfD3377bQAoLy83tiKOBa81OH1BrrxGjRp15MgRzkOM1Xp7e8mjU90jVWPNEFjE1Qg7cBOJxF133UUe5l2+fNnOqRRF2bt3r/jz7ZaWFgAYM2aMcbDknuWGDRuMu4iFvFgFAHLds6yoqMh1bLDsL774IgAUFxe3t7fb7Pntt99u+rTIZhOCHB5Cjeju7v7Rj35EHn3zrC809URzc3Ou9DM91rMK6svH8dlnLuZkDUhRUVFbW1uuOpz2q1evkiVnra2tnIcEt1rYNKKnp4estK2qqnJEIBRFefTRRwHgkUceEdzNbqyhIqu5Q7CGKhKJAIAjAqEoCnncM2TIkK6uLsGjwn73QqURvb29M2fOJJcYpgIxZ86cadOm7dy5U4X497//vaOjQ91UFOX8+fPkKToA7Nu3T7tLwLJxLfa5c+eMa7F37tw5bdq0OXPmaIegrsV+//33if3q1atkAdWsWbPyvuOrbcLH8ssvv0wuMdgziHfffXfatGlPPfWU2tUzZ840NTXpLld37do1evRoAHjyySfVmiEuhEojyIX3kCFDli1bZvwGzq5du7SOJI88tAuriBxMnjx5wYIFTzzxxEMPPTRq1CjyFam3335be6ywZXJDrrCwcP78+dXV1WQWMHv2bK1ibtmyBQBKSkp0o9ixYwe5D3fvvfcuX748NN/p2r17N7nVXVFRYYwK7TdZyFII7aqqo0ePkq/APPDAAytWrPj5z39+5513krM99NBDFy5c0DEM5WaoNKKyspL64IMYdV/LMWrExx9/vHLlynvuuWf8+PGFhYUjRoy46667Vq9ebbyTJ3IobN++/cEHH7ztttuGDRs2ffr0N998U/d8LpdGKIrS0dGxZMmScePG3XLLLSUlJc8//zzPwjORaSiKQsabKzC0WmnUiHPnzkUikTlz5kyePHnEiBGFhYW33377woULm5ubc/1ijeA08uheqDQij/HjIUgACbAJoEaw+eBeJCA7AdQI2SMAx48E2ARQI9h8cC8SkJ0AaoTsEYDjRwJsAqgRbD64FwnITgA1QvYIwPEjATYB1Ag2H9yLBGQngBohewTg+JEAmwBqBJsP7kUCshNAjZA9AnD8SIBNADWCzQf3IgHZCaBGyB4BOH4kwCbw/yejDwx+AL3QAAAAAElFTkSuQmCC;" vertex="1" parent="1">
          <mxGeometry x="308.13" y="400" width="111.48" height="90" as="geometry" />
        </mxCell>
        <mxCell id="uyvEmPoRV89XPVumFd5U-29" value="" style="shape=image;verticalLabelPosition=bottom;labelBackgroundColor=default;verticalAlign=top;aspect=fixed;imageAspect=0;image=data:image/png,iVBORw0KGgoAAAANSUhEUgAAApcAAAEdCAIAAADWzdvlAAAAAXNSR0IArs4c6QAAIABJREFUeAHtXQl4FFW2rkCigzoDbk/nzXNhyaIiLgPjjDryVJIggo6SBBAElCeibKPA4I77miAJi6AiggqCCrLvqCyygyA7MQiBdLo7+97Lvf2+7oKiqKo+3V1ddavq1s3Hx3frruc/5/z9115cgP0xDzAPMA8wDzAPMA9Y0wOcNc1mVjMPMA8wDzAPMA8wDwSYirMkYB5gHmAeYB5gHrCqB5iKWzVyzG7mAeYB5gHmAeYBpuIsB5gHmAeYB5gHmAes6gGm4laNHLObeYB5gHmAeYB5gKk4ywHmAeYB5gHmAeYBq3qAqbhVI8fsZh5gHmAeYB5gHmAqznKAeYB5gHmAeYB5wKoeYCpu1cgxu5kHmAeYB5gHmAdiU3GPx5Ofn3/HHXdcfPHF559//l/+8peuXbt+/fXXzI/MA8wDzAPMA8wDzAPkPRCDihcXF19//fUcx1122WXdu3fv1avX7bfffsEFF/Ts2ZO83WxF5gHmAeYB5gHmAeaBaFW8oaEhLS2N47hXX33V6/UKjquvr9+9e7ewyQrMA8wDzAPMA8wDzAPEPBCtir/88sscxw0ePFiFZQih4uLiqqqqavbHPMA8EJ8HqqqqiouLEUIqmEhyCGN9fHFmo5kHznoAZn1UKu71ei+77DKO444eParih6C4uJhjf8wDzAPaeaC4uFgFE0kOYazXLtpsJuaBoAfCsT4qFd+yZQvHcf/93/8dCAT27t376quvDh48eOzYsUuWLInmmKCqqoq34Oyuhc6lysrKoqKiyspKndcx4/R2xl5dXU09fF4dq6qqSEqyirUY6wn/OlCf+YA/qccOsz4qFf/44485jvvb3/42duzYhIQE8X7RLbfccvz4cTnJm5qaBKfzFlRWViJSfz6fz+Vy+Xw+UguaaB07Y0cIUQ+/srKS47jq6mo56QyvYaw38IeA+swHfEs9dpj1Uan4O++8w3FcUlISx3FDhw49fPhwdXX16tWrU1JSOI5r3769+H43/qdk3LhxYrHnOK6oqMhN6s/pdBYWFjqdTlILmmgdO2N3u93Uwy8qKjKtijPWG/hDQH3mA76lHjvM+qhU/O233+YluU+fPuL9/ePHj//hD3/gOG7WrFni+kAgwPbKgT1HXZuo3y2FvUc9fHivXEJDwpuM9XBy6tpKfeYD3qMeO8z6qFR84sSJvIr/+OOPkt+Fnj17chzXv39/Sb14s7q6mvDRA0LI7XZHc81ebCcdZZLYMSrHdZ+gsizkug+VP44blmJ89ilEQ/xJEr4hAMmzSR1M8nZSH3o4EMTgN9Y3LZ++dtTd4x6/4d/P3PXyoikr6msaYNv0biWGXW8g4eaH2RSVii9dupRX8RMnTkiWGTNmDMdx6enpknrxJmyBuKdWZeqDCjiKGHbcuA452iNHCnIkh/6lBv93pWP/ScA8vZuIwdcbSLj5ybMpnCVwPXk7qQ897HAy8H/b83vOn/+vS0JWevPs4P/Nsro0y3ro0oH7Nx+GzdO1lQx2XSHAk8NsikrFHQ4Hf1Pbrl27JIs99thjHMc99NBDknrxJmyBuKdWZeqDCjiKDHbs2Y0c14kknBfyZORIQ657MKoDLNS1iQx8XSHAk5NnE2xPuFbydlIf+nCu5usJwHefKn/o0oEZiTldErLE/zISc3r8sd+pQgdsoX6tBLDrZ3w0M8NsikrFA4HAP//5T47j3n//ffGSXq+3TZs2HMe988474npJGbZA0lmTTeqDCniJDHZU/jhyhA6+Tx+ICyoeLOD62YCFujaRga8rBHhy8myC7QnXSt5O6kMfztV8PQH4nz73pVzCeTnPTMrJf+pj2EL9Wglg18/4aGaG2RStiq9Zs4bjuIsvvnjz5s38qj6fb/jw4RzH/fGPfywtLQVMgS0ABqpuoj6ogGcIYMd+h9JRuCDkKcjdHbBQ1yYC8HW1P+Lk5NkU0STFDuTtpD70in4WKvWGjzF+6NKB4kNwSfn+Cx7xNHoEe0gW9MZOEoviWjCbolXxQCDwxhtvcByXmJh4++23P/zww9deey3HcS1atFiyZIniwkIlbIHQTcMC9UEFfEUAO/ZsO3MtXFDucwulNwEW6tpEAL6u9kecnDybIpqk2IG8ndSHXtHPQqXe8Ouq6yWyLd90HncJ9pAs6I2dJBbFtWA2xaDigUBg5cqV99133yWXXJKUlHTVVVcNHDjw4MGDiquKK2ELxD21KlMfVMBRBLBj755IKt4JsFDXJgLwdbU/4uTk2RTRJMUO5O2kPvSKfhYq9YbvafLKZVtSU+E05pWCemMXnGxUAWZTbCquDgNsgbo54VHUBxWATwA7xh5U2jG8kKehymcBC3VtIgBfV/sjTk6eTRFNUuxA3k7qQ6/oZ6GSAPyRd76YEbo1XSLeoZvVswfd8G+MsWAPyQIB7CThyNeC2cRUXO4xa9eQSWhUkwfd3eYx7GO1ZOAbmCIwnw00TLI0eTupD73Ew5JNAvB/nLtJrt+na5plLZm2SmISsU0C2IlhUVwIZhNTcUWnWbiSTEJjVI/cDysLeU2ege4jA99AgDCfDTRMsjR5O6kPvcTDkk0C8DHG7/TL79LsnMfM+APxl3q84/f5JSYR2ySAnRgWxYVgNjEVV3SahSuJJTRGdah6XOjFL2dubXPegetnG3VWjY8ZMfhGpQjMZ6Oskq9L3k7qQy93sriGDHy/3//lm98+dMkA4aD8gZaPTn/hK5/XJzaGcJkMdsKgxMvBbGIqLvYVDWXCCY1RDW5ciRvm46ZNGBu2My5EjjB8YV1iBZjPxMyIuBB5O6kPPexzkvA9Td6ty3at/PyHnxdtb2pogg0j0EoSOwE48iVgNjEVl3vM2jXUJzQcHurhw3yGnUOylbyd1IceDp+d4VOPHWYTU3GYGtZrpT6h4ZBQDx/mM+wckq3k7aQ+9HD47Ayfeuwwm5iKw9SwXiv1CQ2HhHr4MJ9h55BsJW8n9aGHw2dn+NRjh9nEVBymhvVaqU9oOCTUw4f5DDuHZCt5O6kPPRw+O8OnHjvMJqbiMDWs10p9QsMhoR4+zGfYOSRbydtJfejh8NkZPvXYYTYxFYepYb1W6hMaDgn18GE+w84h2UreTupDD4fPzvCpxw6ziak4TA3rtVKf0HBIqIcP8xl2DslW8nZSH3o4fHaGTz12mE1MxWFqWK+V+oSGQ0I9fJjPsHNItpK3k/rQw+GzM3zqscNsYioOU8N6rdQnNBwS6uHDfIadQ7KVvJ3Uhx4On53hU48dZhNTcZga1mulPqHhkFAPH+Yz7BySreTtpD70cPjsDJ967DCbmIrD1LBeK/UJDYeEevgwn2HnkGwlbyf1oYfDZ2f41GOH2cRUHKaG9VqpT2g4JNTDh/kMO4dkK3k7qQ89HD47w6ceO8wmpuIwNaSt1WU1+zYdOrDlSENtg7TNHNvUJzTsZurhw3yGnUOylbyd+oW+oa7x4NYjv248WOmqIunDmNbSD35MZhjSmXrsMJuYikebdcVHSt7uOyEzqRf/Sb77L3gk/+lPKkorox1Pqh/1CQ07knr4MJ9h55BsJW+nHqGvLquZNGJ69z/241mfkZjzRq+83w8Uk/RklGvpAT/KpQ3vRj12mE1MxaPKwMJfjj3Q8tGMxBzhq7pdErIyEnP6XP2k+2RZVFOQ6kR9QsOOpB4+zGfYOSRbydupeegrnFX92w2Vs777RX0Pbj1C0pnRrKU5/GgWNUkf6rHDbDKFitd7vd8d2Dd+88ZJ2zb/4iiJPzO0Darf73/kmiESMvNynpmUM+ruV+I3WMMZtMWuoWFkpqIePsxnMk6OZpWIdmLsw42rUU0+rp2Im37CGEUzLdBH89C/2OOdzKRzdtyFI/KsKwZ5PV7AGPJNmsMnD0H1itRjh9lksIpjjKft2HbDlPzW+bnJE8e3K8hrnZ97/+yZh8vcqiMaCAS0DeqmhdvEh+Dy8u/7T8RjrbZjtcWurW0EZqMePsxnAh6OcgnYTty4Ajn/gRzJyHEdcqQFC867cNOGKCdX7KZt6Et+K+3SLEtOdqFm3ZyNimYYVaktfKNQqFuXeuwwmwxW8dyfN7TOz5X8a1eQd+NHBYXl6s9UaxvU3EFTFHfJeT5nJObMeWe+uuTTY5S22PWwUNc5qYcP81lX38Y0OWAnblgc0u/kc/9PQY5U3PRTTKuIO2sb+vn5S9ObZQuaLSlkJOa82edD8eqGl7WFbzicmAygHjvApkAgYKSKF5aXSfRb2GxXkNd/wTcxBVLcWdugvtErL715WD5nntdr+gtfiVc3tqwtdmOxqFidevgwn1V4TKch4ezEuAGV3oIcKedKOK/oKch5O8Y+dSZpG/ov3/w288ytrBIJ5zdfvP9tdXbqNEpb+DoZqdO01GMPxyben0aq+Gs/ruVPoQviLS60yc89XqXyDnBtg/rRMzMAPqc3y144eYVO2aliWm2xqzDA2CHUw4f5bKzzxauHsxPXf6Ok32ePy3HjavE80Ze1Df3Kz39QFG++MjOp14eDp0ZvG4Ge2sInYLCGS1CPPRybeB8aqeL3z54llm15+ftDB9RFWtugHt1dBPC563m9qstq1NmpxyhtsfMWHtt3YtLw6cP/8cKI21/46NnPi49ocAeiHtg1vyVCJyPjmRbmczwzazs2nJ2o6oXTF8KDF8Xl/65DNe+rs0TbzK+rrr//gkcA4u//+ZA6O3UapS38QCDgPln2+Stf//ufLw297bncQVMObj2CMdbJ+Din1Rx7nPZoPjwcm/iFjFTx+776XK7c4poFB/erc4fmQX3+vjcV71FPb5Y9eeRn6ozUaZS22P1+f8HQT7okZAl3BvB++PS5L81JaW3h6xSjeKaF+RzPzNqODWcnqnougopXv6vOEs1DP/2FrxRvcMtIzHnmrpfNlv/awl8wcVlGYk7GmSuJPP3HPfx+U0OTuujoOkpb7Lqaqm7ycGziZzNSxUetXAacUW+dn3vA5VSHWfOg1lXVjbjjRf4ZcX73nBez17NzfV6Vl/HUQYs4Slvs00bPVPwh65KQ9eWb30Y0BqNa3LAE13+JGxZjVBuxf/wdtIUfvz2azwDzWfPlVE8Yzk5c91mYi+Knj8txg8p7RTUPvd/vf2/AxCDrzzxvxqvaU3/9j6lOv/Ex0hD+qlk/Kp6ESG+e/VrWBxFTwuf1bV68Y+HkFSs//6GspCJi//g7aIg9fmP0mCEcm/i1jFTxXSWnxEfe4nLbgrwH53yh2h16BNXn9a2dvWHkHS/2+GO/B1v1f77bW1uW7DDb/ri2p5TLSioUz0DwDO/Wok9dVV24GGHsRTXvIceNobOm/K1MN6LqtzD2hBuiSb0eodfEMK0mgfms1SrxzxPOTowqkON6pXPpIRUvvQXjRnWr6xF6jPH2lb+89MA7D7bq3/2P/Ybd9tyqWT96msz1pDjvLq3g+/3+nP9+QlHF+cojO38LFyCM8YKJy3r+1+NdErLSQ8/phd52N77KXR1uiCb1WmHXxBg9JgnHJn4tI1UcYzx82eI2sifN2oSeHd96Uv1rDqkPKpAoGmKf88584ZSaAqubZS36aKWiJRj7UcWTSodcKaj8MYx1/BHUEL4iNMMrYT4bbp5gAGAnrp0aTsVx/dfCDLEWqA897BCt4G9dtkuB7AmnH53PTMqZMGRaOEuC1yDO9BQKGYk5/ZOH6Xr2Qivs4XAZXg+wyeAnzQKBgMfvH7Nqeev83HYFeW3y8/gT7DdNnfjT78ficRz1QQWcoyH2Dx6bLFwOFzgpFLqe1+ujZ2YoWoLrvwv3M40cybh+juIoTSo1hK+JPZpPAvNZ8+VUTwjYiTHGtVNC73tJRQ7+Xwpy3IDr1J9+0/YslGrUBg7UKvO/m7AEeLC2S0LWqLvHKcI8vKNQ+HGQFDISc/Kf+lhxlCaVWmHXxBg9JgHYZLyK84CPVVa8t3H90KWLnl257LsD+5p88V5ppj6oQKJoiH3CkGmZ4R+ZzUzq9elzXypagtwPhH6d5XcgJwcP0F336XclQkP4itAMr4T5bLh5ggER7cT+Mlw7DVWORJX/xnUzMIr3c2HUh17wrWJBK/iLpqwIdysMr83P3/emogEfPD4Z+Lm4/4JH6qrrFQfGX6kV9vgt0WkGmE1GnlHXCbDN98o1TOgf5/0s2aeWbG5f+Ys8iBjVAQfifBNGet3zoiF8OTQz1MB8NoOFvA3k7aQ+9HBwtYJ//OBJCc3Fm+nNs+e+/72iJb2vGizuKS/vWrtXcWD8lVphj98SnWaA2cRUXCe3Gzathgnt8/p6/tfjiqfXMhJzHm07FCGFL1hgVBlZxf0qnz6I6FYN4Udcy5AOMJ8NMUlxUfJ2Uh96RT8LlRrCH3X3uHC3tXY9v3e4K9xZVwySK7e4ZtvyXYK12hY0xK6tYVrNBrOJqbhWfjbLPNom9M41ezOTekmEPCMx574WffZvPqyIGWOESjtCQh68Dzl4g1vRr8fzn/q491VPPnzZY093Grv0kzWN9fE+jaotfEWAxlbCfDbWNvHq5O2kPvRi98rLGsI/ebTkoUsGSoQ8eM95s6xVs36UL83XPNP5ZckQsYR3Scgq+a00EAi4istmvDTn0bZDH7p04GNpI+a8M7/SxS6mhHPq6XqYTUzFI7jPcs0akpnH/uuGA0NuHSMm5PB/PH9oeyHgGVSTG/66eBqqDr6Ael7uIvHLZPgdhUfbDnUci+swXXP4AExDmmA+G2KS4qLk7aQ+9Ip+Fiq1hX/yaMnYjNfFrO+fPGzT99uE5eSFdXM2ivuLyxmJOaPveTUQCPy8aPt9f+gtFvv05tkPtHx036a4XoSnLXY5NMNrYDYxFTc8QBoboFNCH95RuPSTNcs+XfPbnt8jWoz9LuS8TekVXWmotBP2O8IRPiMpp3+7oZ5G9c+U6wQ/ImRiHWA+EzMj4kLk7aQ+9LDP9YB/qtCx/LN1S6at2vPT/oh3pHo93iG3jhHekCOoeHqz7MykXvs2HTq6qyh4Yk/2vdf05tk9/tSv9HcXDBBo1QM7sBz5JphNTMXJR0TfFU2S0Nh3FDnvCp1XTz37v/MO7D2IMR6YOhy4D3b1F2b5PKW+oVI1O8xnVVPqMoi8nSbJfF28GcWkZoBf6aoadttzZ8+xNctKb5bd/cK+W5bsCAQCb/QeH+7J1YzEnGmjZ0aBUrmLGbArW6ZRLcwmpuIaudk005gnoTH24IYlwde/lPVE5U/ghkX8i9sObj0i7KfLCxnNs5/931dUu9M88FVDgAfCfIbHkmwlbyf1oYfDZxL4GOOdq/e82efDYX9//j/pry0oWMa/4bG+piGchPM/Av+6eEDEw/1wHjAJ9nDmxV8Ps4mpePweNtcM5k/o9d9ulou3uKbvtU+p9qn54auGxg+E+Rzn5BoOJ28n9aGHo2Ny+CePlog5rlhW/akVk2OHAxdNK8wmpuLR+NBKfcyf0NuWQ6947JKQ9X/tn1HtcfPDVw2NHwjzOc7JNRxO3k7qQw9Hx+Twy0oqFJVbqMxonq345CqMmm81OfZoIMB9YDYxFYe9Z71W8yd0Q21D94v6CuyVFDISc2a8pP4VreaHH2dKwXyOc3INh5O3k/rQw9ExOXyM8eCbRkmeWRW4n5GY81KPd2CAQKvJsQOWR9kEs4mpeJRutEw3SyT0lH/PED9tIpA5WGj5yOQfN7y3cf2kbZsPuGO+bdUS8ONJJpjP8cys7VjydlIfejhA5oe//LN15zD93O+mfDL2i+kvfDVz3Nzd636N9QK5+bHDsYvYCrOJqXhEB1qsgyUSuqGucejfnstoniNmdXpS9s3/GtUuP4//qB3/aZysebNPVsfwWUNLwI8npWA+xzOztmPJ20l96OEAmR8+QujdRwvElBc+YNr1/N5dErK6nteLvwNuQMrwcC+VUnSC+bErmh19JcwmpuLRe9IaPa2S0A11jZ+M/eLBVv15Vt+bkHXns2+JvzHPl9sV5N32yUeltbWw9/eUOsasWn7nZx/fPn3q6O+/W/3bUb/S22HhSSzRCvPZPBDI22mVzNcpRpaAjxD67sMlva96UtDynpc/JpSFQkbz7Pv+0Pvg1iOwr04VOqaNnjkgZXjvqwaP6/3uis/Xqb4/Dl7I8FaYTWpUfMyYMVzo74033ogGHmxBNDPE2scSCR0rqCj7Wwu7p9Hz64YD21f+suDnXXIJF4R87OoV4eBjjN/46Qf+47at83Pb5udmTpvcNj+3z7dzaz3q3x4TbjnD68mzSR1k8nZaK/PVeRUYZSH4fr//0Laj21bs3r5yd0bzbEG8xYWM5tlP3jIawLv0kzUZzbP5C3PpzbMHdBia3jy7f/KweN4eAyxnbBPMpphVfNOmTc2aNUtISOA4jqm4saFVXN1CZBbb/+Ti7/lT6Ipanjrpw+qmRnF/oTxl+xbxkLb5uV2mBlW8bUHe4wu/E7pRU4D5bB6Y5O20aOZrFTIrwp/16jzJZTWxkHdJyDq07aiifzYv3iHuGVTx9kEVzwy9/JG+I3KYTbGpeH19fXJy8l/+8pd//etfTMUV08vwSiuSORAI/HXaZLEYy8tbTxbLfdvg9bafki/uLKg4X/mrM/gBBpr+YD6bByl5Oy2a+VqFzIrwn8t8QyzGknJ6s+wFBcsU/TPk1jHi290FFednWDFjneIo61bCbIpNxUeMGMFx3NKlSwcMGMBU3Jw5YUUyBwKBW6ZNEouxvLy5+ITc4d8fOiDpKVbxdgV5r/ywRj7K0jUwn80DjbydFs18rUJmRfj/SX9NotzizfTm2d9NWCL3T9Gvx8XdgrfInTkW58sjbn9BPsrSNTCbYlDxH374ISEhoX///oFAgKm4aXPCimQOBAJ9v5vbtiBPIsnCZtuCPFd9ndznk7ZtSS4YL3Tjr4vzZ9T5ykEL58tHWboG5rN5oJG306KZr1XIrAh/2uiZYZ84DT2Htnvdr3L/bFlyzul0iYp3ScjK/vP/yUdZugZmU7QqXltb27p16yuvvLKiooKpuJkTwopkDgQCy48eEYuxuNyuIO/ppYsUfT591w6J9ouPxdsW5A0NM1BxNktUwnw2DwTydlo087UKmRXhFx8J+1rW9GbZ/dsNVXxwfPe6X4Fj8S4JWY+2HaqVV00yD8ymaFX8ySef5DhuwYIFPCp2LG6S6MrNsCKZA4GAD6E+3yocjrctyLthSn5heZkcaSAQKCwvE+u9/Fj8m/0K+/KKU1mlEuazeVCQt9Oima9VyCwKf9KI6QqfNwx9DG3L0p2Kzmmsb+rxp35iIRefUc9IzPnomRmKA61bCbMpKhVfuXIlx3G9e/cWvBBRxZuamqrP/BUXF3McV1lZiUj9+Xw+l8vl8/lILWiidayLvaax8clFC9rm56YU5CUX5KUWjG+bn3v79Kl7Sh2Af/t+NzelIC94U3roX3J+bvrUycn5uckFebdMnVjvaQLGWrGpsrKS47jqWN6EI9BW7wJjvYEZZVHie73eqaNmZiTlZJ7Xi/+X3jz7gVb9f/puM+DMqaNmZp7XK715Nv8vIylnYIdhGUk56c2zM5JyThw6CYy1YhPM+sgqXlVV9T//8z+XX3652+0WfgUiqvi4ceP4Z8qF/4uKityk/pxOZ2FhodPpJLWgidaxOvZdhYX561a/vHTRWyuWrtjzS2mkIB44/nv259Mzp03uMjX4L2Pq5AGffZI5bXLXj6f8sH+fiQKjkSlFRUWmVXHGeo2CrGYaSxO/8EDh7LxvPxz5UcGoj5fOXHmq+BTsgpMnTr2U9fbAm4YNaD80+K/D0FE9XuI3F05fBo+1YivM+sgqPnDgQI7j5s6dK0h4NNfF2V65UXt8Ft0lj8ddJdVVzyxfkjoxeOzOH4s/On/e7pJT8cxp2rHwXrmYpOTLjPUGpo3diF9XUz911MwHWj3KH38P7DBsyK2jNn6/1cAQ6Lc0zPrIKt6yZcvExMTO5/5dccUVHMdde+21nTt37tWrF/x7AZ/Th8eqa7XoJSJ1YCWjbIu9vKH+x2NFq387uu/YMdWfOJQ404Sb5Nmkzgnk7bRt5vMBsif8xvqmnWv2bvx+6y+bf/X7/epy1fyjYDZFpeLCWXHFwjXXXAN7AbYAHitvxRjvLDk1ZfuWgq0/Lz1yqMnnk/exZ0LzfrAz9kAgQD18bdkk545WNZrbiX2/4bpPcW0Brv8Goxq5ndSHXg5ZXGNn+NRjh9kUWcXFiSKUI14XF3oGAgHYAnHPiOV9ztKuX37OvzQ7eWLwQeFbpk2a8+seyUDqgyrBK960M3am4uJMMLasIeuxvxSVD0COZORIRY7rkCMFOdqjmlyMzzn2YpnvdrspPgsF5DP1oYfZZCUV3+9yXj95guT5YP5Bo0937RDHmPqgisFKynbGzlRckgwGbsK/O9Ebhv1u5LwLOdJCKp58zv+V/xE/T8wyn6l49HllrZ4wm6yk4g9+/aWihPOH5s66sx+vtDOf7Yydqbh5fpvg353o7URVryhLePDQPBk3bRKmYpnPVFxIBsoKMJsso+L7XU7J+z3Em20L8vK3/CxEzs58tjN2puICBQwvwL87UZqHUW3w5HlIsJX+T0MVTwtTscxnKi4kA2UFmE0qVTwmH8EWRDnVzF92tcnPFSu3pNxv/jxhKjvz2c7YmYoLFDC8oAnrsWe7kniLzquXdhKQssxnKi4kA2UFmE2WUfHPf9kJq3if784+0W5nPtsZO1Nx8/x4wb87UdqJPVsjqfhfhalY5jMVF5KBsgLMJsuo+M8njksOvsWb7QryXvvp7Ddl7cxnO2NnKm6eHy/4dydKO7HfFbovXXTwfc7Z9VRU1keYimU+U3EhGSgrwGyyjIojjO+a8QlwOH5U9MEMO/PZQOwIoc2LdzyX+UaPP/a7/8JHht323KpZP3o9XpKMMhA+GZgwn8nYEM0qWtmJKoZCd7c1nP3+NPWhh91uIPwDW4680y//XxcP6Naiz2Nu/IBDAAAgAElEQVRpI777cEldlcJ3hGH742k1EHs8Zkc/FmaTZVQ8EAis+a2wTX6uXMjb5Oc+v2al2CPUB1UMVlI2CrvP63s9O7dLQpbwweCM5tldErKG3vZcbSU5ShsFXxIF/TZhPuu3bqwza2Un9h5Bjg5KR+RpqCwb47P7iNSHHg6BUfBnvTqvS0JWZlLO6Y+MhT5H1vt/BhcfKYEN1rDVKOwaQoCngtlkJRUPBAKLDx+8fvKE4AcoC/La5Oe2C/3/8rrVPoTEXqA+qGKwkrJR2Kc8MyO9WVC2Jf8yEnPGpL8mMVK/TaPg64dIMjPMZ0lnAzc1tBN7fkHOf4QukPNPjYf+L39M8gY36kMPR9MQ+CtmrJPwnd/MSMx55JohTQ1NsM1atRqCXSvjo5kHZpPFVDwQCNR6PF/s2T182eIhSxZ+sGnD8apKuReoD6ocslBjCPbqspqu5/dW5DNfeWTnb4KFuhYMga8rIsnkMJ8lnQ3c1NZOjL24cRmqHIUqnkLVr2GvwmfjqQ89HE3y8BFC/do8DbB+xYyz9yrBxsfZSh57nAbHOhxmk/VUPBr8CCGXY7u/eiqqmYDrv8OI3BndaMzTtY8hCb3oo5WKB+I8wzOTciaNmK4ramFyQ+ALqxMowHwmYECUS5C3M8j60gP+ms+CrK+bhf1nv6Qcpc2W7kY+8/dtOgRIeHrz7H/f9TIZl5LHTgaXsArMJgpVHPt+97lznIczfSXXhd66nIwcN+LayeKXNQreoa+gbUIvn762vqZB7qWDW4/s//mQUD/jpTmZ5/UKR+n0ZtmvZX0gdNa1oC18XU1VNznMZ3Vz6jGKsJ0YVfnKhzkPdz3D+pTgPXFVz2PcqAc6E86pYeZv+n6b45hTjtFVXLb+281C/U/f/ByO8nx932ufEjrrWtAQu652qp4cZhNtKo59J1Dp33wl14dUPPWch02r31TtRAsN1DCh57y7oEtC1og7XpQI+cGtRx5o+egDf3r06O4i3jNz3/9euKlNTuzMpJz3H5tExocawidjcKyrwHyOdTb9+pO0E6M65O6uxPpUVD5AfAecfngNn1mrzN+8eEdGYk7fa5+SCLmruKx/u6HpzbJ/+ub0WzK3rdgtJ7u45okOz5Jxi1bYyVirYhWYTbSpOKoYhhxpvpJUBRV3JGPvPhUetNYQDRP68I7Cf108QCLkvIR3Sch6pvPLDbWnD9NPHDopZq+8vGnhNjJu1BA+GYNjXQXmc6yz6defpJ24dgpypIZlff23+sE0z8xaZb77VPnA1OFdErLEQs5LeJeErH5tnnYed/GoG+ubevypn5zsfE1G8+wvXv+GjH+0wk7GWhWrwGyiSsWx38k/kRKGz2mo8nkVHrTWEG0TWiLkihLO++c/6a8pHo5nJOb0ufpJv/+cj0jq51Jt4etnp+qZYT6rnlbzgcTsxNiPnLcjR3IY1qci94OaozPhhBpmvkTIFSWc98DHY2alhx4olWh5erPsruf3LiupIOMoDbGTMTjWVWA20aXijWv4U+hh+JyMXF1idZ/l+mue0IKQZyb14h8BFx+FC/4pK6no2/opiZBnJuU82Kq/cOJd6KxfQXP4+pmqbmaYz+rm1GMUMTux/2QE1juS7XBSXdvMF4Q8IzGHJ7X4KFxIGE+j55nOL0uEnB+y/rstQje9C9pi19taFfPDbKJMxVdF4LPrbhUetNYQPRL68I5CYV97yK1jhBPpEs9UuasnjZje/aK+fOfMpF7vPJp/8ii5lz+wN7BKImLgJvy7o6Fh2Hc8AuuDKu7RcEVzTqU58d2nyrtfeJrL6c2yhRPpEvieJu+Xb3ybdcWg0z8RzbKe6/rmvk1nb32V9NdjU3PsehgZz5wwm+hScd8xkM9pqGJoPK60xFg9Evrg1iOCig++eZTkZjeJWxrqGg9tLzyw5Uh1eY2kicCmHvAJmB39EjCfo59H757E7MTYg0pvDn9GPQXZYN9dj/1XV3GZWMUlN7tJ8sfn9R3dXbT/50Puk2WSJgKbNmc9VSoeTOWyftB9Lk2bCKSUsUtontDCtfDuF/XtGnqcTH7XurGQxatrDl88uRnKxNQxTrAk7UTVb4e/pzUF1xF6V0GcHotzuLaZL1wL79aiT7cWfSQ3u8VpqubDtcWuuXnxTwiziTYVx949yHG9r+Q62T3qqaj8/+zwyLi2CS1IOH8tXLhGbloh1xZ+/PTTfAaYz5ovp3pCknYGb2t1/kPpSbM05MrAqFY1CgsN1DDzBQnnr4UL18jFd62byjMaYjcVLsEYmE20qXggEMBNW3yO20Iqfj1yhF7+4EhGFSNs8v4HDRNaIuF8SplcyDWEL1DIVAWYz+YxlbCd2HfM58yQst7dE/sV3l5iHi9paIlWmS+RcN5Ckwu5Vtg1DIe2U8FsolDFA4GA39/oOrnQVzEq+Ph49bvYd1Rbn5p5Ng0Tet4HCyXPhfPAeSF/sFX/wl+Omc0VGsI3GzTeHpjP5rGZvJ1+v891aq2v4vngx0yrXsGeHXY49yZEXKvM37J0Z2ZSL/kd6byQZzTP3jCf3M3nAjq4oBV2eBUDW2E20ani1AcVyCdtsa+a9aPiHemHdxQe3HoEMMOoJm3hG4UCWBfmMzCQcBN5O6kPPRxBDeFvWbJD8Y5096nyTd8Ten0TDFbSqiF2ycwm2YTZxFTcJGHSzAzqExr2FPXwYT7DziHZSt5O6kMPh8/O8KnHDrOJqThMDeu1Up/QcEiohw/zGXYOyVbydlIfejh8doZPPXaYTUzFYWpYr5X6hIZDQj18mM+wc0i2kreT+tDD4bMzfOqxw2xiKg5Tw3qt1Cc0HBLq4cN8hp1DspW8ndSHHg6fneFTjx1mE1NxmBrWa6U+oeGQUA8f5jPsHJKt5O2kPvRw+OwMn3rsMJtMp+IY+7HfjVF5PE+JUB9UgM92xq7HeygBVxvSBPPZEJMUF43JToxxkPJ+N8bqv33HMt/tdiOEFMNBdyX1oYfZZCIVx6gc1XyISjvx70JHrntw3Qx1r2qhPqgAJ+2Mnak4kBiEm+DfHcEYjJtw3efIdc9p1pd2QjXjMSoXOkRfYJnPVDz6bLFWT5hNZlFx7CtGzn/yXwc/zefga9dSUFmWihco2pnPAPZ6r7fWo/xxJ1ddnbXSOpy1APxwQ6xVD/PZPFiisROjOlSWHXrBYsoZ1icHfwScd2LfiVixUB962CHh4COM3fX1imMZ6xXdYsJKmE2mUPHg6TRXN+RIEzE5+Uw5FVU+E6tbwyU0PE+Tz/fT78e+P3Rg/e/HPH71Z/bgVfRuDYe93uvt/e3XWfNmy4X8k53bb5xSsLPklN62EZg/HHwCS5NZAuYzGRuiWSUaO1HlqHN33AXWpyHXfRjHdnJYXegxRtizDTcswo1rVBwwROMKMn0U4SOMn1+z8s7PPi6urpKYse7Yb9dNnrDg4H5JvRU3FbFbEUg4m2E2mUPFmzae0WyBxuJCKvY7wsFTrI81qH6EJm7dfMvUSa3zc/l/t06bNHnbFr8FLzKFw36ozH3T1Imt83MlQv7Jzu085EnbNis601qV4eBbCwVgLcxnYCDhpoh2Yn9pGAk/zX3ctDEmm1WEHtd/h1z/K/rxuRFVv4qRJc9LKcKvaGi4e+b01vm5EiFfd+y31Ikfts7PHbZsUTx3IMUUIP06K2LXbznyM8NsMoWKo6oXwhyI83xOwXUzY3JcTEFFGA9dtqjNGf0WhLx1fu6/VyxBGMe0tOGdAex7Sh0SIRckfPzmjRSQmV0XNzz9BAPg353gV4vqZoXOpYv318XlNFT1vDBbNAUg8xWH49opIv0Wlk5F7ocwUj4FrTiPSSrDwS+trZUIuSDhTy1Z6LXsSUex28NhF/exdBlmkzlUvOJpkM/XoZoJMcUgpqB+e2CfWLkl5YWHDsS0tOGdYexiIZ+wZRMPlhoJZypuePoJBsC/O0EVry1AjuuUdPSMoFYMEWaLpgBnvmQG7N0ffulUVPO+pL/5NwH4YiGftWc3fxROjYQz1ptDxateNOpYHGPc/atPFQ/EW+fnti3Ie2juV+YnsNhCgMx8N0HI6ZNwxmdxJhhbjqzikY/FX4gJQsTMF8+GKv4N/eaU3opxk7i/+cswfEHIedbTJOGM9aZQcdy0Ofx+cfCeVewvjYlFcELzUwXvaqmfU3mym+TgW75Z7/XGtLqxnaPBPnLFEgGm/GY3Y+2Pc/Vo4Me5hLHDI6qjseYJq0e0E/udka6L/yzMFk0hytDjxrWorBf4gxM8GYA9O6NZ1Dx9IsL/+tc9AuuLKivMY3n8lkTEHv8Sxs4As8kcKo4xcncPs2uciipHx+rBiEHFGKHKZ5Aj2VF0k5DZ4QoVDQ2xGmBg/4jYhWvhPF7JzW4GWq7J0hHha7KKgZPAfDbQMMnS0diJKv8TRsjTkPv+WG/UiCb0uHZaSL9TI6t4U2z7EBL45Ddh+MK1cJ71kpvdyFur7Yowdm3XMmQ2mE2mUPHgRTL/KeTsfC6l+efFe6m40yRiUHHdTJ7GTadSr5/0Tjj9bp2fe+NHBda6Ux3GLkj4+M0bhVPrNAk5DN8QBmq7KMxnbdeKZ7Zo7MSoHpX1VnpevDP2n4x19Yihj3TO78z1eEfoWDz2B9ZjNVjb/gB8QcKfWrLwZHW15GY3bc0wZDYAuyH2aL4ozCazqHhQyFElrp2InH8/vZvsSsd1X2Cs/JYS2E1wUIMH4s67hJ3xl5cObFfwvqKQtyvIe3P9D/BaZmsFsIslnD/QoU/IAfjaRsp5wj3j5TnPd3vr+W5vff7K167iMm3nDzcbzOdwo8jXR2knxh5c9wVyZZzmo/PvuLYAIzXneyOGHlU8GeaE3zn6HTyWKOtH3mNxrhgOvljC+TvShWvk1ByRh8Mep0vlw2sr676bsOTlB959rusbk0ZML/r1uLyPHjUwm0yk4jz44OVqVIlRTazn08S+g4MquT312NFb209+u22+VMjbFuR1+KjgZE21eGbzlxFCrpL1vqoJEgfudpR0mPLW15u6T966QtwkCPlL61abH11EC+HQRxweTQeM8cxxc9ObZWck5nRJyOqSkJWRmJPePHvWq/PEjo1mKhV9YD6rmFCnITHZGXqPek2Q+DG+6UVsPBx6jD3nnuqTKLewmRK8EcezTTyzJcp+z+/OY+/7/Y1ia8sb6jt89OHn6//16upPxA+VCUKeNW82gaQVm6RHGQ69Viuunb2hW4s+6c2yuzQLsj4zKUj/tx6Z4GnS/cYpmE2mU3FNPA4HFXu2CgfifGHnvjtu/ujNNvkftMn/oHV+Lv//rdMm7SmN7W0zmhgf5yR+b6nz8IO+klRU84GYnxhVO46HjnjKH5MssddZ+uj8b6oaz+G/pI9VNuHQa4Ji9tvzefGW/z/nnfmaLAFMAvMZGEi4ibydcOgxqpKwXmkzFTmux43LCfsq/uUw9vqcGc7Dmb7yp8TnLzH2nTrxOHIk+513Se66L62tfeS7uXTc5gaHPn73BgKBnxdt58Vbwvr05tlv9BqvyRLAJDCbbKnivkI5gatOXD9zw4MPfzn6f6e/1POrF7/c+4tFb94OHouf+Cqo4o5kQcgxqkbuh4I1pX/D3oNAuli9SW8+11bW3feH3hImC5v3tehTW6nvm79gPpsnfOTthEOPsQ85bpAT/5yamgnY7zKPD2OyxN+w3nm4e5D4FUN4IQ9CrhwRAng9blwb02zW6gyHPn4sGOP+ycPSQ4fgAtnFhcM7CuNfBZgBZpMdVTz4fKH7gfDvmUnFtVMAh5q8iU9of82s0z9PNR/YR8IJPDm6YOKy4Cm10Il0+f/pzbK/n6TvkRzMZ/MkJ3k7I/6Uo8rnw18XT0MVI8zjPRWWBHffT63zldwYJH5QyBtsIuEEWL93/QE52YWazKScDwdPVRGy6IfAbLKpiuPGFefsg4fuSg3VpKLSW7Gf0J1K0Ucx+p7Cb1noDZfC1T76j8J5Fwnwo/dYTD3zn/o487xeAoElha7n9cp/+pOYJoy1M8znWGfTrz95OyOGHnsPh94WJ/5+mkCQVOz5RT9vEJiZh+9vWH/uKQfKj8J5x0YMfZz+Xzx1lYTpks3h/4jtDUWx2gOzyaYqHnoB5Mch2RZ/SC0Vld6CPbtjdbGp+osTGtdOFnZW6D6RLoRADF+o1LAwacR0QMUzz+s1eeRnGi4nnwrms7y/UTXk7Ywm9LhxdUjIxaxPC97O1rDYKEdpta4AHzf9cJb1jSu0mt/M8wjYdTJy2adrJLIt2Xzmrpd1WpqfFmaTfVU8KOSeXaF3v4TOQTn/gWrGx/rxNF0jp25yIaHPnkjnzzSce7ObusnNP0qAr5Op67/dLCGwZHP9t/p+Gg7ms06oVUxL3s4oQ499Raj6DVT616DUld6Cql7B3iMqAJptCA/f7/ecOZEeOs1w5hq52azV1p4oQ6960eLDpyQ0F29mJOZ8/srXqiePZiDMJluruOA+8b3cQqVFC6fJ7KsUbmdDVS+d3je3gZBryOeapqavf93z/qb1BVt//uXM0wo+ry/rikGKl8bTm2VnXznI79P3y/Qwn82TtOTtjDX0NLGevzbscpX6KkaGyH49qn7t9Kl1Gwh5rKEHaOL1eH+cu+mzF2d//srXW5ftQmc+Tj36nleFJ0vFEh580LR5tvukvhdhYTYxFQcCasmm4E0uzt99rodDhxqn70g/e42cdiHXhM8I4w83b0qbNKFNfm7yxPHtCvJa5+d2nz2rsDzI1W0rdvMPiIvJnN48+Pj49pW6X1uF+WyelCVvpyahN48DY7XE7/c4j70Sejjl9LVw3LTBJkKuVehXzfrxoUsHBp8FP69XZlLw9pdHrhmyc83eQCBQfPjUgxf3VxTy7z5cEmuwYu0PsykqFfd6vWvWrBk9enTHjh1btmyZmJh4xRVX9OjRY8mSqKyHLYgVTzT9tQpqNGuZrY/fV+ksHBIk87kPlYmF3Gw2a2iPJqF/9ce18nf5tSvIu2nqxGOhz0jsXLN3QMrw0G54Tkbz4MsfBqYO37U2yHa9/8izSR0i8nZqEnp1YA0fhbHPVzEy+Lx4SXvxQ2U2EXJNQq948Tu9eXZmUg4v5McPnhxx+wtdErL4XfYuCVlZVwxa/tk6AtGH2RSViq9evZoL/V155ZX3339/Tk5O+/bt+ZrBgwdHPDEFW6CHCzQJqh6GEZjT769z/jbK57hNfjsbL+S4bjoBM4xaIv7Q/+oslUs4X9OuIO+JRQt4aBjjX37c903eom/yFv3y476ILNDKIeTZpM5y8nbGH3p1SM0wCmPsqxjnPHy/v36NxJ7TQl71XDzvxZPMabbN+ENfV1XX7YJHxGfXhHJ68+y+1z4lnFr/bc/v8/OXzvtg4aaF23xeHxlXwGyKSsXXrl3bs2fP9evXiy3++uuvmzdvznHczJkzxfXyMmyBvH/8NfEHNX4bjJoheEbdddLvUX4LAfbuN8owMuvGH/qxq1fwp9AVtbxNfu4pQ1/KS55N6gJH3s74Q68OqUlG+f1+l2OHIDZiq7D3IMUSrsnz4vB7ILokZG1bYeSzSzCbolJxcUKIy4MGDeI47t577xVXysuwBfL+8dfYmc92xq4Jn++ZOV1Rv4XKFYVG3tJMnk3q+EjeTpb5brdbUcXVRdBCo+IP/dt9Jyhe8+aPyDOTes16dZ6BDoHZFJeKT5o0ieO4lJQUGB5sATxWXWv8QVW3rhlG2Rm7Jip+9+efCoKtWFh29LCBgSbPJnVgydvJMp+puLpcDQQCb/b5MKN52HcyZp7XS+9nyWDLYTbFpeIjR47kOK5z587xWACPVddqZz7bGbsmKj5s2WLgjHrr/NzfKsrVpaUmo2A+a7KEJpOQt5NlPlNx1ak755356eFVvEtClt7vgYAth9mkXsUdDkfLli05jisoKJBb0NTUVH3mr7i4mOO4yspKROrP5/O5XC6fz0dqQROtY2fsCKH44W8+cbxtfq7iv+SCvEe+nWtssCsrKzmOq6424wdzGesNzI34M99A4+NcOn7s5Y6Kruf3Sm+erfgv64rHPU2eOI2MZzjMepUq7vP57r33Xo7jbrzxRo/HI1fxcePG8TexC/8XFRW5Sf05nc7CwkKn00lqQROtY2fsbrc7fvgul+uFRd9nTJvcZeo5/zKmTb7vk482Hz5sbLCLiopMq+KM9QbmRvyZb6DxcS6tCfavcr8Z0H6o4r+Vc9bGaWGcw2HWq1Rx/r62Sy+99PBh5WuEbK88nj2veMbGv1saz+qGj9UEfoPH8+yKpW3zc1MK8pIL8lIK8trm53b6ePKW4hOGA4T3yuX70yRrGOsNTA9NMt9A++NZWhPsfr9/1mvzup7fKyMpJ/jWl/N6pSdmd7+o7/IZa+OxTZOxMOvVqPiIESM4jrv44ot37doVzW8EfE4/mhli7RP9FbJKV9Xa2RuWfbpmx6pf/H59350ZKwp1/aPHrm5+k4/SEH5RZcX7m9YPX754zOrlSw4f8pgjPcizSV3EydsZfegxqseNK3H9XNy4CuNGdQDNNip6+GazPH57NMReUVo55535b/ed8G7/goWTV9RV18dvXvwzwGyKWcWfffZZjuNatWq1ffv2KI2DLYhykpi6RRPU6vKad/sXZIZes8c/TtDrL08s/Xh1TAuZsHM02E1otlYmUQ+fPJvUhYa8ndGEHmMvqvkAld50+ssCwQ+i3IxqPsSY0Os71DkzmlHRwI9mHiv2oR47zKbYVHzMmDEcx7Vs2XLbtm3RBxu2IPp5ou8ZMag1FbWPXTdS8QHBWa8Z+Vxg9BjD9YyIPdxAOuqph0+eTeoSg7ydEUOPsQ9VDEYO+ffFU1DFUIytfSouInx1cbTEKOqxw2yKQcXHjh2rQsIDgQBsgR5ZEjGoE4d9qijh/EH50d1FelhFZs6I2MmYYdQq1MMnzyZ1oSRvZ8TQ4/qvzx6C85/rFf2PG+arQ2qSURHhm8ROPcygHjvMpmhV/MUXX+RPpMd0FM4HDLaAfFDraxruv7Cv8JpcSSEzKWf8Ex/pYRWZOalPaNiN1MMnzybY4eFaydsJhx5jjNzdlA7EQ9/hdqQi90PhsFiiHoZvCQiqjaQeO8ymqFR84cKF/ANjHTt2HCD7GzVqFOx92AJ4rLpWOKi71u6VKLdks8/VT6pb1wyjYOxmsFBXG6iHT55N6uJF3k449BhVAAfifBNGpriVSZ3DYfjq5rTKKOqxw2yKSsVnzJghPPYtL1xzzTVwsGEL4LHqWuGgblu+SyLbks3sKwepW9cMo2DsZrBQVxuoh0+eTeriRd5OOPTY74xCxSvVgTXDKBi+GSzUzwbqscNsikrF4/Q+bEGck4uHY+zBuCniazhPHi2RyLZ4M6N59r/velk8rbXK1Cc0HA7q4RNjE+zniK3E7MTYh3FD8IQ5QsArSIN3p4tvTRddET+t7qV/tfSHv2D4EeNl6Q7UY4fZRIOKY+zF9d8gd4/TbHTd7a+Z7nIGX9ARLjWfuetl4N33a7865xus4SYxZz31CQ27nXr4MJ9h55Bs1dtOjDFuXIvKB5y+1F3ayVeV6yo9DLAeVb+JHGlhjsjTUM37JP2j+VrUZz7gMeqxw2yyvIpj3IDK+4WYefYBEl9JmvPoQL/XGS7we37an5GYk95M+hGbzKScJzo86/V4ww00fz31CQ2HgHr4MJ9h55Bs1dXO4JF31Ssh1p9VZV/Jdc7DPf1N+8LBxP5TqPRW5EiVCXkaKu2E/Y5wAy1RT33mA1GgHjvMJsurOKocK6elryTVebibz52FMQ4X+40LtnZr0Uf4jg3/4NmQW8dUlFr42ljEqwnhvEFNvc35bJ44wr87cdqJ6z6XKXFyiPX3+Ry3YVQbbn7s3Y+cfxft9IcU3Xk79h4KN8Qq9dRnPhAI6rHDbLK2iofuWJHvWfN8zvSVpGLPTiD21WU18z5Y+O9/vvTkLaPHPfT+liU7KHgJK/UJDQTUDjsxMJ9h55Bs1c/O4MtbnLeHUfEQ6+tnA0iDF9Hrvw2einf3QOWP4Yb5/M00wBBLNNmZ+NRjh9lkcRWvm6n4AGhorzzTV3I9qh5nCQZqaCT1CQ37inr4MJ9h55Bs1c9O3LRFLuHIIey7p6GybJJITbIW9ZkP+Jl67DCbrK3iqGY8clwnp/QZFU9DFcOB2FPZRH1Cw1GjHj7MZ9g5JFv1sxM3LpNTXqTiqcj5vySRmmQt6jMf8DP12GE2WVvFcd2n8oviIj5fj6peBGJPZRPdCe33+wt/Obb/50Ou4jLF8NEN35D3GSv6OWIl/LsTcTjQATdtjKDi7n8Bw2ltojjzMcaF5WU7Sk4WVVYo3upEMXY+XWE2WVzFfSfAM+qpuGkjraQNh4vWhPZ6vHPemd/rL08ID/f/J/21PT/tl/iBVvgCTJjPQjfDC/rZibEHlXaUC7lwBg7XfWo4fPIGUJn5GONvD+xL/2JG6/xc/l+3r2YuOnxQ4l4qsYsxwmyytooH72aqeEr+DGiIz918zq6Wfo2DOIrRl6lMaK/HOzbjdeGBAl7Ig88KNs9eN+ecHTUq4YujD/NZ3NPYsq524toC+e57iPX3+Ry3YFRhLHZDVqcv8zHGb/y0rnV+bpszEh4q57XOzx2/mbH+bJZZXsUxqkLu7pLz6r6S651HcvyeY2eB2qZEH5kDgcDnr3wtkXDhiDzzvF6lv7uE8FIJX0DHzqjzrgh9Y/SpkJCL3xJxvfNwD3/Dz2J32adMX+YvP3pEOASXF9b/fvbnnT7skryF94ktr+KBQACjOlw7GTn/cfokW+ktvsp3XaVHgbc4SXxE0yZ9Ce1p8j506UBBtiWFjMSc6S98JUSQPvgCNL4A81nS2cBNve3E2I/r5yBX5plT69f7Ksa6Sn+xJ+upfMYya97stgXBI2/5v3YFeQO//1ZIb5uzngYV52MZZLX/FPadCF42A9+oLMSeygJ92Pf8tPSE9xkAACAASURBVF+i3JLNASlnn0SgD74kS/VWR8lyqjfJ2Bl8D6u/FPuOY1RPfejhWFAGv6qxUS7e4po2+blNPh/vE8qwywMNs4keFRcjpz6oYrCSMn3YNy/eIZFtyab4G3T0wZfEF+azpLOBm+TtpD70cDQpg3+qplqs2YrlqsZG3ieUYZcHGmYTU3G5x6xdY6GEDp47qf8W13+Jm37C+PRutdz7R3cVSWRbvJneLOupjv8RRlkIvmBzTAWYzzFNpWtn8nZSH3o4XlaBj1EVbliI677AjcsxbggHqsHrTZ44XlG8+cq0SRP8Z753ZRXs4cBGrIfZxFQ8ogMt1sESCY39pajiyXNuM3bejuvnKfoaY/z49SPTm2WJxftsuVnWoikrhIGWgC9Yq6IA81nFhDoNIW8n9aGHI2V++MEvVwW/YXND6FaG0G2JpTejmgkY+xWhjVyxpF346+IvrlstjDI/dsFUdQWYTUzF1XnVvKPMn9DBt987/yl/PhA5knHtNEXPrpuz8axsJ5yV84zEnJz/fqK+5uwevfnhKwKMvhLmc/Tz6N2TvJ3Uhx4OmcnhY9yEynpJHiY6LeeVzyo+Erzf5UyeOF78mBl/FN4mPzd10oeF5Wff+2Ry7HDgommF2cRUPBofWqmP+RMaVT6rKOE8pbGvSNHdc95d0CUhKzMpR5Dz9ObZ2VcO+n3/CXF/88MXW6uiDPNZxYQ6DSFvJ/WhhyNlcvi47pNzzr05ks88XBAs4Mazp9PEMFcWHkmZOF58RN6uIC9t0oc/HjvnV8Lk2MWI1JVhNjEVV+dV844yeUJjf1l4CU8ONlW/Fc65h7YXvj9w0r8uGdCtRZ8BycPmfbCwpkL6DUqTww8HLfp6mM/Rz6N3T/J2Uh96OGRmho8xCp1+O0e5RSqeisr6hkP3e2XlW+t/6PTJlLRJH9726UfvbVx/srpa0tnM2CWmqtuE2cRUXJ1XzTvK5AmNG1eJ2KvEane3eJxrcvjxQOPHwnyOf36tZiBvJ/Whh0NjZvg4+KpsJbKfrUxRPKkOQxZazYxdMDKeAswmpuLx+NaMY02e0LhhaQQ+u7rE41aTw48HGj8W5nP882s1A3k7qQ89HBozw8e+3yKw3pGMsRcGCLSaGTtgdvRNMJuYikfvSWv0NHlCY+8BkM9pqOLJeBxtcvjxQOPHwnyOf36tZiBvJ/Whh0NjZvjBd/KcvjU9zBG58y4YHdxqZuyw5VG2wmxiKh6lGy3TzfwJjdwPQve5NP0Yj6/NDz8edOw96oD3qA89gN38b2BFVS+EvyEmJdzDKTBkoZX60DMVF2Jti4L5Ezr0fegUJSFPQ2V94rk8Zv7fsvhTEOZz/PNrNQN5O82f+Vr5VnEek8PHvt9R6c1KT5qlIeddGFUqgoqy0uTYo0QBdIPZxI7FAddZsskSCY0bl4XOsAkfpEoLnmYv64eR9O7TWGNgCfixghL3h/ks7mlsmbyd1IceDqj54WPvHlT6t9AFtdSz/7u6YN9xGFrEVvNjjwgB7gCziak47D3rtVoloTGqwHWfovL+qCwbVY7Gnm0YY7m7az2eWXt2PzDni79/OjXjixn5W3521kmfLhOPsgp8sc0xlWE+xzSVrp3J20l96OF4WQI+xo24/jtU/n+oLAtVPI0bVyq+ehljD25Ygsr6IeedyHUvqn4D+woB+JbADtgfsQlmE1PxiA60WAeaEvqA29Xx4ylt8nOF9ze1LchLnfThmt/CUpom+IqZB/NZcYghleTtpD70cBypgY/9buTufvZgPfg0WhpypOC6T8N5gBrs4QDCbGIqHs5vVq2nJqHd9fV/nTZZ/Nom4f2LyRPH7yl1KEaIGviK6NjdbeHcYodbIgDs1MDH2I/cD4S7Dw43LFR0gs1Zz1RcMSssXElNQhds/blt+G8hDFnyvWKQqIGviI6peDi3UCNjAEC4iY7Mx41rQkfhYR5Ic92tePcrHdiB+LJjccA5FDZRk9D/mD4V+C5h24K8ioazH0ERAkkNfAGRpADzWdLZwE3ydlIfejiadMAPfeowdK/r2de6naPo2LNN7gc6sMtxCTUwm9ixuOAoSgp0JDTGWLgWHk7LD7ic8pjRAV+OS6iB+Sx0M7xA3k7qQw/HlA74yHUfdCzuSMYNC+R+oAO7HJdQA7OJqbjgKEoK1CR02qQPw+k3X19UWSGPGTXw5dD4GpjP4UaRrydvJ/Whh4NIB3zkfjiCijcul/uBDuxyXEINzCam4oKjKClQk9BDlnwvv7WN1+82+bn/nPExUnoyjRr44dIR5nO4UeTrydtJfejhINIBH9dOUnozjHBS/XqM2L67NBGYiks9YvVtOsgcCAQ2F58IdyzeJj/3s907FSNFDXxFdOzutnBuYXe30ZH52O9EjuvCHI6nocqxiglAB3ZFaHwlvE/MVBxwnSWbaEroDzZtkAt5m/zcQQvn+xBSDA9N8BUBwnxWHGJIJXk7qQ89HEdq4OOGRaHXM/PvdxOOwtOQKxOjKkUnUINdEV3EfXem4uH8ZtV6mhIaYzx33967ZnwiaPmt0yZN2LLJ6/eHCw9N8BUxkldHRTMiVpK3k/rQwz6nCT5u2oDcPUVH5DeiqnHA65lpwq4YZZhNTMUVnWbhSvoSGmO821GysvDI5uITnvD6zceMPviSXIT5LOls4CZ5O6kPPRxN+uBj7xHcuAY3bcAIeumyHS6mwGxiKg5Tw3qt9JE5phhQDx/mc0y+0rUzeTupDz0cLzvDpx47zCam4jA1rNdKfULDIaEePsxn2DkkW8nbSX3o4fDZGT712GE2MRWHqWG9VuoTGg4J9fBhPsPOIdlK3k7qQw+Hz87wqccOs4mpOEwN67VSn9BwSKiHD/MZdg7JVvJ2Uh96OHx2hk89dphNTMVhalivlfqEhkNCPXyYz7BzSLaSt5P60MPhszN86rHDbGIqDlPDeq3UJzQckmjgY78b105B7geR615U/ihuWISxB57WPK0wn+1sZzShN49/NLfEzvCjwY5RLa6fjcp6BVlfloXrZmJUo3kUdJoQZj1TcZ3cbti00SS0Ycbpv3BE+LhxJXLcIHrLY+jlEq57sa9Yf+s0WAHmswYLaDQFeTsjhl4jZCadxs7wI2LH3n2o9G+hB9BTzvyfgkpvxR7lV0CaLcYwm5iKmy1e8doTMaHjXcDc42H42LM9pN88k4XXQiUjRxpy3Y1RnbnBBa2D+Wwe+8nbCYfePJ7RyRI7w4exY78Dld4q2nEXiJ+KSjtg3+86RUTDaWE2xabi8+bN69y5c6tWrS644IIOHTq89957Xq83oq2wBRGHq+gAB1XFhBYaYmfsEd//gMoHKJH5NKtx/WzzB5o8m9T5hLydLPPdbjcK82ZidUG0yig49KjmveBuuvIHy9NQ1SvmhwmzKQYVHzlyJMdxiYmJGRkZDz/8cKtWrTiOu/POOxsaGmAvwBbAY9W1wkFVN6dVRtkZO6zi2H8qDJN5FU9B7h7mjzJ5NqnzCXk7WeYzFZfnKsYodCAuHH/LC+0xbpIPNFUNzKZoVXzBggUcx1100UU7d56+kOB2u2+88UaO40aNGgUDhi2Ax6prtTOf7Yw9gop7toEqnoxKb1aXbyRHkWeTOnTk7WSZz1RcnqsYVUdgvSMZ+0vkA01VA7MpWhXv1KkTx3FvvvmmGNuGDRs4jjv//POrqpQ/NcN3hi0QT6hV2c58tjP2SCr+SwQ+l/5NqwzUbx7ybFKHhbydLPOZistzFeOmCKx3JGNULh9oqhqYTVGp+MmTJ7nQX1FRkQTbVVddxXHc7NnQBUXYAsmEmmzamc92xh5BxbEHlXYMT+mwXy/WJCe1moQ8m9RZTt5OlvlMxRVzNfh0mUPynVPhvHoKct+PMVYcaJ5KmE1RqfjixYs5jrvkkkvkqB566CGO48aMGSNvEmpgC4RuGhbszGc7Y4dVPNhaMz48n5Oxd6+GSajTVOTZpA4IeTtZ5jMVV8xV3Lgs/L57Mq7/RnGUqSphNkWl4gUFBRzH3XyzwlXDESNGcByXlZUFYIYtAAaqbrIzn+2MPaKKY9yAyrIUhRzXTlSdbyQHkmeTOnTk7WSZz1RcMVcxxqjyP0pCnoIqhmGMFEeZqhJmU1Qq/tZbb3Ecd8cdd8iBvfDCCxzHZWRkSJqampqqz/wVFxdzHFdZWYlI/fl8PpfL5fP5SC1oonXsjB0hFBG+31/nq3zTV3KTryT19L/S//XXfmuiEIKmVFZWchxXXV0tYZwZNhnrwdDp2xgx8/Vd3tDZI2L3+33+6o99pX8/y3pHJ3/1RL/fY6jh0S4Os14vFR83bhx/KV34v6ioyE3qz+l0FhYWOp1OUguaaB07Y3e73VHCdzlPuE6tcp1c5CrZ4HJZKU+KiopMq+KM9Qb+EESZ+QZaqN/SUWJ3uRyuU+uCrD+11uUq0c8ezWeGWR+Viqs4o872yqPdy9K6X8TdUq0XNNd81MOH98qNPSJnrDeQDNRnPuBb6rHDrI9KxRctWsRx3KWXXir/jeDvbhs9erS8SaiBz+kL3TQs2PkKmZ2xR7wurmGOGTUVeTapQ0reTpb57Lq4ulw1/yiYTVGpOH9hm+M49qSZ+ePNfsvo/i2D+Wye/CRvJ8t8ujMfyG3qQw+zKSoVDwQC7K0vQA6Zqon6hIa9TT18mM+wc0i2kreT+tDD4bMzfOqxw2yKVsXlb2AtKytjb2CFeWVIK/UJDXuVevgwn2HnkGwlbyf1oYfDZ2f41GOH2RStigcCAf7R8KSkpK5du/bs2ZP/Gsodd9zBvoYCs4twK/UJDfuTevgwn2HnkGwlbyf1oYfDZ2f41GOH2RSDigcCgblz5951111/+tOfWrRo0b59+3fffdfj8cC5ZcgXkakPKuBzO2Nnd7cBiUG4Cf7d0cMYlvnsurgeeWWGOWE2xabi6vDAFqibEx5lZz7bGTtTcZgXJFsZ60l62w6ZD/iT+h89mE1MxYHcsGQT9QkNR4V6+DCfYeeQbCVvJ/Whh8NnZ/jUY4fZxFQcpob1WqlPaDgk1MOH+Qw7h2QreTupDz0cPjvDpx47zCam4jA1rNdKfULDIbEcfIy9uGEhKstGjhuC/8p644YlGPvCwYT5HG4U+Xrydlou9NoGxc7wLYcdY/zjsaLHF86/fvKElInjM76YMWvP7rrwN5nBbGIqri2VjJ/NcgmtrcusBR+jWlTWJ/S1JeH7x6FC+QCMGxQ9A/NZcYghleTttFboNQ+KneFbCzvCeOzqFa3zc9sV5LXOz22dn9sm9O+emdMdtTWKiQGziam4otMsXGmthNbc0daCjyqGKn4mNVhZqfxWY5jPmvtT9YTk7bRW6FU7NtxAO8O3FvaJWzfz4i35v11B3n1ffY4wlocYZhNTcbnHrF1jrYTW3NcWgo99vyl98zj5TGUK9p+S+wfms7y/UTXk7bRQ6PUIip3hWwh7o89740cFEv0Wb/54rEieHjCbmIrLPWbtGgsltB6OthB8VPMhcqSd0WxBvIVCKq6dKncRzGd5f6NqyNtpodDrERQ7w7cQ9qVHDos1W1JuV5A3YvlieXrAbGIqLveYtWsslNB6ONpC8FHV88hxXXgVvw5Vvy53EcxneX+jasjbaaHQ6xEUO8O3EPYZu3e2PXM5XCLh/Gb2vNny9IDZxFRc7jFr11goofVwtIXgo+q3wGPxNFQzXu4imM/y/kbVkLfTQqHXIyh2hm8h7N/s/1VRvPnKNvl5gxbOl6cHzCam4nKPWbvGQgmth6MtBB97toU/EA+eV8feX+Uugvks729UDXk7LRR6PYJiZ/gWwu6urxduTVeU87n79srTA2YTU3G5x6xdY6GE1sPRFoKPMUbu+8Mcjqehsp6K/oH5rDjEkErydloo9HpExM7wrYX92ZXLFIW8bUHezVMnNXi98vSA2cRUXO4xa9dYK6E197W14GPf78j5d5mQpyHnHdh/UtE5MJ8VhxhSSd5Oa4Ve86DYGb61sFc3NXX7aqbk6ni7grzrJk/YfkoN65mKa84mgye0VkJr7izLwcd+B6p6BTnanz67XtoBVb+G/a5wniGvjuEsgevJ22m50MMOjLXVzvAth73O48n7eeOt0ybxJ9XbFeQNX7b4cJk7XNBhNjEVD+c3q9ZbLqG1dbRF4WNUi737sHc/RvWwQ2A+w2NJtpK306Kh1yoodoZvUewev/+A27Wn1FHRoPyiRiE3YDYxFRccRUnBogmtlfephw/zWSs3xj8PeTupDz0cFDvDpx47zCam4jA1rNdKfULDIaEePsxn2DkkW8nbSX3o4fDZGT712GE2MRWHqWG9VuoTGg4J9fBhPsPOIdlK3k7qQw+Hz87wqccOs4mpOEwN67VSn9BwSKiHD/MZdg7JVvJ2Uh96OHx2hk89dphNTMVhalivlXxC/+IoGbNqedcvP+/21cyX160+FP5OSwLeJA+fACjxEjCfxT2NLZO3k/rQwwElDB/7jqHqt5H7AeTuhiqfwZ5tWOljXLDNWrUSxq6V2dHPA7OJqXj0nrRGT5IJ7fX7n12xVPyhXP5tBm+t/8EoSpOEb0hCwHw2xCTFRcnbSX3oFf0sVJKEj2unIEeK6D0HoY/6VAzGOMK91oK12hZIYtfW8ihng9nEVDxKN1qmG8mEfnHtqjahr9zLXyVYsPVnQ1xGEr4hAGE+G2KS4qLk7aQ+9Ip+FiqJwcf1X4V5c3AqqnhasIdkgRh2kqDEa8FsYiou9hUNZWIJXVxdFU7CW+fnpk2aUNPURN6hxOCTh8avCPPZKKvk65K3k/rQy50sriEDH2MPKu0URsX5l//vF1tFpkwGOxksiqvAbGIqrug0C1cSS+gPN29SfBvwmY/z5M7+dQ95PxKDTx4avyLMZ6Oskq9L3k7qQy93sriGDHzcuBKQ8OA59upxYqvIlMlgJ4NFcRWYTUzFFZ1m4UpiCf3MiqWAiqdMHP/Oxp/I+5EYfPLQ+BVhPhtllXxd8nZSH3q5k8U1ZODjuk9El8ODB9/Sf+WPia0iUyaDnQwWxVVgNjEVV3SahSuJJfTY1SuSJ46XXxEX3gw8fvNG8n4kBp88NH5FmM9GWSVfl7yd1Ide7mRxDRn4uG5m6L42mXiflvMUVDFEbBWZMhnsZLAorgKziam4otMsXEksoRcfPhhOwvn6rSeLyfuRGHzy0PgVYT4bZZV8XfJ2Uh96uZPFNWTgY99R6cH3OYfjKbhultgqMmUy2MlgUVwFZhNTcUWnWbiSWEJ7/P6/fjxZ8n094UA8/YsZhjxsRgy+USkC89koq+TrkreT+tDLnSyuIQYflfUNc1I9BTk6YFQrtopMmRh2MnDkq8BsYiou95i1a0gm9M8njqdMHC8R8nYFeTdMyT/gchriR5LwDQEI89kQkxQXJW8n9aFX9LNQSQw+9h1HpX+TCXkKcqTixpWCPSQLxLCTBCVeC2YTU3Gxr2goE07oXSWnHp77lfjUer/584AP5ertYsLw9YYjnx/ms7y/UTXk7aQ+9HAoScLHvhOo4slzLpC7e+AmA+6D4X1CEjscBZ1aYTYxFdfJ7YZNa0hCHypzLzh4YOGhA8cqKwxDHlrYEPgkIcN8JmkJvBZ5O6kPPexw8vCx/xRuWIwbvsfefbBtereSx643Isn8MJuYikvcZflN6hMajhD18GE+w84h2UreTupDD4fPzvCpxw6ziak4TA3rtVKf0HBIqIcP8xl2DslW8nZSH3o4fHaGTz12mE1MxWFqWK+V+oSGQ0I9fJjPsHNItpK3k/rQw+GzM3zqscNsIqHiVVVVHMcVFxdXk/qrrKwsKiqqrKwktaCJ1rEz9urqaurhFxcXcxxXVVUF/6Yb3spYT/hHgfrMB/xJPXaY9SRUnLeAY3/MA8wDGnmguNiAN+rEtGfAWK9RqNk0zAOnPRCO9SRUHCFUXFxcVVUF7Exp28T/gpA8+tfW/nhmszP26upq6uFXVVUVFxcjhGLSVPKdGevjYbGKsdRnPuAT6rHDrCeh4uR/QeCrCOTtIbminbEHAgGbwyeZaWZby+ahtzN8O2MPBAJMxc32WxSvPTZPaJvDjzd7rDze5qG3M3w7Y2cqbuUfrTC22zyhbQ4/TFLYotrmobczfDtjp1bFm5qaxo0b19TUZItfr3NB2hl7IBCwOfxzc8FeWzYPvZ3h2xk7tSpur18vhpZ5gHmAeYB5wK4eoPO6uF2jyXAzDzAPMA8wD9jLA0zF7RVvhpZ5gHmAeYB5gCYPMBWnKZoMC/MA8wDzAPOAvTzAVNxe8WZomQeYB5gHmAdo8oDlVdzpdM6cObNPnz7t2rU7//zzW7RokZqaOnz48GPHjkUZp2uuuUbxFX+33XZblDMQ6zZv3rzOnTu3atXqggsu6NChw3vvvef1eqNcfceOHVlZWf/1X/91/vnnX3vttcOGDXM6nVGONbab1+tds2bN6NGjO3bs2LJly8TExCuuuKJHjx5LliyJxrBx48YpxpfjuIMHD0YzA+tjNg8w1kcZEcZ6OffpY73lVbxv374cxzVr1qxDhw7Z2dndunW7/PLLOY678MILV61aFU2u8yres2fPAef+vf7669EMJ9Zn5MiRHMclJiZmZGQ8/PDDrVq14jjuzjvvbGhoiGjDN998k5iYyHFcp06dcnJy2rRpw3HcFVdccfTo0YhjDe+wevVqnopXXnnl/fffn5OT0759e75m8ODBGGPYQl7Fb7rppnPDG9wqKSmBx7JWc3qAsZ6xHs5MW7He8io+fPjw11577eTJk0JQa2tre/fuzXHcJZdcUlFRIdSHK/AqHv2xe7h5dK1fsGABx3EXXXTRzp07+YXcbveNN97IcdyoUaPgpU+dOnXBBRdwHDdt2jS+p9/v79evHy/qEVUQnpxA69q1a3v27Ll+/XrxWl9//XXz5s05jps5c6a4Xl7m+Txu3Dh5E6uxqAcY6xnr4dS1Festr+KKsayvr//jH//IcdwXX3yh2EFcaQkV79SpE8dxb775ptjyDRs2cBx3/vnnw9+pHDNmDMdxXbp0EY+tra1t2bIlx3ErVqwQ11uoPGjQII7j7r33XthmW/EZdgXdrYz14vgy1nMcZ5N9dzpVPBAIdOzYkeO4t99+W5zZimXzq/jJkyf5E8hFRUUSCFdddRXHcbNnz5bUizfbtWvHcdxnn30mrgwEAo8++ijHcYMHD5bUW2Vz0qRJHMelpKTABjMVh/1DUytjvRBNxnqm4kIyWLLg9Xovu+wyjuNmzJgREQCv4q+88sqwYcOGDBny+uuv//TTTxFHkeywePFi/gKBfNGHHnqI47gxY8bIm/iampoafg9g7969kj75+fn8SXVJvVU2+RsFOnfuDBvMq3iPHj3Gjh37xBNPjB49+quvvqqpqYFHsVbLeYCxXggZY72tWE/nsfhHH33EcVyLFi1KS0uFzA5X4FWclzrh/06dOpnnzq+CggKO426++WY5hBEjRnAcl5WVJW/ia/bu3cuDkp91nz9/Psdxl112WbixZq53OBz8FYGCggLYTp7PQmT5QsuWLSNeUIenZa1m8wBjvRARxnpbsZ5CFd+7d+9FF10U5en0QCDw9NNPz549u7CwsLGx8dixY7Nmzbr66qs5jvvLX/5ikmex3nrrLY7j7rjjDoGlQuGFF17gOC4jI0OokRQ2bdrE65bP55M0rVq1iuO48847T1Jv/k2fz3fvvfdyHHfjjTd6PB7Y4FmzZr399tu7d++uCP1t3Lixe/fuvE++/PJLeCxrtYoHGOvFkWKstxXrzaXiY8aMSY3ub8OGDeKsFcrFxcX8sfUDDzyg+u7r8vLya6+9luO4kSNHCjMbWGAqLnE+f1/bpZdeevjwYUlTlJvDhw/nOO7yyy+PuBMQ5YSsm2oPMNYruo6xXuIWxnqJQ4RNc6k4/xio5OSn4uby5csFDELB4XCkpKRwHJeZmRnnZ0knTJjAcVybNm2EyQ0ssDPqYufzFxEuvvjiXbt2ietjKpeXl/MPqkkeYItpEtZZEw8w1iu6kbFe7BbGerE3JGVzqbjEuJg2nU7nddddxz9S1djYGNNYeeeVK1ea52zzokWLOI679NJL5Xbyd7eNHj1a3sTXVFdX87tB4e5u69ixY7ixJqx/9tlnOY5r1arV9u3b4zTvz3/+c8Tb++Ncgg3X2wOM9YoeZqxXdEsgEKCS9ZSouMvluuGGG/inh6N5q1G4GAv1s2fPDiecQh9iheLiYl6Jbf6kGf8IbMuWLbdt2xan8/1+P/8mnMWLF8c5FRtulAcY6wHPU/OkGWM9EGW+iQYVd7vd/Cs57733Xk0kPBAIPPDAAxzH3XfffRE9SKaDHm994d/hapW3vowdO5bjOE0kPBAI8PfnJyQkOBwOMhFkq2jrAcZ6+VMnYg+He+sLYz19rLe8ipeXl3fo0IE/kR5Rwu+5557U1NT58+cL6f7999/v2LFD2AwEAjU1NfyDyBzHrV69WtxkYFn+BtaysjL5G1jnz5+fmpp6zz33iE0V3sD68ccf8/V+v59/5UunTp1U3wMoXkLv8osvvsifSIePwidOnJiamvroo48K9hw/fvyLL76QXGFZsGDBJZdcwnFcv379hJ6sYCEPMNaL38DKWG9z1ltexfkLwwkJCTk5OfLPXSxYsED828Tfvi5+FQwv2FdfffX999/ft2/fu+++++KLL+Y/OjJhwgTxWMPL/P0dSUlJXbt27dmzJ79Pfccdd4j3XWbMmMFx3DXXXCOxdt68efzNXLfddluvXr2s9TWUhQsX8hcUOnbsKA+x+OeMf0hU/B6Y3bt38++f/+c//9m7d+8HH3wwOTmZn+3uu++ura2VOIptWsIDjPWM9UKiMtZbXsU7d+7M/ygr/i95j65cxX/44YdBgwbdcsstV1xxRVJS0oUXXnjdddcNGTJEfi+YkDQGFubOnXvXXXf96U9/atGiRfv27d99dSPnvAAAAVBJREFU913Jg1LhVDwQCOzYsePhhx++/PLLzzvvvGuuuWbo0KHRvBLHQLDC0jwoxfhKdlnkfC4rKxs7duw999xz9dVXX3jhhUlJSX/+85+7d+8+e/ZshJCwBCtYywOM9eJ4MdZzHCfed7cb6y2v4uJsZmXmAeYB5gHmAeYBW3mAqbitws3AMg8wDzAPMA9Q5QGm4lSFk4FhHmAeYB5gHrCVB5iK2yrcDCzzAPMA8wDzAFUeYCpOVTgZGOYB5gHmAeYBW3mAqbitws3AMg8wDzAPMA9Q5QGm4lSFk4FhHmAeYB5gHrCVB5iK2yrcDCzzAPMA8wDzAFUeYCpOVTgZGOYB5gHmAeYBW3mAqbitws3AMg8wDzAPMA9Q5QGm4lSFk4FhHmAeYB5gHrCVB5iK2yrcDCzzAPMA8wDzAFUeYCpOVTgZGOYB5gHmAeYBW3ng/wGYrAGqIFI82QAAAABJRU5ErkJggg==;" vertex="1" parent="1">
          <mxGeometry x="160" y="860" width="232.63" height="100" as="geometry" />
        </mxCell>
        <mxCell id="uyvEmPoRV89XPVumFd5U-31" value="&lt;font face=&quot;Roboto Mono&quot;&gt;new_assignmets = [clusterer.classify(input_) for input_ in inputs]&lt;/font&gt;" style="text;html=1;align=left;verticalAlign=top;whiteSpace=wrap;rounded=0;spacing=0;spacingLeft=6;" vertex="1" parent="1">
          <mxGeometry x="120" y="820" width="500" height="30" as="geometry" />
        </mxCell>
        <mxCell id="uyvEmPoRV89XPVumFd5U-32" value="&lt;font face=&quot;Roboto Mono&quot;&gt;num_changed = num_differences(assignments, new_assignments)&lt;/font&gt;" style="text;html=1;align=left;verticalAlign=top;whiteSpace=wrap;rounded=0;spacing=0;spacingLeft=6;" vertex="1" parent="1">
          <mxGeometry x="119" y="980" width="450" height="30" as="geometry" />
        </mxCell>
        <mxCell id="uyvEmPoRV89XPVumFd5U-34" style="edgeStyle=orthogonalEdgeStyle;rounded=0;orthogonalLoop=1;jettySize=auto;html=1;exitX=1;exitY=0.5;exitDx=0;exitDy=0;endArrow=block;endFill=1;" edge="1" source="uyvEmPoRV89XPVumFd5U-36" parent="1">
          <mxGeometry relative="1" as="geometry">
            <mxPoint x="330" y="1059.7488888888888" as="targetPoint" />
            <mxPoint x="280" y="1059.8600000000001" as="sourcePoint" />
          </mxGeometry>
        </mxCell>
        <mxCell id="uyvEmPoRV89XPVumFd5U-35" value="True" style="edgeLabel;html=1;align=center;verticalAlign=middle;resizable=0;points=[];" vertex="1" connectable="0" parent="uyvEmPoRV89XPVumFd5U-34">
          <mxGeometry x="-0.2254" y="1" relative="1" as="geometry">
            <mxPoint as="offset" />
          </mxGeometry>
        </mxCell>
        <mxCell id="uyvEmPoRV89XPVumFd5U-36" value="&lt;font face=&quot;Roboto Mono&quot;&gt;num_changed == 0&lt;/font&gt;" style="shape=hexagon;perimeter=hexagonPerimeter2;whiteSpace=wrap;html=1;fixedSize=1;" vertex="1" parent="1">
          <mxGeometry x="119" y="1040" width="151" height="40" as="geometry" />
        </mxCell>
        <mxCell id="uyvEmPoRV89XPVumFd5U-37" value="&lt;font face=&quot;Roboto Mono&quot;&gt;return&lt;/font&gt;" style="text;html=1;align=left;verticalAlign=top;whiteSpace=wrap;rounded=0;spacing=0;spacingLeft=6;" vertex="1" parent="1">
          <mxGeometry x="340" y="1050" width="70" height="30" as="geometry" />
        </mxCell>
        <mxCell id="uyvEmPoRV89XPVumFd5U-38" value="" style="endArrow=classic;html=1;rounded=0;" edge="1" parent="1">
          <mxGeometry width="50" height="50" relative="1" as="geometry">
            <mxPoint x="135.75" y="1010" as="sourcePoint" />
            <mxPoint x="135.75" y="1110" as="targetPoint" />
            <Array as="points">
              <mxPoint x="85.75" y="1060" />
            </Array>
          </mxGeometry>
        </mxCell>
        <mxCell id="uyvEmPoRV89XPVumFd5U-39" value="" style="endArrow=block;html=1;rounded=0;endFill=1;" edge="1" parent="1">
          <mxGeometry width="50" height="50" relative="1" as="geometry">
            <mxPoint x="139.89" y="850" as="sourcePoint" />
            <mxPoint x="140" y="970" as="targetPoint" />
          </mxGeometry>
        </mxCell>
        <mxCell id="uyvEmPoRV89XPVumFd5U-42" value="&lt;font face=&quot;Roboto Mono&quot;&gt;assignments = new_assignments.copy()&lt;/font&gt;&lt;div&gt;&lt;font face=&quot;Roboto Mono&quot;&gt;clusterer.means = cluster_means(clusterer.k, inputs, assignmnets, rng)&lt;/font&gt;&lt;/div&gt;&lt;div&gt;&lt;font face=&quot;Roboto Mono&quot;&gt;t.set_description(f&quot;changed: {num_changed} / {len(inputs)}&quot;)&lt;/font&gt;&lt;/div&gt;" style="text;html=1;align=left;verticalAlign=top;whiteSpace=wrap;rounded=0;spacing=0;spacingLeft=6;" vertex="1" parent="1">
          <mxGeometry x="120" y="1120" width="520" height="60" as="geometry" />
        </mxCell>
        <mxCell id="uyvEmPoRV89XPVumFd5U-43" value="" style="endArrow=block;html=1;rounded=0;endFill=1;" edge="1" parent="1">
          <mxGeometry width="50" height="50" relative="1" as="geometry">
            <mxPoint x="130" y="1180" as="sourcePoint" />
            <mxPoint x="110" y="560" as="targetPoint" />
            <Array as="points">
              <mxPoint x="40" y="1180" />
              <mxPoint x="40" y="560" />
            </Array>
          </mxGeometry>
        </mxCell>
      </root>
    </mxGraphModel>
  </diagram>
</mxfile>
